<svg xmlns="http://www.w3.org/2000/svg" width="37.5" height="37.5" viewBox="0 0 37.5 37.5"><defs><style>.a{fill:#fff;}</style></defs><g transform="translate(0.001)"><path class="a" d="M166.9,11.809A5.9,5.9,0,1,0,161,5.9,5.911,5.911,0,0,0,166.9,11.809Zm0-10.612A4.708,4.708,0,1,1,162.193,5.9,4.713,4.713,0,0,1,166.9,1.2Z" transform="translate(-148.152)"/><path class="a" d="M117.176,164.206a9.031,9.031,0,0,1,9,8.421h-13.83a.6.6,0,1,0,0,1.2h14.448a.6.6,0,0,0,.6-.6,10.216,10.216,0,0,0-20.432,0,.6.6,0,0,0,.6.6h2.394a.6.6,0,1,0,0-1.2h-1.776A9.031,9.031,0,0,1,117.176,164.206Z" transform="translate(-98.427 -150.003)"/><path class="a" d="M11.2,333.6l-3.283-.551L6.381,330.1a.6.6,0,0,0-1.061,0l-1.538,2.952L.5,333.6a.6.6,0,0,0-.328,1.009L2.5,336.987l-.49,3.292a.6.6,0,0,0,.859.624l2.98-1.484,2.98,1.484a.6.6,0,0,0,.859-.624l-.49-3.292,2.332-2.375A.6.6,0,0,0,11.2,333.6Zm-3.067,2.759a.6.6,0,0,0-.165.507l.365,2.451-2.218-1.1a.6.6,0,0,0-.534,0l-2.219,1.1.365-2.451a.6.6,0,0,0-.165-.507l-1.736-1.769,2.444-.41a.6.6,0,0,0,.432-.314l1.145-2.2L7,333.869a.6.6,0,0,0,.432.314l2.444.41-1.736,1.769Z" transform="translate(0 -303.466)"/><path class="a" d="M172.869,333.6l-3.283-.551-1.538-2.952a.6.6,0,0,0-1.061,0l-1.538,2.952-3.283.551a.6.6,0,0,0-.328,1.009l2.332,2.375-.49,3.292a.6.6,0,0,0,.859.624l2.98-1.484,2.98,1.484a.6.6,0,0,0,.859-.624l-.49-3.292,2.332-2.375a.6.6,0,0,0-.328-1.009Zm-3.067,2.759a.6.6,0,0,0-.165.507L170,339.32l-2.218-1.1a.6.6,0,0,0-.533,0l-2.218,1.1.365-2.451a.6.6,0,0,0-.165-.507l-1.736-1.769,2.444-.41a.6.6,0,0,0,.432-.314l1.145-2.2,1.145,2.2a.6.6,0,0,0,.432.314l2.444.41Z" transform="translate(-148.768 -303.466)"/><path class="a" d="M335,334.008a.6.6,0,0,0-.47-.405l-3.283-.551-1.538-2.952a.6.6,0,0,0-1.061,0l-1.538,2.952-3.283.551a.6.6,0,0,0-.328,1.009l2.332,2.375-.49,3.292a.6.6,0,0,0,.859.624l2.98-1.484,2.98,1.484a.6.6,0,0,0,.859-.624l-.49-3.292,2.332-2.375A.6.6,0,0,0,335,334.008Zm-3.537,2.354a.6.6,0,0,0-.165.507l.365,2.451-2.219-1.1a.6.6,0,0,0-.533,0l-2.219,1.1.365-2.451a.6.6,0,0,0-.165-.507l-1.736-1.769,2.444-.41a.6.6,0,0,0,.432-.314l1.145-2.2,1.145,2.2a.6.6,0,0,0,.432.314l2.444.41Z" transform="translate(-297.535 -303.466)"/><path class="a" d="M209.694,85.793a2.713,2.713,0,0,0,2.047-.935.6.6,0,0,0-.9-.785,1.512,1.512,0,0,1-2.288,0,.6.6,0,1,0-.9.785A2.713,2.713,0,0,0,209.694,85.793Z" transform="translate(-190.945 -77.175)"/></g></svg>