<?xml version="1.0" encoding="utf-8"?>
<!-- Generator: Adobe Illustrator 23.1.1, SVG Export Plug-In . SVG Version: 6.00 Build 0)  -->
<svg version="1.1" id="Layer_1" xmlns="http://www.w3.org/2000/svg" xmlns:xlink="http://www.w3.org/1999/xlink" x="0px" y="0px"
	 viewBox="0 0 27.9 27.9" style="enable-background:new 0 0 27.9 27.9;" xml:space="preserve">
<style type="text/css">
	.st0{fill:#FFFFFF;}
</style>
<path class="st0" d="M11,0H1.7C0.8,0,0,0.8,0,1.7v5.8c0,1,0.8,1.7,1.7,1.7H11c1,0,1.7-0.8,1.7-1.7V1.7C12.8,0.8,12,0,11,0z
	 M10.8,6.4c0,0.5-0.4,1-1,1h-7c-0.5,0-1-0.4-1-1V2.9c0-0.5,0.4-1,1-1h7c0.5,0,1,0.4,1,1V6.4z"/>
<path class="st0" d="M26.1,0h-9.3c-1,0-1.7,0.8-1.7,1.7v12.8c0,1,0.8,1.7,1.7,1.7h9.3c1,0,1.7-0.8,1.7-1.7V1.7
	C27.9,0.8,27.1,0,26.1,0z M25.9,13c0,0.7-0.6,1.3-1.3,1.3h-6.3c-0.7,0-1.3-0.6-1.3-1.3V3.3c0-0.7,0.6-1.3,1.3-1.3h6.3
	c0.7,0,1.3,0.6,1.3,1.3V13z"/>
<path class="st0" d="M11,11.6H1.7c-1,0-1.7,0.8-1.7,1.7v12.8c0,1,0.8,1.7,1.7,1.7H11c1,0,1.7-0.8,1.7-1.7V13.4
	C12.8,12.4,12,11.6,11,11.6z M10.8,24.8c0,0.6-0.5,1.2-1.2,1.2H3.1c-0.6,0-1.2-0.5-1.2-1.2v-10c0-0.6,0.5-1.2,1.2-1.2h6.5
	c0.6,0,1.2,0.5,1.2,1.2V24.8z"/>
<path class="st0" d="M26.1,18.6h-9.3c-1,0-1.7,0.8-1.7,1.7v5.8c0,1,0.8,1.7,1.7,1.7h9.3c1,0,1.7-0.8,1.7-1.7v-5.8
	C27.9,19.4,27.1,18.6,26.1,18.6z M25.9,25c0,0.5-0.4,1-1,1h-7c-0.5,0-1-0.4-1-1v-3.5c0-0.5,0.4-1,1-1h7c0.5,0,1,0.4,1,1V25z"/>
</svg>
