<svg xmlns="http://www.w3.org/2000/svg" width="14.761" height="18" viewBox="0 0 14.761 18"><defs><style>.a{fill:#fff;}</style></defs><g transform="translate(-45.288)"><path class="a" d="M60.049,4.581V16.269A1.733,1.733,0,0,1,58.318,18h-7.9a1.733,1.733,0,0,1-1.731-1.731v-7.6a4.258,4.258,0,0,0,1.3.033v7.566a.433.433,0,0,0,.433.433h7.9a.433.433,0,0,0,.433-.433V4.581a.433.433,0,0,0-.433-.433H54.033a4.579,4.579,0,0,0-.189-1.3h4.474A1.733,1.733,0,0,1,60.049,4.581ZM49.372,8.167a4.084,4.084,0,1,1,4.084-4.084A4.088,4.088,0,0,1,49.372,8.167Zm0-.866a3.218,3.218,0,1,0-3.218-3.218A3.221,3.221,0,0,0,49.372,7.3Zm2.449-2.785a.433.433,0,1,0,0-.866H49.8v-1.7a.433.433,0,1,0-.866,0V4.084a.433.433,0,0,0,.433.433Zm5,3.51H52.127a.433.433,0,0,0,0,.866h4.689a.433.433,0,1,0,0-.866Zm.008,2.626H52.135a.433.433,0,0,0,0,.866h4.689a.433.433,0,0,0,0-.866Zm0,2.734H52.135a.433.433,0,1,0,0,.866h4.689a.433.433,0,0,0,0-.866Z"/></g></svg>