<svg xmlns="http://www.w3.org/2000/svg" width="12.761" height="16.626" viewBox="0 0 12.761 16.626"><defs><style>.a{fill:#fff;}</style></defs><g transform="translate(-59.472)"><path class="a" d="M65.853,0a6.387,6.387,0,0,0-6.381,6.378,7.419,7.419,0,0,0,.988,3.651A10.891,10.891,0,0,0,62.6,12.685a14.867,14.867,0,0,0,1.54,1.238,1.891,1.891,0,1,0,3.411-.009A15.163,15.163,0,0,0,69.1,12.663a11.026,11.026,0,0,0,2.144-2.658,7.358,7.358,0,0,0,.988-3.627A6.387,6.387,0,0,0,65.853,0Zm1.242,14.737a1.242,1.242,0,1,1-2.4-.446,11.349,11.349,0,0,0,1.017.587.324.324,0,0,0,.288,0,11.578,11.578,0,0,0,1.012-.593A1.236,1.236,0,0,1,67.095,14.737Zm1.577-2.561a14.886,14.886,0,0,1-2.495,1.858V12.07a.325.325,0,1,0-.649,0v1.968a14.568,14.568,0,0,1-2.5-1.841,7.917,7.917,0,0,1-2.911-5.818,5.731,5.731,0,0,1,11.463,0,7.93,7.93,0,0,1-2.912,5.8Z" transform="translate(0)"/><path class="a" d="M126.75,62.9a4.335,4.335,0,1,0,4.337,4.335A4.341,4.341,0,0,0,126.75,62.9Zm0,8.02a3.686,3.686,0,1,1,3.688-3.686A3.691,3.691,0,0,1,126.75,70.925Z" transform="translate(-60.897 -60.863)"/></g></svg>