<svg xmlns="http://www.w3.org/2000/svg" width="17.943" height="17.934" viewBox="0 0 17.943 17.934"><defs><style>.a{fill:#fff;}</style></defs><path class="a" d="M8.278,0H9.625c0,.04.045.031.072.031A8.947,8.947,0,0,1,11.452.35a10.289,10.289,0,0,1,1.885.777l.449.278.4.278a.566.566,0,1,1-.615.92,5.872,5.872,0,0,0-.548-.359,2.438,2.438,0,0,0-.512-.274,6.653,6.653,0,0,0-1.8-.646,3.874,3.874,0,0,0-.6-.108,7.245,7.245,0,0,0-2.527.063,4.287,4.287,0,0,0-.9.233.616.616,0,0,0-.2.054A7.631,7.631,0,0,0,4.1,2.842,7.717,7.717,0,0,0,1.522,6.59a4.547,4.547,0,0,0-.224.9,7.106,7.106,0,0,0-.067,2.559,2.339,2.339,0,0,0,.117.579A6.532,6.532,0,0,0,2,12.489a2.191,2.191,0,0,0,.251.449,6.5,6.5,0,0,0,1.037,1.428,2.406,2.406,0,0,0,.355.355,6.7,6.7,0,0,0,1.437,1.064,1.755,1.755,0,0,0,.386.2,6.756,6.756,0,0,0,1.894.669,2.693,2.693,0,0,0,.6.1,3.73,3.73,0,0,0,.741.072,6.9,6.9,0,0,0,1.823-.153,4.327,4.327,0,0,0,.9-.238.808.808,0,0,0,.1-.027,7.829,7.829,0,0,0,4.9-4.938,4.354,4.354,0,0,0,.233-.9,7.007,7.007,0,0,0,.094-2.595,2.339,2.339,0,0,0-.1-.561A6.464,6.464,0,0,0,16,5.557a2.213,2.213,0,0,1-.193-.494c.081-.417.215-.543.624-.588a.786.786,0,0,1,.417.247,9.364,9.364,0,0,1,1.006,3.066,2.016,2.016,0,0,0,.085.539V9.764c-.054,0-.036.067-.036.1a10.572,10.572,0,0,1-.337,1.71,9.984,9.984,0,0,1-.808,1.89A10.451,10.451,0,0,1,15.6,15.038a9.364,9.364,0,0,1-2.173,1.742h-.049a9.05,9.05,0,0,1-3.142,1.064,2.666,2.666,0,0,0-.593.09h-1.4S8.22,17.9,8.211,17.9a10.5,10.5,0,0,1-1.863-.355A11.99,11.99,0,0,1,4.6,16.8l-.359-.193a12.484,12.484,0,0,1-1.4-1.077l-.382-.382A12.516,12.516,0,0,1,1.405,13.8l-.278-.449a11.187,11.187,0,0,1-.714-1.683A11.223,11.223,0,0,1,.081,10.19,1.374,1.374,0,0,0,0,9.714V8.242c.054,0,.031-.067.036-.1a10.522,10.522,0,0,1,.2-1.185A9.723,9.723,0,0,1,1.1,4.664L1.145,4.6a8.911,8.911,0,0,1,2.025-2.46,10.54,10.54,0,0,1,1.5-1.046l.067-.027A9.122,9.122,0,0,1,7.7.09,2.289,2.289,0,0,0,8.278,0Z"/><path class="a" d="M9.8,16.24A.669.669,0,0,1,9.351,16a.584.584,0,0,1,.584-.9,3.47,3.47,0,0,0,.449,0,.727.727,0,0,0,.139,0c.171,0,.409.076.5-.027s0-.337.031-.507-.04-.148-.144-.112H9.966c-.516,0-.732-.242-.664-.754a.9.9,0,0,1,.274-.314,1.082,1.082,0,0,1,.377-.054h.979c.085,0,.126,0,.121-.117V11.275a.9.9,0,0,0,0-.1c0-.449.251-.669.732-.624a.821.821,0,0,1,.346.287c.314.494.637.983.979,1.459a3.084,3.084,0,0,0,.287.426l.35.539a.117.117,0,0,0,.112.067h2.074c.072,0,.1-.027.1-.1V11.149a.561.561,0,0,1,.557-.619.57.57,0,0,1,.566.619v2.065c0,.108.045.112.126.112h1.176a.75.75,0,0,1,.377.229.575.575,0,0,1-.171.777.584.584,0,0,1-.364.1h-.714c-.148,0-.35-.054-.449,0s0,.3-.036.449.049.229.211.18h.929a.566.566,0,0,1,.53.9l-.121.121a.759.759,0,0,1-.417.1h-.983c-.09,0-.126.022-.121.117v2.069c-.027.417-.153.606-.449.682a.853.853,0,0,1-.26,0,.9.9,0,0,1-.341-.242c-.319-.5-.646-.992-.988-1.472a3.69,3.69,0,0,0-.314-.449l-.373-.57a.126.126,0,0,0-.13-.067H12.215c-.076,0-.1.027-.1.1v2.105a.566.566,0,1,1-1.122,0V16.343c0-.1-.045-.112-.126-.108Zm4.731-1.8c.063.1.112.162.144.229a.673.673,0,0,0,.808.449c.162-.031.4.054.485-.031s.027-.341.036-.521v-.036c0-.058-.022-.081-.081-.081Zm-.9.669a1.679,1.679,0,0,1-.153-.238.651.651,0,0,0-.795-.426c-.162.027-.4-.072-.48.036s-.027.323-.031.489v.036c0,.072,0,.1.094.1Zm2.132,1.127a1.625,1.625,0,0,0,.256.382c0-.4,0-.4-.274-.382Zm-3.34-2.927-.238-.359c-.054.391-.054.391.22.359Z" transform="translate(-5.1 -5.803)"/><path class="a" d="M32.81,7.056c-.076-.449.121-.745.494-.768a.678.678,0,0,1,.269.04A.9.9,0,0,1,34,6.841a.543.543,0,0,1-.251.615.557.557,0,0,1-.678-.076,1.62,1.62,0,0,1-.256-.323Z" transform="translate(-18.072 -3.465)"/></svg>