<svg xmlns="http://www.w3.org/2000/svg" width="32.448" height="32.385" viewBox="0 0 32.448 32.385"><defs><style>.a{fill:#fff;}</style></defs><path class="a" d="M15.813,32.885H7.59A7.6,7.6,0,0,1,0,25.294V8.09A7.6,7.6,0,0,1,7.59.5h17.2a7.6,7.6,0,0,1,7.59,7.59v2.973a1.265,1.265,0,0,1-2.53,0V8.09a5.066,5.066,0,0,0-5.06-5.06H7.59A5.066,5.066,0,0,0,2.53,8.09v17.2a5.066,5.066,0,0,0,5.06,5.06h8.223A1.265,1.265,0,0,1,15.813,32.885Zm4.87-25.427a1.265,1.265,0,0,0-1.265-1.265H12.966a1.265,1.265,0,0,0,0,2.53h6.452A1.265,1.265,0,0,0,20.683,7.458ZM32.448,18.274c-.2-5.869-12.45-5.865-12.65,0,0,2.483,2.778,4.428,6.325,4.428S32.448,20.756,32.448,18.274ZM29.03,17.11c1.174.736,1.174,1.591,0,2.327a6.182,6.182,0,0,1-5.815,0c-1.174-.736-1.174-1.591,0-2.327a6.126,6.126,0,0,1,5.815,0ZM26.059,32.885a9.934,9.934,0,0,1-5.8-1.759,1.265,1.265,0,0,1,1.484-2.049,7.968,7.968,0,0,0,8.636,0,1.265,1.265,0,0,1,1.484,2.049A9.935,9.935,0,0,1,26.059,32.885ZM31.861,26a1.265,1.265,0,0,0-1.484-2.049,7.968,7.968,0,0,1-8.636,0A1.265,1.265,0,0,0,20.257,26a9.935,9.935,0,0,0,5.8,1.759A9.934,9.934,0,0,0,31.861,26Z" transform="translate(0 -0.5)"/></svg>