<svg height="512pt" viewBox="0 0 512 512" width="512pt" xmlns="http://www.w3.org/2000/svg"><path d="m452 78.667969h-18.667969v-18.667969c0-33.085938-26.914062-60-60-60h-314c-32.714843 0-59.332031 26.617188-59.332031 59.332031v389.667969c0 34.738281 28.261719 63 63 63h389c33.085938 0 60-26.914062 60-60v-313.332031c0-33.085938-26.914062-60-60-60zm20 255.664062h-78.332031c-21.507813 0-39-17.492187-39-39 0-21.503906 17.492187-39 39-39h78.332031zm-412.667969-294.332031h314c11.027344 0 20 8.972656 20 20v18.667969h-334c-10.660156 0-19.332031-8.675781-19.332031-19.335938 0-10.660156 8.671875-19.332031 19.332031-19.332031zm392.667969 432h-389c-12.683594 0-23-10.316406-23-23v-333.566406c6.0625 2.09375 12.566406 3.230468 19.332031 3.230468h392.667969c11.027344 0 20 8.972657 20 20v77.667969h-78.332031c-43.5625 0-79 35.441407-79 79 0 43.5625 35.4375 79 79 79h78.332031v77.667969c0 11.027344-8.972656 20-20 20zm0 0"/></svg>