<?xml version="1.0" encoding="utf-8"?>
<!-- Generator: Adobe Illustrator 23.1.1, SVG Export Plug-In . SVG Version: 6.00 Build 0)  -->
<svg version="1.1" id="Layer_1" xmlns="http://www.w3.org/2000/svg" xmlns:xlink="http://www.w3.org/1999/xlink" x="0px" y="0px"
	 viewBox="0 0 32.2 32.2" style="enable-background:new 0 0 32.2 32.2;" xml:space="preserve">
<style type="text/css">
	.st0{fill:#FFFFFF;}
</style>
<path class="st0" d="M28.7,0.1c-6.5,0-13.1,0-19.6,0c-2,0-4,0-6,0c-1.6,0-2.9,1.3-3,3c-0.1,1.6,0,3.2,0,4.8c0,0.5,0.2,0.9,0.6,1
	C1.2,9,1.2,9.3,1.2,9.7c0,6.2,0,12.5,0,18.7c0,2.3,1.2,3.7,3.4,3.7c7.7,0,15.3,0,23,0c2.2,0,3.4-1.3,3.4-3.7c0-6.2,0-12.4,0-18.7
	c0-0.2,0-0.4,0-0.7c0.9-0.2,1.1-0.6,1.1-1.5c0-1.3,0-2.5,0-3.8C32.1,1.5,30.9,0.1,28.7,0.1z M28.9,9.7c0,6.3,0,12.5,0,18.8
	c0,1.1-0.3,1.4-1.3,1.4c-7.6,0-15.3,0-22.9,0c-1.1,0-1.4-0.3-1.4-1.5c0-6.2,0-12.5,0-18.7c0-0.2,0-0.4,0-0.6c2.4,0,4.8,0,7.2,0
	c0,0.2,0,0.5,0,0.7c0,3.7,0,7.5,0,11.2c0,1.4,0.7,1.8,1.8,1.2c1.1-0.6,2.2-1.3,3.3-1.9c0.3-0.2,0.5-0.2,0.8,0
	c1.1,0.7,2.2,1.3,3.3,1.9c1.1,0.6,1.8,0.2,1.8-1.2c0-3.7,0-7.5,0-11.2c0-0.2,0-0.4,0-0.7c2.4,0,4.8,0,7.3,0
	C28.9,9.3,28.9,9.5,28.9,9.7z M12.6,19.4c0-3.5,0-6.9,0-10.3c2.3,0,4.6,0,6.9,0c0,3.4,0,6.8,0,10.3c-0.9-0.5-1.7-1-2.6-1.5
	c-0.6-0.4-1.1-0.4-1.7,0C14.4,18.4,13.6,18.9,12.6,19.4z M30,6.7c-9.3,0-18.5,0-27.8,0c0-1.1,0-2.2,0-3.4c0-0.6,0.4-1,0.9-1
	c0.1,0,0.3,0,0.4,0c8.4,0,16.7,0,25.1,0c1.1,0,1.4,0.3,1.4,1.5C30,4.8,30,5.7,30,6.7z"/>
</svg>
