<svg xmlns="http://www.w3.org/2000/svg" width="16.993" height="17" viewBox="0 0 16.993 17"><defs><style>.a{fill:#fff;}</style></defs><path class="a" d="M9.173,0a8.247,8.247,0,0,1,1.786.728,4.518,4.518,0,0,1,.515,7.164l-.25.217a10.822,10.822,0,0,1,2.254,1.167,8.8,8.8,0,0,1,2.07,2.065c.26.369.35.718-.028,1.049s-.709.194-1.044-.269a7.349,7.349,0,0,0-4.726-3A7.394,7.394,0,0,0,1.38,14.65c-.142.671.118,1,.827,1H14.773c.676,0,.832-.165.86-.879a.632.632,0,0,1,.633-.718c.435-.024.638.255.709.652A2.023,2.023,0,0,1,14.91,16.99H5.964c-1.073,0-2.155-.057-3.228,0A2.486,2.486,0,0,1,0,15.5V14.367c.194-.109.156-.326.208-.473a8.979,8.979,0,0,1,1.46-2.836,8.757,8.757,0,0,1,4.1-2.93c-.095-.09-.156-.151-.227-.213a4.5,4.5,0,0,1-.123-6.7A6.215,6.215,0,0,1,7.7,0Zm2.491,4.537a3.143,3.143,0,1,0-.919,2.24,3.171,3.171,0,0,0,.919-2.24Z" transform="translate(0)"/></svg>