<svg xmlns="http://www.w3.org/2000/svg" width="13.125" height="15" viewBox="0 0 13.125 15"><defs><style>.a{fill:#fff;}</style></defs><g transform="translate(-23.999)"><g transform="translate(26.086 10.725)"><path class="a" d="M78.8,274.985a3.26,3.26,0,0,1-.344-.271.625.625,0,0,0-.836.929,4.5,4.5,0,0,0,.477.375.625.625,0,1,0,.7-1.033Z" transform="translate(-77.41 -274.554)"/></g><g transform="translate(23.999)"><g transform="translate(0)"><path class="a" d="M37.124,6.7A6.579,6.579,0,0,0,24,5.882a.625.625,0,0,0,1.242.148A5.329,5.329,0,0,1,35.874,6.7a5.435,5.435,0,0,1-4.011,5.273l.755-1.078a.625.625,0,1,0-1.023-.717l-1.569,2.238,0,0a.621.621,0,0,0-.039.069c-.007.013-.015.025-.021.038s-.012.037-.018.055a.63.63,0,0,0-.019.061c0,.014,0,.029-.005.043a.626.626,0,0,0-.008.08s0,0,0,.007,0,.028,0,.043a.6.6,0,0,0,.007.071c0,.02.01.038.015.057s.011.039.018.058a.589.589,0,0,0,.027.055c.009.018.018.036.028.052s.024.033.037.049.024.031.037.045a.616.616,0,0,0,.052.047c.011.009.02.019.031.028l2.2,1.6A.625.625,0,1,0,33.1,13.87l-.939-.683A6.686,6.686,0,0,0,37.124,6.7Z" transform="translate(-23.999)"/></g></g><g transform="translate(24.313 8.154)"><g transform="translate(0)"><path class="a" d="M33.462,209.714c0-.011-.007-.021-.01-.032a.6.6,0,0,0-.031-.091s0-.008,0-.011a3.992,3.992,0,0,1-.175-.421.625.625,0,0,0-1.183.4,5.146,5.146,0,0,0,.21.514l0,.007a.616.616,0,0,0,.08.139l.025.03a.621.621,0,0,0,.107.1l.014.011a.632.632,0,0,0,.145.072l.039.012a.62.62,0,0,0,.166.026h0a.626.626,0,0,0,.612-.5.613.613,0,0,0,0-.258Z" transform="translate(-32.026 -208.734)"/></g></g></g></svg>