<svg xmlns="http://www.w3.org/2000/svg" viewBox="0 0 479.27 479.36"><path fill="white" d="M151.82,239.42c0-17.62,0-35.25,0-52.88,0-20.63,14.14-34.69,34.84-34.72q53.12-.06,106.24,0c20.39,0,34.55,14.11,34.58,34.45q.11,53.37,0,106.75c0,20.33-14.2,34.45-34.58,34.48q-53.37.09-106.74,0c-20.06,0-34.2-14.22-34.35-34.21V239.42ZM184,295.13H295.15v-111H184Z"/><path fill="white" d="M93.93.06c16.12,0,32.25,0,48.37,0,10.19,0,17.41,6.6,17.48,15.81C159.86,25.31,152.6,32,142.1,32q-46.38,0-92.77,0C37.17,32,32,37.12,32,49.22c0,31.26.06,62.52,0,93.78,0,13-12.75,20.86-23.59,14.73-5.34-3-8.27-7.68-8.28-13.85,0-33.25-.31-66.51.12-99.76C.55,20.32,20.67.62,44.55.16,61-.16,77.47.1,93.93.1Z"/><path fill="white" d="M385.8.06c15.29,0,30.59,0,45.88,0,27.63.09,47.48,19.85,47.55,47.46.08,31.43,0,62.85,0,94.28,0,10.64-6.43,17.89-15.82,18-9.58.09-16.11-7.25-16.11-18.19q0-46.14,0-92.27c0-12.1-5.19-17.31-17.25-17.31-31.25,0-62.5.05-93.76,0-12.1,0-19.9-11.12-15.63-21.87,2.5-6.29,8.22-10,15.77-10C352.88,0,369.34.06,385.8.06Z"/><path fill="white" d="M.09,385.42q0-24.19,0-48.38c0-10.24,6.54-17.39,15.79-17.49C25.3,319.46,32,326.73,32,337.21q0,46.4,0,92.77c0,12.12,5.18,17.34,17.21,17.35q46.89,0,93.76,0c7.85,0,13.66,4.15,16,11.11A15,15,0,0,1,153.11,476a19.34,19.34,0,0,1-9.71,3.1c-32.75.21-65.5.35-98.24,0a45.62,45.62,0,0,1-45-45.38C-.08,417.67.1,401.55.09,385.42Z"/><path fill="white" d="M479.24,386.11c0,15.14.05,30.27,0,45.4-.1,28-19.78,47.71-47.76,47.76q-47.62.08-95.26,0c-12.52,0-20.38-12-15.07-22.82,3.19-6.49,8.71-9.13,15.86-9.12q46.14.1,92.27,0c13.15,0,18-4.87,18-18q0-46.4,0-92.78c0-9.62,6.44-16.62,15.29-17,9.29-.36,16.55,6.8,16.61,16.67C479.31,352.86,479.24,369.49,479.24,386.11Z"/></svg>