<svg xmlns="http://www.w3.org/2000/svg" width="14.22" height="13.939" viewBox="0 0 14.22 13.939"><g transform="translate(0 -4.503)"><path d="M3.039,53.423H.418a.418.418,0,0,1,0-.836h2.62a.418.418,0,0,1,0,.836Z" transform="translate(0 -46.586)"/><path class="a" d="M86.052,8.334a1.916,1.916,0,1,1,1.916-1.916A1.918,1.918,0,0,1,86.052,8.334Zm0-2.995a1.079,1.079,0,1,0,1.079,1.079A1.081,1.081,0,0,0,86.052,5.339Z" transform="translate(-81.516)"/><path class="a" d="M235.674,53.423h-6.251a.418.418,0,0,1,0-.836h6.251a.418.418,0,0,1,0,.836Z" transform="translate(-221.872 -46.586)"/><path class="a" d="M266.345,170.605a1.916,1.916,0,1,1,1.916-1.916A1.918,1.918,0,0,1,266.345,170.605Zm0-2.995a1.079,1.079,0,1,0,1.079,1.079A1.08,1.08,0,0,0,266.345,167.61Z" transform="translate(-256.193 -157.217)"/><path class="a" d="M7.137,215.686H.418a.418.418,0,0,1,0-.836H7.137a.418.418,0,0,1,0,.836Z" transform="translate(0 -203.796)"/><path class="a" d="M363.158,215.686h-2.153a.418.418,0,0,1,0-.836h2.153a.418.418,0,0,1,0,.836Z" transform="translate(-349.356 -203.796)"/><path class="a" d="M71.029,332.868a1.916,1.916,0,1,1,1.916-1.916A1.918,1.918,0,0,1,71.029,332.868Zm0-2.995a1.079,1.079,0,1,0,1.079,1.079A1.08,1.08,0,0,0,71.029,329.874Z" transform="translate(-66.96 -314.426)"/><path class="a" d="M221.116,377.95H214.4a.418.418,0,0,1,0-.836h6.719a.418.418,0,0,1,0,.836Z" transform="translate(-207.314 -361.006)"/><path class="a" d="M2.571,377.949H.418a.418.418,0,0,1,0-.836H2.571a.418.418,0,0,1,0,.836Z" transform="translate(0 -361.005)"/></g></svg>