<svg height="810" viewBox="0 0 1091 810" width="1091"
    xmlns="http://www.w3.org/2000/svg">
    <g fill="none" fill-rule="evenodd" opacity="0.6">
        <path d="m.5 50.5v759h1087v-759z" fill="#f3f3f3" stroke="#eee"/>
        <g transform="translate(.335938)">
            <path d="m1088 609.47168c-13.56805 4.548176-28.40278 9.454752-44.5042 14.719726-286.193924 93.582031-353.405986 135.925782-617.23096-13.492187-175.883317-99.611979-317.971597-111.511719-426.26484-35.699219v-355h1087.38024c-.83683 244.742962-.63024 366.970272.61976 366.681931z" fill="#f9f9f9"/>
            <path d="m1088 516.704761c-13.22645 8.119937-28.27519 17.282153-45.14621 27.486645-212.958453 128.808594-322.565067 169.785157-584.954178-93.921875-174.926075-175.804687-327.559279-160.894531-457.899612 44.730469v-355h1088.71123c-1.85832 243.81473-2.0954 365.355286-.71123 364.621668z" fill="#eaeaea"/>
            <path d="m1088 395.405932c-11.57343 2.750403-25.58515 5.678896-42.03516 8.785474-143.984371 27.191407-351.238049-110.056574-565.628674-173.191406-142.927084-42.089888-303.039139-.756555-480.336166 124v-355h1089.95313z" fill="#f6f6f6"/>
        </g>
    </g>
</svg>