<svg width="42" height="42" viewBox="0 0 42 42" fill="none" xmlns="http://www.w3.org/2000/svg">
<g clip-path="url(#clip0_250_107)">
<path d="M10.8318 10.4732C10.2703 8.80349 12.0394 7.30656 13.5931 8.13672L16.6103 9.74876C17.6011 10.2781 18.793 10.2678 19.7744 9.72126L30.1552 3.94067C30.3884 3.81079 30.6719 3.80915 30.9066 3.93633V3.93633C31.3849 4.19547 31.458 4.85217 31.0484 5.21014L21.2629 13.7616C21.1601 13.8514 21.1087 13.8964 21.0608 13.9357C19.8106 14.9617 18.0655 15.1339 16.6389 14.3719C16.5842 14.3427 16.5251 14.3087 16.4067 14.2407L11.7067 11.5402C11.2945 11.3033 10.9833 10.9238 10.8318 10.4732V10.4732ZM6.4057 27.4893C4.64448 27.5241 3.74725 25.3874 5.0053 24.1543L7.44899 21.7592C8.25133 20.9728 8.59905 19.8325 8.37207 18.7322L5.97189 7.09737C5.91794 6.83588 6.00138 6.56496 6.19308 6.37912V6.37912C6.58386 6.00029 7.23263 6.12756 7.45132 6.62596L12.6728 18.5254C12.7276 18.6504 12.7551 18.7129 12.7782 18.7704C13.3819 20.271 13.0225 21.9876 11.8674 23.1199C11.8231 23.1633 11.7729 23.2095 11.6725 23.302L7.68567 26.975C7.33614 27.297 6.88085 27.4799 6.4057 27.4893V27.4893ZM20.1238 36.6913C19.6574 38.3906 17.3533 38.6453 16.527 37.0889L14.9227 34.0672C14.3957 33.0746 13.4004 32.4177 12.2805 32.3235L0.443641 31.3279C0.177797 31.3055 -0.0581965 31.1489 -0.182052 30.9126V30.9126C-0.434638 30.4307 -0.128919 29.8448 0.410822 29.7763L13.3029 28.1405C13.4383 28.1233 13.506 28.1147 13.5677 28.1088C15.1777 27.955 16.7219 28.786 17.4806 30.2144C17.5097 30.2691 17.5398 30.3303 17.6001 30.4528L19.9932 35.3166C20.2033 35.7435 20.2497 36.2325 20.1238 36.6913V36.6913ZM33.1988 25.6718C34.6865 26.6155 34.2547 28.8926 32.5247 29.2261L29.1652 29.8738C28.062 30.0864 27.1425 30.8451 26.7241 31.8877L22.2993 42.9144C22.2 43.1619 21.981 43.3416 21.7188 43.3907V43.3907C21.184 43.4909 20.7135 43.0267 20.8064 42.4906L23.0244 29.685C23.0477 29.5506 23.0593 29.4833 23.0718 29.4226C23.3971 27.8384 24.6443 26.6059 26.2323 26.2995C26.2932 26.2878 26.3606 26.2769 26.4953 26.2552L31.8471 25.3938C32.3165 25.3182 32.7973 25.4171 33.1988 25.6718V25.6718ZM27.7997 10.1031C29.1988 9.03225 31.1872 10.2232 30.9035 11.962L30.3526 15.3386C30.1716 16.4475 30.5666 17.5724 31.4011 18.3248L40.2239 26.2797C40.422 26.4583 40.5151 26.7257 40.4708 26.9887V26.9887C40.3805 27.5253 39.7825 27.8069 39.3113 27.5349L28.0574 21.0375C27.9392 20.9692 27.8801 20.9351 27.8274 20.9025C26.4525 20.0508 25.7257 18.4549 25.9859 16.8585C25.9959 16.7974 26.009 16.7304 26.0351 16.5964L27.0724 11.2762C27.1634 10.8094 27.4221 10.3922 27.7997 10.1031V10.1031Z" stroke="#808080" stroke-opacity="0.1" stroke-linecap="round" stroke-linejoin="round"/>
</g>
<defs>
<clipPath id="clip0_250_107">
<rect width="42" height="42" fill="white"/>
</clipPath>
</defs>
</svg>
