<svg width="124" height="124" viewBox="0 0 124 124" fill="none" xmlns="http://www.w3.org/2000/svg">
<path d="M70.2671 124H78.5338V90.9332H111.6V82.6665H70.2671V124Z" fill="#D51818"/>
<path d="M53.7337 41.3333V0H45.4671V33.0667H12.4004V41.3333H53.7337Z" fill="#D51818"/>
<path d="M16.1998 108.131L15.8694 107.802C13.459 105.392 11.5469 102.531 10.2424 99.3812C8.93788 96.2319 8.26645 92.8565 8.26645 89.4478C8.26645 86.039 8.93788 82.6636 10.2424 79.5143C11.5469 76.365 13.459 73.5035 15.8694 71.0932L35.296 51.6665H23.6046L10.0235 65.2471C3.60557 71.6652 0 80.37 0 89.4465C0 98.523 3.60557 107.228 10.0235 113.646L10.3537 113.976C16.7769 120.385 25.4798 123.984 34.5533 123.984C43.6268 123.984 52.3298 120.385 58.753 113.976L59.9335 112.795V101.105L52.9069 108.131C48.0353 112.991 41.4348 115.721 34.5533 115.721C27.6719 115.721 21.0714 112.991 16.1998 108.131Z" fill="#D51818"/>
<path d="M113.977 10.3538L113.647 10.0231C100.303 -3.32111 78.5909 -3.32059 65.2475 10.0231L64.0669 11.2042V22.8951L71.0936 15.8684C75.9652 11.0079 82.5658 8.2782 89.4475 8.2782C96.3292 8.2782 102.93 11.0079 107.801 15.8684L108.132 16.1986C110.542 18.6089 112.454 21.4704 113.759 24.6197C115.063 27.769 115.735 31.1444 115.735 34.5531C115.735 37.9619 115.063 41.3373 113.759 44.4866C112.454 47.6359 110.542 50.4974 108.132 52.9077L88.7052 72.3344H100.396L113.977 58.7525C120.395 52.3344 124 43.6296 124 34.5531C124 25.4766 120.395 16.7719 113.977 10.3538Z" fill="#D51818"/>
</svg>
