<svg width="20" height="24" viewBox="0 0 20 24" fill="none" xmlns="http://www.w3.org/2000/svg">
<path d="M4.54541 13.7139H11.8181V15.4282H4.54541V13.7139Z" fill="#0066FF"/>
<path d="M4.54541 9.42871H15.4545V11.143H4.54541V9.42871Z" fill="#0066FF"/>
<path d="M4.54541 18H9.09086V19.7143H4.54541V18Z" fill="#0066FF"/>
<path d="M18.1818 2.57143H15.4545V1.71429C15.4545 1.25963 15.263 0.823593 14.922 0.502103C14.581 0.180612 14.1186 0 13.6364 0H6.36364C5.88142 0 5.41896 0.180612 5.07799 0.502103C4.73701 0.823593 4.54545 1.25963 4.54545 1.71429V2.57143H1.81818C1.33597 2.57143 0.873508 2.75204 0.532533 3.07353C0.191558 3.39502 0 3.83106 0 4.28571V22.2857C0 22.7404 0.191558 23.1764 0.532533 23.4979C0.873508 23.8194 1.33597 24 1.81818 24H18.1818C18.664 24 19.1265 23.8194 19.4675 23.4979C19.8084 23.1764 20 22.7404 20 22.2857V4.28571C20 3.83106 19.8084 3.39502 19.4675 3.07353C19.1265 2.75204 18.664 2.57143 18.1818 2.57143ZM6.36364 1.71429H13.6364V5.14286H6.36364V1.71429ZM18.1818 22.2857H1.81818V4.28571H4.54545V6.85714H15.4545V4.28571H18.1818V22.2857Z" fill="#0066FF"/>
</svg>
