<?xml version="1.0" encoding="utf-8"?>
<!-- Generator: Adobe Illustrator 23.1.1, SVG Export Plug-In . SVG Version: 6.00 Build 0)  -->
<svg version="1.1" id="Layer_1" xmlns="http://www.w3.org/2000/svg" xmlns:xlink="http://www.w3.org/1999/xlink" x="0px" y="0px"
	 viewBox="0 0 17 11" style="enable-background:new 0 0 17 11;" xml:space="preserve">
<style type="text/css">
	.st0{fill:#0066ff;}
</style>
<title>icon</title>
<desc>Created with Sketch.</desc>
<path id="Path" class="st0" d="M15.8,6.3H1.2C0.5,6.3,0,6,0,5.7S0.5,5,1.2,5h14.6C16.5,5,17,5.3,17,5.7S16.5,6.3,15.8,6.3z"/>
<path class="st0" d="M15.8,1.5H1.2C0.5,1.5,0,1.2,0,0.8S0.5,0,1.2,0h14.6C16.5,0,17,0.3,17,0.8S16.5,1.5,15.8,1.5z"/>
<path class="st0" d="M15.8,11H1.2C0.5,11,0,10.7,0,10.2s0.5-0.8,1.2-0.8h14.6c0.7,0,1.2,0.3,1.2,0.8S16.5,11,15.8,11z"/>
</svg>
