<?xml version="1.0" encoding="UTF-8"?>
<svg width="32px" height="29px" viewBox="0 0 32 29" version="1.1" xmlns="http://www.w3.org/2000/svg" xmlns:xlink="http://www.w3.org/1999/xlink">
    <!-- Generator: Sketch 55.2 (78181) - https://sketchapp.com -->
    <title>shopping-cart</title>
    <desc>Created with Sketch.</desc>
    <g id="Page-1" stroke="none" stroke-width="1" fill="none" fill-rule="evenodd">
        <g id="shopping-cart" fill-rule="nonzero">
            <g id="Group" transform="translate(1.111969, 1.111969)">
                <path d="M4.14834201,1.56042722 L4.2516677,2.07387053 L4.14834201,2.07387053 L1.04917649,2.07387053 C1.04917649,2.07387053 0.0161011334,2.07387053 0.0161011334,1.04692373 C0.0161011334,0.0199769343 1.04917649,0.0199769343 1.04917649,0.0199769343 L2.59875925,0.0199769343 C3.6318346,0.0200371058 4.14834201,1.56042722 4.14834201,1.56042722" id="Path" fill="#E27BBF"></path>
                <path d="M24.2929179,24.6662789 C25.171035,24.6662789 25.8425007,25.3337612 25.8425007,26.206669 C25.8425007,27.0795768 25.171035,27.7470591 24.2929179,27.7470591 C23.4148008,27.7470591 22.7433352,27.0795768 22.7433352,26.206669 C22.7433352,25.3337612 23.4148614,24.6662789 24.2929179,24.6662789 Z M8.7970903,24.6662789 C9.67520737,24.6662789 10.3466731,25.3337612 10.3466731,26.206669 C10.3466731,27.0795768 9.67520737,27.7470591 8.7970903,27.7470591 C7.91897322,27.7470591 7.24750754,27.0795768 7.24750754,26.206669 C7.24750754,25.3337612 7.91903375,24.6662789 8.7970903,24.6662789 Z" id="Shape" fill-opacity="0.317335009" fill="#FFFFFF"></path>
            </g>
            <path d="M25.0664349,28.9111969 C24.0637973,28.9111969 23.2194123,28.0701621 23.2194123,27.0713677 C23.2194123,26.0725734 24.0637355,25.2315385 25.0664349,25.2315385 C26.0690725,25.2315385 26.9134575,26.0725734 26.9134575,27.0713677 C26.9134575,28.0701621 26.0691344,28.9111969 25.0664349,28.9111969 Z M25.0664349,25.7572392 C24.3276135,25.7572392 23.7471684,26.3354853 23.7471684,27.0713677 C23.7471684,27.8072501 24.3276754,28.3854962 25.0664349,28.3854962 C25.8052563,28.3854962 26.3857015,27.8072501 26.3857015,27.0713677 C26.3857015,26.3354853 25.8052563,25.7572392 25.0664349,25.7572392 Z M9.23498932,28.9111969 C8.23235172,28.9111969 7.38796672,28.0701621 7.38796672,27.0713677 C7.38796672,26.0725734 8.23228987,25.2315385 9.23498932,25.2315385 C10.2376888,25.2315385 11.0820119,26.072635 11.0820119,27.0713677 C11.0820119,28.0701005 10.2376888,28.9111969 9.23498932,28.9111969 Z M9.23498932,25.7572392 C8.49616792,25.7572392 7.9157228,26.3354853 7.9157228,27.0713677 C7.9157228,27.8072501 8.49622976,28.3854962 9.23498932,28.3854962 C9.97381073,28.3854962 10.5542558,27.8072501 10.5542558,27.0713677 C10.5542558,26.3354853 9.97381073,25.7572392 9.23498932,25.7572392 Z M10.8181339,24.7058994 C10.765383,24.7058994 10.7125703,24.7058994 10.7125703,24.653354 C10.6070067,24.6008086 10.5542558,24.4431107 10.6070067,24.2854128 C10.7125703,24.0751695 11.2402645,23.0763751 11.8735224,23.0763751 L26.6495177,23.0763751 C26.8078321,23.0763751 26.9133957,23.1815276 26.9133957,23.3392255 C26.9133957,23.4969234 26.8078321,23.6020758 26.6495177,23.6020758 L11.8735842,23.6020758 C11.6625189,23.6020758 11.2403264,24.1277149 11.0292611,24.4957177 C11.0292611,24.653354 10.9236975,24.7058994 10.8181339,24.7058994 Z M26.1218853,21.5519417 L9.76274541,21.5519417 C8.02128639,21.5519417 7.44077944,20.3955111 7.44077944,20.3429041 L7.44077944,20.2903586 L4.27449031,1.89231303 C4.16892673,1.52431023 3.64123249,0.525577485 2.95522379,0.525577485 L1.37207923,0.525577485 C1.26651565,0.525577485 0.580506953,0.578122913 0.580506953,1.31406691 C0.580506953,2.05001091 1.26651565,2.10255634 1.37207923,2.10255634 L2.42752955,2.10255634 C2.58584401,2.10255634 2.69140759,2.2077088 2.69140759,2.36540668 C2.69140759,2.52310457 2.58584401,2.62825703 2.42752955,2.62825703 L1.37207923,2.62825703 C0.897135865,2.62825703 0.0528127131,2.36540668 0.0528127131,1.31412851 C0.0528127131,0.262850343 0.897135865,0 1.37207923,0 L2.95522379,0 C4.16898857,0 4.74943368,1.68213131 4.8022464,1.73467674 L7.96853552,20.1327839 C8.0740991,20.2904818 8.54904247,21.0264258 9.81555812,21.0264258 L26.174698,21.0264258 C26.2274488,21.0264258 27.5995281,21.0264258 28.0217206,19.6071449 C28.4966639,18.1878639 30.238123,8.67344531 30.6075027,6.83361611 L7.12415052,6.83361611 C6.96583607,6.83361611 6.86027248,6.72846366 6.86027248,6.57076577 C6.86027248,6.41306789 6.96583607,6.30791543 7.12415052,6.30791543 L30.8713189,6.30791543 C30.9240698,6.30791543 31.0296334,6.36046086 31.0823843,6.41306789 C31.1351351,6.46561331 31.1351351,6.57076577 31.1351351,6.6233112 C31.0295716,7.09640486 29.0242963,18.2404093 28.4965403,19.8173882 C28.0216587,21.1840005 26.7551431,21.5519417 26.1218853,21.5519417 Z M23.4832904,19.4493238 L23.4832904,19.4493238 C23.3249759,19.4493238 23.2194123,19.3441713 23.2194123,19.1864734 C23.2194123,19.1864734 23.2194123,19.1864734 23.2194123,19.133928 L23.4832904,16.2428206 L18.4699786,16.2428206 L18.4699786,19.133928 C18.4699786,19.2916259 18.3644151,19.3967783 18.2061006,19.3967783 C18.0477862,19.3967783 17.9422226,19.2916259 17.9422226,19.133928 L17.9422226,16.2428206 L12.9289108,16.2428206 L13.1927889,19.133928 C13.1927889,19.133928 13.1927889,19.133928 13.1927889,19.1864734 C13.1927889,19.3441713 13.0872253,19.4493238 12.9289108,19.4493238 C12.7705964,19.4493238 12.6650328,19.3441713 12.6650328,19.2390805 L12.3484039,16.3479731 L8.70729508,16.3479731 C8.54898063,16.3479731 8.44341704,16.2428206 8.44341704,16.0851227 C8.44341704,15.9274249 8.54898063,15.8222724 8.70729508,15.8222724 L12.2957767,15.8222724 L11.9263969,12.1426756 L8.02128639,12.1426756 C7.86297193,12.1426756 7.75740835,12.0375231 7.75740835,11.8798253 C7.75740835,11.7221274 7.86297193,11.6169749 8.02128639,11.6169749 L11.8735842,11.6169749 L11.6097062,8.72586754 C11.6097062,8.72586754 11.6097062,8.72586754 11.6097062,8.67332211 C11.6097062,8.51562423 11.7152698,8.41041017 11.8735842,8.41041017 C12.0318987,8.41041017 12.1374622,8.51562423 12.1374622,8.62071508 L12.4540912,11.5118225 L17.9423463,11.5118225 L17.9423463,8.67326051 C17.9423463,8.51556263 18.0479098,8.41041017 18.2062243,8.41041017 C18.3645387,8.41041017 18.4701023,8.51556263 18.4701023,8.67326051 L18.4701023,11.5644295 L23.9583574,11.5644295 L24.2749863,8.67332211 C24.2749863,8.51562423 24.4333008,8.41041017 24.5388644,8.4630788 C24.6971788,8.4630788 24.8027424,8.56823126 24.8027424,8.72592914 C24.8027424,8.72592914 24.8027424,8.72592914 24.8027424,8.77847457 L24.5388644,11.6695819 L27.7050298,11.6695819 C27.8633443,11.6695819 27.9689079,11.7747344 27.9689079,11.9324323 C27.9689079,12.0901302 27.8633443,12.1952826 27.7050298,12.1952826 L24.4859898,12.1952826 L24.11661,15.8748794 L26.9134575,15.8748794 C27.071772,15.8748794 27.1773356,15.9800319 27.1773356,16.1377298 C27.1773356,16.2954277 27.071772,16.4005801 26.9134575,16.4005801 L24.0637973,16.4005801 L23.7471684,19.2916259 C23.7471684,19.3441713 23.6416048,19.4493238 23.4832904,19.4493238 Z M18.4700405,15.769727 L23.5361031,15.769727 L23.9054829,12.0901302 L18.4700405,12.0901302 L18.4700405,15.769727 L18.4700405,15.769727 Z M12.8762218,15.769727 L17.9422844,15.769727 L17.9422844,12.0901302 L12.506842,12.0901302 L12.8762218,15.769727 Z M5.01331172,19.4493238 L1.31926652,19.4493238 C1.16095206,19.4493238 1.05538848,19.3441713 1.05538848,19.1864734 C1.05538848,19.0287755 1.16095206,18.9236231 1.31926652,18.9236231 L5.01324988,18.9236231 C5.17156434,18.9236231 5.27712792,19.0287755 5.27712792,19.1864734 C5.27712792,19.3441713 5.17162618,19.4493238 5.01331172,19.4493238 Z M4.22173944,16.2953661 L2.37471684,16.2953661 C2.21640239,16.2953661 2.1108388,16.1902136 2.1108388,16.0325157 C2.1108388,15.8748178 2.21640239,15.7696654 2.37471684,15.7696654 L4.22173944,15.7696654 C4.3800539,15.7696654 4.48561748,15.8748178 4.48561748,16.0325157 C4.48561748,16.1902136 4.3800539,16.2953661 4.22173944,16.2953661 Z M3.43016716,13.1414083 L0.263878041,13.1414083 C0.105563585,13.1414083 0,13.0362559 0,12.878558 C0,12.7208601 0.105563585,12.6157077 0.263878041,12.6157077 L3.43016716,12.6157077 C3.58848162,12.6157077 3.6940452,12.7208601 3.6940452,12.878558 C3.6940452,13.0362559 3.58848162,13.1414083 3.43016716,13.1414083 Z" id="Shape" fill="#FFFFFF"></path>
        </g>
    </g>
</svg>