<?xml version="1.0" encoding="utf-8"?>
<!-- Generator: Adobe Illustrator 23.1.1, SVG Export Plug-In . SVG Version: 6.00 Build 0)  -->
<svg version="1.1" id="Layer_1" xmlns="http://www.w3.org/2000/svg" xmlns:xlink="http://www.w3.org/1999/xlink" x="0px" y="0px"
	 viewBox="0 0 16 16" style="enable-background:new 0 0 16 16;" xml:space="preserve">
<style type="text/css">
	.st0{fill:#FF0000;}
</style>
<title>icon</title>
<desc>Created with Sketch.</desc>
<path class="st0" d="M8.9,8l3.7-3.7c0.4-0.4,0.6-0.8,0.3-1.1S12.1,3,11.7,3.4L8,7.1L4.3,3.4C3.9,3,3.4,2.9,3.2,3.2S3,3.9,3.4,4.3
	L7.1,8l-3.7,3.7c-0.4,0.4-0.5,0.9-0.2,1.1c0.2,0.2,0.7,0.1,1.1-0.3L8,8.9l3.8,3.8c0.4,0.4,0.9,0.5,1.1,0.2s0.2-0.7-0.2-1.1L8.9,8z"
	/>
</svg>
