<?xml version="1.0" encoding="UTF-8"?>
<svg width="27px" height="25px" viewBox="0 0 27 25" version="1.1" xmlns="http://www.w3.org/2000/svg" xmlns:xlink="http://www.w3.org/1999/xlink">
    <!-- Generator: Sketch 55.2 (78181) - https://sketchapp.com -->
    <title>search</title>
    <desc>Created with Sketch.</desc>
    <g id="Welcome" stroke="none" stroke-width="1" fill="none" fill-rule="evenodd">
        <g id="search" fill-rule="nonzero">
            <path d="M16.2162162,9.45945946 C15.8432432,9.45945946 15.5405405,9.61081081 15.5405405,9.7972973 C15.5405405,9.98378378 15.8432432,10.1351351 16.2162162,10.1351351 C16.5891892,10.1351351 16.8918919,9.98378378 16.8918919,9.7972973 C16.8918919,9.61081081 16.5891892,9.45945946 16.2162162,9.45945946 Z" id="Path" fill="#000000"></path>
            <path d="M25.7482039,21.6659668 L18.8783243,15.1483887 C19.9974847,13.5490723 20.5869932,11.6970215 20.5869932,9.765625 C20.5869932,4.38085937 15.9693307,0 10.2934966,0 C4.61766258,0 0,4.38085937 0,9.765625 C0,15.1503906 4.61766258,19.53125 10.2934966,19.53125 C12.3293444,19.53125 14.281506,18.9719238 15.9672205,17.9102539 L17.8661133,19.7117676 C17.8663706,19.7120117 17.866628,19.7122559 17.8669368,19.7125488 L22.8370487,24.4277832 C23.2260399,24.7967773 23.7429278,25 24.292652,25 C24.8423762,25 25.3592641,24.7967773 25.7480495,24.4279297 C26.1370922,24.0591309 26.3513514,23.5687012 26.3513514,23.046875 C26.3513514,22.5250488 26.1370922,22.0346191 25.7482039,21.6659668 Z M15.7251689,16.8812012 C15.7251689,16.88125 15.7251175,16.88125 15.725066,16.8812988 C14.1364192,17.9760254 12.2582678,18.5546875 10.2934966,18.5546875 C5.18524599,18.5546875 1.02934966,14.6119141 1.02934966,9.765625 C1.02934966,4.91933594 5.18524599,0.9765625 10.2934966,0.9765625 C15.4017473,0.9765625 19.5576436,4.91933594 19.5576436,9.765625 C19.5576436,11.6296387 18.9477024,13.4114746 17.79375,14.9187012 C17.2164392,15.6732422 16.5204959,16.3335449 15.7251689,16.8812012 Z M16.8049567,17.323877 C17.3376452,16.9104492 17.824579,16.4484863 18.2603027,15.9431641 L19.7204867,17.3284668 C19.2764253,17.8256836 18.7892341,18.2879395 18.2651407,18.7091797 L16.8049567,17.323877 Z M25.0203508,23.7372559 C24.8258037,23.9218262 24.5673855,24.0234375 24.292652,24.0234375 C24.0179186,24.0234375 23.7595004,23.9218262 23.5649533,23.7372559 L18.9948981,19.4015625 C19.5161093,18.9771973 20.0029917,18.515332 20.4502441,18.0208496 L25.0204537,22.3566895 C25.2148979,22.5409668 25.3220017,22.7860352 25.3220017,23.046875 C25.3220017,23.3077148 25.2148979,23.5527832 25.0203508,23.7372559 Z" id="Shape" fill="#51565F"></path>
            <path d="M10.1351351,2.02702703 C5.66427365,2.02702703 2.02702703,5.51272171 2.02702703,9.7972973 C2.02702703,14.0818729 5.66427365,17.5675676 10.1351351,17.5675676 C14.6059966,17.5675676 18.2432432,14.0818729 18.2432432,9.7972973 C18.2432432,5.51272171 14.6059966,2.02702703 10.1351351,2.02702703 Z M10.1351351,16.5962838 C6.22317568,16.5962838 3.04054054,13.5462584 3.04054054,9.7972973 C3.04054054,6.04833615 6.22317568,2.99831081 10.1351351,2.99831081 C14.0470946,2.99831081 17.2297297,6.04833615 17.2297297,9.7972973 C17.2297297,13.5462584 14.0470946,16.5962838 10.1351351,16.5962838 Z" id="Shape" fill="#9B7171"></path>
            <path d="M16.1831163,8.07481731 C15.7564652,6.90562257 15.0136038,5.90597464 14.034749,5.18401827 C13.0326069,4.44479422 11.8554641,4.05405405 10.6306073,4.05405405 C10.3570076,4.05405405 10.1351351,4.28766346 10.1351351,4.57573652 C10.1351351,4.86380958 10.3570076,5.09741898 10.6306073,5.09741898 C12.6669484,5.09741898 14.5265546,6.44429877 15.2581193,8.44907231 C15.3338275,8.65649326 15.5215619,8.78378378 15.7207417,8.78378378 C15.779802,8.78378378 15.8399028,8.77256761 15.8983189,8.7489354 C16.1537348,8.6455901 16.2812694,8.34379679 16.1831163,8.07481731 Z" id="Path" fill="#EB6797"></path>
        </g>
    </g>
</svg>