<?xml version="1.0" encoding="utf-8"?>
<!-- Generator: Adobe Illustrator 23.1.1, SVG Export Plug-In . SVG Version: 6.00 Build 0)  -->
<svg version="1.1" id="Capa_1" xmlns="http://www.w3.org/2000/svg" xmlns:xlink="http://www.w3.org/1999/xlink" x="0px" y="0px"
	 viewBox="0 0 461.9 461.9" style="enable-background:new 0 0 461.9 461.9;" xml:space="preserve">
<style type="text/css">
	.st0{fill:#FFFFFF;}
</style>
<g>
	<g>
		<path class="st0" d="M168,361.5c-27.7,0-50.2,22.5-50.2,50.2s22.5,50.2,50.2,50.2s50.2-22.5,50.2-50.2S195.7,361.5,168,361.5z"/>
	</g>
</g>
<g>
	<g>
		<path class="st0" d="M356.6,361.5c-27.7,0-50.2,22.5-50.2,50.2s22.5,50.2,50.2,50.2s50.2-22.5,50.2-50.2
			C406.7,384,384.3,361.5,356.6,361.5z"/>
	</g>
</g>
<g>
	<g>
		<path class="st0" d="M449,88.8H114.7l-2.6-15.7C104.8,30.3,67.7-0.5,24.3,0h-1c-5.7,0-10.4,4.7-10.4,10.4s4.7,10.4,10.4,10.4h1
			c32.9-0.5,61.6,23,67.4,55.4l34,201.7c5.2,29.8,31.9,51.7,62.2,51.2h209c5.7,0,10.4-4.7,10.4-10.4s-4.7-10.4-10.4-10.4h-209
			c-20.4,0.5-38.1-14.6-41.3-34.5l-5.7-33.4h235.6c18.8,0,35-12.5,40.2-30.3l16.7-58.5H125.7l-3.7-20.9h317.1L449,88.8z"/>
	</g>
</g>
</svg>
