<svg width="24" height="26" viewBox="0 0 24 26" fill="none" xmlns="http://www.w3.org/2000/svg">
<path d="M20.5556 11.8008H3.44444C2.09441 11.8008 1 12.8753 1 14.2008V22.6008C1 23.9263 2.09441 25.0008 3.44444 25.0008H20.5556C21.9056 25.0008 23 23.9263 23 22.6008V14.2008C23 12.8753 21.9056 11.8008 20.5556 11.8008Z" stroke="white" stroke-width="1.5" stroke-linecap="round" stroke-linejoin="round"/>
<path d="M5.88867 11.8V7C5.88867 5.4087 6.53252 3.88258 7.67857 2.75736C8.82463 1.63214 10.379 1 11.9998 1C13.6206 1 15.1749 1.63214 16.321 2.75736C17.467 3.88258 18.1109 5.4087 18.1109 7V11.8" stroke="white" stroke-width="1.5" stroke-linecap="round" stroke-linejoin="round"/>
</svg>
