<?xml version="1.0" encoding="utf-8"?>
<!-- Generator: Adobe Illustrator 23.1.1, SVG Export Plug-In . SVG Version: 6.00 Build 0)  -->
<svg version="1.1" id="Layer_1" xmlns="http://www.w3.org/2000/svg" xmlns:xlink="http://www.w3.org/1999/xlink" x="0px" y="0px"
	 viewBox="0 0 600 600" style="enable-background:new 0 0 600 600;" xml:space="preserve">
<style type="text/css">
	.st0{fill:#0066FF;}
	.st1{fill:#666666;}
	.st2{fill:#929296;}
</style>
<path class="st0" d="M243.3,550.4c-8.6-0.6-17.3-0.3-25.9-0.2c-4,0.1-4.9-1.2-4.9-5c0.1-75.2,0.1-150.4,0-225.6
	c0-4.1,1.3-4.8,5.1-4.8c61,0.1,122,0,183.1,0.1c16.7,0,32.9-2.2,48-9.8c27.9-14.1,42.2-37.8,45.9-68.1c2.8-22.6-1.8-43.8-14.6-62.9
	c-15-22.4-36.4-33.9-62.9-36.9c-7.7-0.9-15.4-1-23.1-0.9c-58.7,0-117.3,0-176,0.1c-4.1,0-5.6-0.7-5.5-5.2
	c0.2-26.7,0.1-53.5,0.1-80.2c0-2.5-0.3-4.4,3.5-4.4c68.1,0.3,136.2-1.9,204.3,0.5c53,1.9,98.2,22.8,131.5,65.5
	c21.9,28.2,33.7,60.4,36.5,96c2.8,34.8-3,68.1-18.9,99.2c-22.9,45-59.5,73.4-107.9,87c-19.9,5.6-40.2,7.2-60.6,7.4
	c-29.2,0.3-58.5,0.1-87.8,0.1c-5.9,0-5.9,0-5.9,6.2c0,45.3-0.1,90.6,0.1,135.9c0,4.5-1.1,5.8-5.7,5.8c-15.1,0-30.2-0.6-45.3,0.2
	C252,550.4,247.6,550.4,243.3,550.4z"/>
<path class="st1" d="M251.7,282.9c-18.7,0-37.4-0.1-56,0.1c-3,0-3.9-0.7-3.9-3.8c0.1-36.8,0.1-73.6,0-110.4c0-3.2,1-3.8,4-3.8
	c37.5,0.1,75,0.1,112.5,0c3.1,0,3.9,0.7,3.9,3.9c-0.1,36.8-0.1,73.6,0,110.4c0,3.2-1,3.8-4,3.8C289.4,282.9,270.6,282.9,251.7,282.9
	z"/>
<path class="st0" d="M129.6,267.1c-9.9,0-19.8-0.1-29.6,0.1c-2.6,0-3.2-0.8-3.2-3.3c0.1-19.5,0.1-39,0-58.5c0-2.6,0.7-3.3,3.3-3.3
	c19.9,0.1,39.8,0.1,59.7,0c2.5,0,3.3,0.7,3.3,3.3c-0.1,19.5-0.1,39,0,58.5c0,2.6-0.8,3.3-3.3,3.3C149.6,267,139.6,267.1,129.6,267.1
	z"/>
<path class="st0" d="M159.7,139.3c-7.9,0-15.9-0.1-23.8,0c-2.3,0-3.5-0.3-3.4-3.1c0.1-15.6,0.1-31.2,0-46.8c0-2.5,0.6-3.4,3.3-3.3
	c15.9,0.1,31.7,0.1,47.6,0c2.4,0,3.4,0.5,3.4,3.2c-0.1,15.7-0.1,31.5,0,47.2c0,2.2-0.7,2.9-2.9,2.9
	C175.8,139.2,167.8,139.3,159.7,139.3z"/>
<path class="st2" d="M94.1,126.2c5.7,0,11.4,0.1,17.1,0c2.4-0.1,3.4,0.6,3.4,3.2c-0.1,11.7-0.1,23.4,0,35.1c0,2.4-0.8,3.1-3.2,3.1
	c-11.7-0.1-23.4-0.1-35.1,0c-2.3,0-3.2-0.4-3.2-3c0.1-11.8,0.1-23.6,0-35.5c0-2.2,0.7-3,2.9-2.9C82.1,126.3,88.1,126.2,94.1,126.2z"
	/>
<path class="st2" d="M41.9,202.6c-4.9,0-9.9-0.1-14.8,0c-2.3,0.1-3.2-0.5-3.2-3c0.1-9.9,0.1-19.7,0-29.6c0-2.3,0.6-3.2,3-3.2
	c10,0.1,20,0.1,30,0c2.1,0,3,0.5,3,2.8c-0.1,10-0.1,20,0,30c0,2.6-1,3-3.2,2.9C51.8,202.5,46.8,202.6,41.9,202.6z"/>
<path class="st2" d="M87.7,75.2c3.9,0,7.8,0.1,11.7,0c2-0.1,2.7,0.7,2.7,2.7c-0.1,7.9-0.1,15.8,0,23.7c0,2-0.6,2.7-2.7,2.7
	c-7.9-0.1-15.8-0.1-23.7,0c-2,0-2.7-0.6-2.7-2.6c0.1-7.9,0.1-15.8,0-23.7c0-2.4,1-2.8,3.1-2.8C79.9,75.3,83.8,75.2,87.7,75.2z"/>
<path class="st0" d="M29.1,130.7c-3-0.3-7.7,1.5-9.9-0.6c-2.4-2.4-0.6-7.1-0.8-10.8c-0.1-2.8,0.1-5.7-0.1-8.6
	c-0.1-2,0.6-2.7,2.6-2.7c5.8,0.1,11.7,0.1,17.5,0c2.1,0,2.6,0.8,2.6,2.7c-0.1,5.8-0.1,11.7,0,17.5c0,1.8-0.6,2.6-2.4,2.5
	C35.7,130.6,32.8,130.7,29.1,130.7z"/>
</svg>
