<svg xmlns="http://www.w3.org/2000/svg" viewBox="0 0 200 200"><defs><style>.a{fill:#06f;}.b{fill:#fff;}</style></defs><title>Asset 28</title><rect class="a" width="200" height="200" rx="100"/><path class="b" d="M152.12,43.44a50.28,50.28,0,0,0-36.7-15.23H86.77A12.56,12.56,0,0,0,74.22,40.76V53.35h25.1v0h16.1a26.85,26.85,0,0,1,26.83,26.84A26.85,26.85,0,0,1,115.42,107H99.32v0H74.22v62.69a12.55,12.55,0,0,0,25.1,0V132.09h16.1a50.24,50.24,0,0,0,36.7-15.23,50.24,50.24,0,0,0,15.23-36.71A50.24,50.24,0,0,0,152.12,43.44Z"/><rect class="b" x="69.87" y="63.86" width="30.18" height="32.33" rx="3.29"/><rect class="b" x="53.42" y="45.25" width="13.49" height="13.49" rx="1.29"/><rect class="b" x="44.94" y="75.85" width="16.57" height="16.57" rx="1.33"/><rect class="b" x="38.77" y="55.81" width="10.41" height="10.41" rx="1.05"/><rect class="b" x="26.44" y="66.6" width="9.02" height="9.02" rx="0.75"/><rect class="b" x="38.48" y="42.63" width="7.32" height="7.32" rx="0.93"/><rect class="b" x="25.45" y="51.18" width="5.78" height="5.78" rx="0.74"/></svg>