<svg xmlns="http://www.w3.org/2000/svg" viewBox="0 0 717.79 193.68"><defs><style>.a{fill:#06f;}</style></defs><title>Asset 26</title><path class="a" d="M197.25,50.79a51.5,51.5,0,0,0-51.51,51.51,51.5,51.5,0,0,0,51.51,51.52,49.81,49.81,0,0,0,28.6-8.64,11.6,11.6,0,0,0,3,5.22,11.65,11.65,0,0,0,19.88-8.23V102.3a51.52,51.52,0,0,0-51.51-51.51Zm0,79.74A28.18,28.18,0,0,1,169,102.3a28.23,28.23,0,0,1,48.19-20,27,27,0,0,1,8.25,20,28.18,28.18,0,0,1-28.22,28.23Z"/><path class="a" d="M330.85,50.79a11.38,11.38,0,0,0-8.19,3.38,11.91,11.91,0,0,0-2.76,4.17l-22.27,53.4-22.26-53.4a12.51,12.51,0,0,0-2.56-4l-.21-.22a11.61,11.61,0,0,0-8.19-3.3,11.66,11.66,0,0,0-11.64,11.65,11.52,11.52,0,0,0,1.2,5.18l31,74.47L270.5,176.86a11.67,11.67,0,1,0,21.39,9.27l49.4-118.51a11.67,11.67,0,0,0-10.44-16.83Z"/><path class="a" d="M403.08,50.79a51.52,51.52,0,0,0-51.51,51.51,51.52,51.52,0,0,0,51.51,51.52,49.73,49.73,0,0,0,33.6-12.45l.33-.31a11.61,11.61,0,0,0,3.3-8.19,11.68,11.68,0,0,0-11.65-11.65,11.55,11.55,0,0,0-7.21,2.46l-.24.2a26.29,26.29,0,0,1-18.13,6.65,27,27,0,0,1-20-8.26,28.2,28.2,0,0,1-5.88-8.32H443a11.66,11.66,0,0,0,11.64-11.65,51.5,51.5,0,0,0-51.51-51.51Zm0,23.29a27,27,0,0,1,20,8.25,28.41,28.41,0,0,1,5.89,8.33H377.23a28.37,28.37,0,0,1,5.88-8.33A27,27,0,0,1,403.08,74.08Z"/><path class="a" d="M555,10.76A11.68,11.68,0,0,0,543.4,22.4V59.11a51.73,51.73,0,0,0-64.65,6.77,49.83,49.83,0,0,0-15.08,36.42,51.51,51.51,0,1,0,103,0V22.4A11.66,11.66,0,0,0,555,10.76ZM515.18,130.53A28.2,28.2,0,0,1,487,102.3a28.23,28.23,0,1,1,56.45,0,28.18,28.18,0,0,1-28.22,28.23Z"/><path class="a" d="M594.05,10.93a11.64,11.64,0,0,0-11.64,11.64v119.6a11.64,11.64,0,0,0,23.28,0V22.57a11.64,11.64,0,0,0-11.64-11.64Z"/><path class="a" d="M703.66,64.92a48.35,48.35,0,0,0-59.77-6.79,11.56,11.56,0,0,0-2.61-3.92,11.65,11.65,0,0,0-19.87,8.23v79.73a11.65,11.65,0,0,0,23.29,0V99a24.9,24.9,0,0,1,49.8,0v43.19a11.65,11.65,0,0,0,23.29,0V99A46.62,46.62,0,0,0,703.66,64.92Z"/><path class="a" d="M126.67,15.23A50.21,50.21,0,0,0,90,0H61.32a12.26,12.26,0,0,0-8.86,3.68,12.31,12.31,0,0,0-3.69,8.87V25.14h25.1v0H90a25.62,25.62,0,0,1,19,7.87,25.62,25.62,0,0,1,7.86,19,25.65,25.65,0,0,1-7.86,19,25.64,25.64,0,0,1-19,7.86H48.77v62.69a12.55,12.55,0,0,0,25.1,0V103.87H90a50.21,50.21,0,0,0,36.7-15.23,50.21,50.21,0,0,0,15.23-36.7A50.24,50.24,0,0,0,126.67,15.23Z"/><rect class="a" x="44.42" y="35.65" width="30.18" height="32.33" rx="3.29"/><rect class="a" x="27.97" y="17.04" width="13.49" height="13.49" rx="1.29"/><rect class="a" x="19.49" y="47.63" width="16.57" height="16.57" rx="1.33"/><rect class="a" x="13.32" y="27.59" width="10.41" height="10.41" rx="1.05"/><rect class="a" x="0.99" y="38.38" width="9.02" height="9.02" rx="0.75"/><rect class="a" x="13.03" y="14.41" width="7.32" height="7.32" rx="0.93"/><rect class="a" y="22.97" width="5.78" height="5.78" rx="0.74"/></svg>