<svg width="24" height="25" viewBox="0 0 24 25" fill="none" xmlns="http://www.w3.org/2000/svg">
<path d="M21.4286 24.25H15.1264L15.2948 23.6357L17.6909 14.8907C20.8846 15.29 23.25 17.7477 23.25 20.625V22.6562C23.25 23.4721 22.501 24.25 21.4286 24.25ZM14.0066 24.25H9.99341L10.1548 23.625L11.8691 16.9843L11.9497 16.6719L11.7783 16.3985L10.784 14.8125H13.216L12.2217 16.3985L12.0503 16.6719L12.131 16.9843L13.8452 23.625L14.0066 24.25ZM8.70523 23.6357L8.87355 24.25H2.57143C1.49905 24.25 0.75 23.4721 0.75 22.6562V20.625C0.75 17.7477 3.1154 15.29 6.30912 14.8907L8.70523 23.6357ZM18.1071 6.25C18.1071 9.22401 15.4402 11.75 12 11.75C8.55976 11.75 5.89286 9.22401 5.89286 6.25C5.89286 3.27599 8.55976 0.75 12 0.75C15.4402 0.75 18.1071 3.27599 18.1071 6.25Z" stroke="#888888" stroke-width="1.5"/>
</svg>
