<svg width="154" height="124" viewBox="0 0 154 124" fill="none" xmlns="http://www.w3.org/2000/svg">
<path d="M9.49872 114.492V15.4753H58.9356V5.95852H0V124H58.9356V114.492H9.49872Z" fill="#C7ECEB"/>
<path d="M58.9355 5.95852V15.4753H108.368V114.492H58.9355V124H117.869V5.95852H58.9355Z" fill="#9CDDD4"/>
<path d="M9.49902 114.493H58.9359V105.367H18.6128V24.6001H58.9359V15.4755H9.49902V114.493Z" fill="#ADDBDB"/>
<path d="M99.2595 24.6001V105.367H58.9355V114.493H108.368V15.4755H58.9355V24.6001H99.2595Z" fill="#84CDC1"/>
<path d="M146.704 6.11953L143.423 2.57095C140.27 -0.851059 135.103 -0.856926 131.935 2.55336L60.9536 79.032L29.3341 44.7649C26.1824 41.3437 21.0137 41.3328 17.8453 44.7415L13.8491 49.051L60.269 99.5264L146.704 6.11953Z" fill="#61C555"/>
<path d="M146.703 6.11964L60.2681 99.5265L13.8482 49.0511L9.60683 53.6205C6.44757 57.0316 6.43502 62.6135 9.58926 66.0346L55.1187 115.394C57.8863 118.391 62.2063 118.759 65.358 116.511C65.8694 116.167 66.3581 115.764 66.7983 115.287L151.619 23.8885C154.785 20.4824 154.794 14.893 151.639 11.4752L146.703 6.11964Z" fill="#41B93C"/>
</svg>
