<?xml version="1.0" encoding="utf-8"?>
<!-- Generator: Adobe Illustrator 23.1.1, SVG Export Plug-In . SVG Version: 6.00 Build 0)  -->
<svg version="1.1" id="Layer_1" xmlns="http://www.w3.org/2000/svg" xmlns:xlink="http://www.w3.org/1999/xlink" x="0px" y="0px"
	 viewBox="0 0 600 960" style="enable-background:new 0 0 600 960;" xml:space="preserve">
<style type="text/css">
	.st0{fill:#0066FF;}
	.st1{opacity:0.15;}
	.st2{clip-path:url(#SVGID_2_);}
	.st3{fill:url(#SVGID_3_);}
	.st4{fill:url(#SVGID_4_);}
	.st5{fill:url(#SVGID_5_);}
	.st6{fill:url(#SVGID_6_);}
	.st7{fill:url(#SVGID_7_);}
	.st8{fill:url(#SVGID_8_);}
	.st9{fill:url(#SVGID_9_);}
	.st10{fill:url(#SVGID_10_);}
	.st11{fill:url(#SVGID_11_);}
	.st12{fill:url(#SVGID_12_);}
	.st13{fill:url(#SVGID_13_);}
	.st14{fill:none;stroke:#A1ACB2;stroke-width:30;stroke-miterlimit:10;}
	.st15{fill:url(#SVGID_14_);}
	.st16{fill:url(#SVGID_15_);}
	.st17{fill:url(#SVGID_16_);}
	.st18{fill:url(#SVGID_17_);}
	.st19{fill:none;}
	.st20{opacity:0.1;fill:#0066FF;}
	.st21{clip-path:url(#SVGID_19_);}
	.st22{fill:url(#SVGID_20_);}
	.st23{fill:url(#SVGID_21_);}
	.st24{fill:url(#SVGID_22_);}
	.st25{fill:url(#SVGID_23_);}
	.st26{fill:url(#SVGID_24_);}
	.st27{fill:url(#SVGID_25_);}
	.st28{fill:url(#SVGID_26_);}
	.st29{fill:url(#SVGID_27_);}
	.st30{fill:url(#SVGID_28_);}
	.st31{fill:url(#SVGID_29_);}
	.st32{fill:url(#SVGID_30_);}
	.st33{fill:url(#SVGID_31_);}
	.st34{fill:url(#SVGID_32_);}
	.st35{fill:url(#SVGID_33_);}
	.st36{fill:url(#SVGID_34_);}
	.st37{fill:#FFFFFF;}
	.st38{clip-path:url(#SVGID_36_);}
	.st39{fill:#666666;}
	.st40{fill:#929296;}
	.st41{opacity:0.73;fill:#0066FF;}
	.st42{opacity:0.14;}
	.st43{clip-path:url(#SVGID_38_);}
	.st44{fill:url(#SVGID_39_);}
	.st45{fill:url(#SVGID_40_);}
	.st46{fill:url(#SVGID_41_);}
	.st47{fill:url(#SVGID_42_);}
	.st48{fill:url(#SVGID_43_);}
	.st49{fill:url(#SVGID_44_);}
	.st50{fill:url(#SVGID_45_);}
	.st51{fill:url(#SVGID_46_);}
	.st52{fill:url(#SVGID_47_);}
	.st53{fill:url(#SVGID_48_);}
	.st54{fill:url(#SVGID_49_);}
	.st55{fill:url(#SVGID_50_);}
	.st56{fill:url(#SVGID_51_);}
	.st57{fill:url(#SVGID_52_);}
	.st58{fill:url(#SVGID_53_);}
	.st59{clip-path:url(#SVGID_55_);}
	.st60{fill:url(#SVGID_56_);}
	.st61{fill:url(#SVGID_57_);}
	.st62{fill:url(#SVGID_58_);}
	.st63{fill:url(#SVGID_59_);}
	.st64{fill:url(#SVGID_60_);}
	.st65{fill:url(#SVGID_61_);}
	.st66{fill:url(#SVGID_62_);}
	.st67{fill:url(#SVGID_63_);}
	.st68{fill:url(#SVGID_64_);}
	.st69{fill:url(#SVGID_65_);}
	.st70{fill:url(#SVGID_66_);}
	.st71{fill:url(#SVGID_67_);}
	.st72{fill:url(#SVGID_68_);}
	.st73{fill:url(#SVGID_69_);}
	.st74{fill:url(#SVGID_70_);}
	.st75{opacity:8.000000e-02;}
	.st76{clip-path:url(#SVGID_72_);}
	.st77{fill:url(#SVGID_73_);}
	.st78{fill:url(#SVGID_74_);}
	.st79{fill:url(#SVGID_75_);}
	.st80{fill:url(#SVGID_76_);}
	.st81{fill:url(#SVGID_77_);}
	.st82{fill:url(#SVGID_78_);}
	.st83{fill:url(#SVGID_79_);}
	.st84{fill:url(#SVGID_80_);}
	.st85{fill:url(#SVGID_81_);}
	.st86{fill:url(#SVGID_82_);}
	.st87{fill:url(#SVGID_83_);}
	.st88{fill:url(#SVGID_84_);}
	.st89{fill:url(#SVGID_85_);}
	.st90{fill:url(#SVGID_86_);}
	.st91{fill:url(#SVGID_87_);}
	.st92{fill:#FFFFFF;stroke:#E6E6E6;stroke-miterlimit:10;}
	.st93{clip-path:url(#SVGID_89_);}
	.st94{fill:url(#SVGID_90_);}
	.st95{fill:url(#SVGID_91_);}
	.st96{fill:url(#SVGID_92_);}
	.st97{fill:url(#SVGID_93_);}
	.st98{fill:url(#SVGID_94_);}
	.st99{fill:url(#SVGID_95_);}
	.st100{fill:url(#SVGID_96_);}
	.st101{fill:url(#SVGID_97_);}
	.st102{fill:url(#SVGID_98_);}
	.st103{fill:url(#SVGID_99_);}
	.st104{fill:url(#SVGID_100_);}
	.st105{fill:url(#SVGID_101_);}
	.st106{fill:url(#SVGID_102_);}
	.st107{fill:url(#SVGID_103_);}
	.st108{fill:url(#SVGID_104_);}
	.st109{fill:#4D4D4D;}
	.st110{fill:none;stroke:#4D4D4D;stroke-miterlimit:10;}
	.st111{fill:#DDDDDD;}
	.st112{fill:#DEE2E5;}
	.st113{fill:#AEB8CB;}
	.st114{fill:#FECD48;}
	.st115{fill:#FE4636;}
	.st116{fill:#999999;}
	.st117{fill:#808080;}
	.st118{fill:none;stroke:#4D4D4D;stroke-width:2;stroke-miterlimit:10;}
	.st119{fill:#222730;}
	.st120{fill:#FF0000;}
	.st121{clip-path:url(#SVGID_106_);}
	.st122{fill:url(#SVGID_107_);}
	.st123{fill:url(#SVGID_108_);}
	.st124{fill:url(#SVGID_109_);}
	.st125{fill:url(#SVGID_110_);}
	.st126{fill:url(#SVGID_111_);}
	.st127{fill:url(#SVGID_112_);}
	.st128{fill:url(#SVGID_113_);}
	.st129{fill:url(#SVGID_114_);}
	.st130{fill:url(#SVGID_115_);}
	.st131{fill:url(#SVGID_116_);}
	.st132{fill:url(#SVGID_117_);}
	.st133{fill:url(#SVGID_118_);}
	.st134{fill:url(#SVGID_119_);}
	.st135{fill:url(#SVGID_120_);}
	.st136{fill:url(#SVGID_121_);}
	.st137{opacity:0.2;}
	.st138{clip-path:url(#SVGID_123_);}
	.st139{clip-path:url(#SVGID_125_);}
	.st140{fill:url(#SVGID_126_);}
	.st141{fill:url(#SVGID_127_);}
	.st142{fill:url(#SVGID_128_);}
	.st143{fill:url(#SVGID_129_);}
	.st144{fill:url(#SVGID_130_);}
	.st145{fill:url(#SVGID_131_);}
	.st146{fill:url(#SVGID_132_);}
	.st147{fill:url(#SVGID_133_);}
	.st148{fill:url(#SVGID_134_);}
	.st149{fill:url(#SVGID_135_);}
	.st150{fill:url(#SVGID_136_);}
	.st151{fill:url(#SVGID_137_);}
	.st152{fill:url(#SVGID_138_);}
	.st153{fill:url(#SVGID_139_);}
	.st154{fill:url(#SVGID_140_);}
	.st155{clip-path:url(#SVGID_142_);}
</style>
<g class="st42">
	<defs>
		<rect id="SVGID_37_" x="0" y="0" class="st42" width="600" height="960"/>
	</defs>
	<clipPath id="SVGID_2_">
		<use xlink:href="#SVGID_37_"  style="overflow:visible;"/>
	</clipPath>
	<g class="st2">
		<g>
			<g>
				<linearGradient id="SVGID_3_" gradientUnits="userSpaceOnUse" x1="-298.9934" y1="204.9518" x2="440.2599" y2="944.2051">
					<stop  offset="0" style="stop-color:#FFFFFF"/>
					<stop  offset="1" style="stop-color:#D2DADF"/>
				</linearGradient>
				<path class="st3" d="M-45.8,1084.4c-84.4,0-166.5-16.6-243.9-49.3c-74.6-31.6-141.6-76.7-199-134.1
					c-57.4-57.4-102.5-124.4-134.1-199c-32.7-77.4-49.3-159.4-49.3-243.9c0-84.4,16.6-166.5,49.3-243.9
					c31.6-74.6,76.7-141.6,134.1-199c57.4-57.4,124.4-102.5,199-134.1c77.4-32.7,159.4-49.3,243.9-49.3
					c84.4,0,166.5,16.6,243.9,49.3c74.6,31.6,141.6,76.7,199,134.1c57.4,57.4,102.5,124.4,134.1,199
					c32.7,77.4,49.3,159.4,49.3,243.9c0,84.4-16.6,166.5-49.3,243.9c-31.6,74.6-76.7,141.6-134.1,199
					c-57.4,57.4-124.4,102.5-199,134.1C120.7,1067.8,38.6,1084.4-45.8,1084.4z"/>
				<g>
					<radialGradient id="SVGID_4_" cx="19.9539" cy="466.3611" r="537.1017" gradientUnits="userSpaceOnUse">
						<stop  offset="0" style="stop-color:#555B60"/>
						<stop  offset="0.1739" style="stop-color:#6D7276"/>
						<stop  offset="0.5415" style="stop-color:#AAADB0"/>
						<stop  offset="1" style="stop-color:#FFFFFF"/>
					</radialGradient>
					<circle class="st4" cx="20" cy="466.4" r="537.1"/>
					<linearGradient id="SVGID_5_" gradientUnits="userSpaceOnUse" x1="-461.5733" y1="42.3719" x2="305.2486" y2="809.1938">
						<stop  offset="0" style="stop-color:#FFFFFF"/>
						<stop  offset="1" style="stop-color:#DAE1E5"/>
					</linearGradient>
					<path class="st5" d="M-45.8,1010.3c-74.4,0-146.8-14.6-215-43.5c-65.8-27.8-124.8-67.6-175.4-118.2
						c-50.6-50.6-90.4-109.7-118.2-175.4c-28.9-68.2-43.5-140.5-43.5-215c0-74.4,14.6-146.8,43.5-215
						c27.8-65.8,67.6-124.8,118.2-175.4c50.6-50.6,109.7-90.4,175.4-118.2C-192.6-79.4-120.2-94-45.8-94c74.4,0,146.8,14.6,215,43.5
						C234.9-22.7,294,17.1,344.6,67.7c50.6,50.6,90.4,109.7,118.2,175.4c28.9,68.2,43.5,140.5,43.5,215c0,74.4-14.6,146.8-43.5,215
						c-27.8,65.8-67.6,124.8-118.2,175.4C294,899.2,234.9,939,169.2,966.8C101,995.6,28.6,1010.3-45.8,1010.3z"/>
				</g>
				<g>
					<radialGradient id="SVGID_6_" cx="-3.3405" cy="507.5725" r="492.8808" gradientUnits="userSpaceOnUse">
						<stop  offset="0" style="stop-color:#555B60"/>
						<stop  offset="1" style="stop-color:#FFFFFF"/>
					</radialGradient>
					<circle class="st6" cx="-3.3" cy="507.6" r="492.9"/>
					<linearGradient id="SVGID_7_" gradientUnits="userSpaceOnUse" x1="-334.164" y1="169.7814" x2="218.8641" y2="722.8096">
						<stop  offset="0" style="stop-color:#FFFFFF"/>
						<stop  offset="1" style="stop-color:#D2DADF"/>
					</linearGradient>
					<path class="st7" d="M-45.8,936.1c-64.5,0-127.1-12.7-186.1-37.6c-56.9-24.1-108-58.5-151.9-102.4
						c-43.9-43.8-78.3-95-102.4-151.9c-25-59-37.6-121.6-37.6-186.1c0-64.5,12.7-127.1,37.6-186.1c24.1-56.9,58.5-108,102.4-151.9
						c43.9-43.9,95-78.3,151.9-102.4c59-25,121.6-37.6,186.1-37.6S81.3-7.2,140.3,17.8c56.9,24.1,108,58.5,151.9,102.4
						c43.8,43.8,78.3,95,102.4,151.9c25,59,37.6,121.6,37.6,186.1c0,64.5-12.7,127.1-37.6,186.1c-24.1,56.9-58.5,108-102.4,151.9
						c-43.8,43.8-95,78.3-151.9,102.4C81.3,923.5,18.7,936.1-45.8,936.1z"/>
				</g>
				<g>
					<radialGradient id="SVGID_8_" cx="-1.3497" cy="491.6463" r="418.0632" gradientUnits="userSpaceOnUse">
						<stop  offset="0" style="stop-color:#555B60"/>
						<stop  offset="1" style="stop-color:#FFFFFF"/>
					</radialGradient>
					<circle class="st8" cx="-1.3" cy="491.6" r="418.1"/>
					<linearGradient id="SVGID_9_" gradientUnits="userSpaceOnUse" x1="-255.5281" y1="248.4176" x2="198.4963" y2="702.442">
						<stop  offset="0" style="stop-color:#FFFFFF"/>
						<stop  offset="1" style="stop-color:#DAE1E5"/>
					</linearGradient>
					<path class="st9" d="M-45.8,862c-54.5,0-107.4-10.7-157.2-31.8c-48.1-20.3-91.3-49.5-128.3-86.5
						c-37.1-37.1-66.2-80.2-86.5-128.3c-21.1-49.8-31.8-102.7-31.8-157.2c0-54.5,10.7-107.4,31.8-157.2
						c20.3-48.1,49.5-91.3,86.5-128.3c37.1-37.1,80.2-66.2,128.3-86.5C-153.2,65-100.3,54.3-45.8,54.3S61.6,65,111.4,86
						c48.1,20.3,91.3,49.5,128.3,86.5c37.1,37.1,66.2,80.2,86.5,128.3c21.1,49.8,31.8,102.7,31.8,157.2
						c0,54.5-10.7,107.4-31.8,157.2c-20.3,48.1-49.5,91.3-86.5,128.3c-37.1,37.1-80.2,66.2-128.3,86.5C61.6,851.3,8.7,862-45.8,862z
						"/>
				</g>
				<g>
					<radialGradient id="SVGID_10_" cx="-13.2944" cy="493.6371" r="348.0827" gradientUnits="userSpaceOnUse">
						<stop  offset="0" style="stop-color:#555B60"/>
						<stop  offset="1" style="stop-color:#FFFFFF"/>
					</radialGradient>
					<circle class="st10" cx="-13.3" cy="493.6" r="348.1"/>
					<linearGradient id="SVGID_11_" gradientUnits="userSpaceOnUse" x1="-289.3712" y1="214.5741" x2="63.5588" y2="567.5041">
						<stop  offset="0" style="stop-color:#FFFFFF"/>
						<stop  offset="1" style="stop-color:#D2DADF"/>
					</linearGradient>
					<circle class="st11" cx="-45.8" cy="458.1" r="329.7"/>
				</g>
				<g>
					<radialGradient id="SVGID_12_" cx="-1.6816" cy="501.6001" r="238.6805" gradientUnits="userSpaceOnUse">
						<stop  offset="0" style="stop-color:#555B60"/>
						<stop  offset="1" style="stop-color:#FFFFFF"/>
					</radialGradient>
					<circle class="st12" cx="-1.7" cy="501.6" r="238.7"/>
					<g>
						<linearGradient id="SVGID_13_" gradientUnits="userSpaceOnUse" x1="-197.4635" y1="306.4818" x2="117.1803" y2="621.1256">
							<stop  offset="0" style="stop-color:#FFFFFF"/>
							<stop  offset="1" style="stop-color:#DAE1E5"/>
						</linearGradient>
						<circle class="st13" cx="-45.8" cy="458.1" r="239.3"/>
					</g>
				</g>
			</g>
			<g>
				<g>
					
						<image style="overflow:visible;opacity:0.15;" width="207" height="303" xlink:href="3F2615B8CBA5FC4F.png"  transform="matrix(1 0 0 1 290.2098 564)">
					</image>
					<g>
						<linearGradient id="SVGID_14_" gradientUnits="userSpaceOnUse" x1="214.684" y1="536.683" x2="427.7438" y2="749.7429">
							<stop  offset="0" style="stop-color:#FFFFFF"/>
							<stop  offset="1" style="stop-color:#DAE1E5"/>
						</linearGradient>
						<path class="st15" d="M452.3,577.4c-6.8,0-12.7,4.5-14.5,11c-5.9,22-13.3,43.6-22.3,64.7c-25.2,59.7-61.3,113.2-107.3,159.1
							c-5.9,5.9-5.9,15.4,0,21.2c2.9,2.9,6.8,4.4,10.6,4.4s7.7-1.5,10.6-4.4c48.7-48.7,86.9-105.4,113.7-168.7
							c9.5-22.4,17.3-45.3,23.6-68.5C469.4,586.7,462.2,577.4,452.3,577.4L452.3,577.4z"/>
					</g>
				</g>
				<g>
					
						<image style="overflow:visible;opacity:0.15;" width="358" height="358" xlink:href="3F2615B8CBA5FC4D.png"  transform="matrix(1 0 0 1 -74.7902 145)">
					</image>
					<g>
						<linearGradient id="SVGID_15_" gradientUnits="userSpaceOnUse" x1="324.4286" y1="484.6806" x2="69.4515" y2="229.7036">
							<stop  offset="0" style="stop-color:#FFFFFF"/>
							<stop  offset="1" style="stop-color:#DAE1E5"/>
						</linearGradient>
						<path class="st16" d="M238.9,473.1c-8.3,0-15-6.7-15-15c0-72-28.1-139.8-79-190.7c-50.9-50.9-118.7-79-190.7-79
							c-8.3,0-15-6.7-15-15c0-8.3,6.7-15,15-15c80.1,0,155.3,31.2,211.9,87.8c56.6,56.6,87.8,131.9,87.8,211.9
							C253.9,466.4,247.2,473.1,238.9,473.1z"/>
					</g>
				</g>
				<g>
					
						<image style="overflow:visible;opacity:0.15;" width="440" height="439" xlink:href="3F2615B8CBA5FC53.png"  transform="matrix(1 0 0 1 -74.7902 430)">
					</image>
					<g>
						<linearGradient id="SVGID_16_" gradientUnits="userSpaceOnUse" x1="517.4515" y1="336.8467" x2="145.4981" y2="708.8001">
							<stop  offset="0" style="stop-color:#FFFFFF"/>
							<stop  offset="1" style="stop-color:#D2DADF"/>
						</linearGradient>
						<path class="st17" d="M-45.8,839.3c-8.3,0-15-6.7-15-15c0-8.3,6.7-15,15-15c47.4,0,93.4-9.3,136.7-27.6
							c41.8-17.7,79.4-43,111.6-75.2c32.2-32.2,57.6-69.8,75.2-111.6c18.3-43.3,27.6-89.3,27.6-136.7c0-8.3,6.7-15,15-15
							c8.3,0,15,6.7,15,15c0,51.4-10.1,101.4-30,148.4c-19.2,45.4-46.7,86.1-81.7,121.1c-35,35-75.8,62.5-121.1,81.7
							C55.5,829.2,5.6,839.3-45.8,839.3z"/>
					</g>
				</g>
				<g>
					
						<image style="overflow:visible;opacity:0.15;" width="108" height="415" xlink:href="3F2615B8CBA5FC55.png"  transform="matrix(1 0 0 1 330.2098 259)">
					</image>
					<g>
						<linearGradient id="SVGID_17_" gradientUnits="userSpaceOnUse" x1="375.9424" y1="202.4366" x2="375.9424" y2="602.5577">
							<stop  offset="0" style="stop-color:#FFFFFF"/>
							<stop  offset="1" style="stop-color:#DAE1E5"/>
						</linearGradient>
						<path class="st18" d="M358.7,644.1c-1.9,0-3.9-0.4-5.8-1.2c-7.6-3.2-11.2-12-8-19.7c22.1-52.3,33.4-107.9,33.4-165.1
							c0-57.2-11.2-112.7-33.4-165.1c-3.2-7.6,0.3-16.4,8-19.7c7.6-3.2,16.4,0.3,19.7,8c23.7,56.1,35.7,115.5,35.7,176.8
							c0,61.2-12,120.7-35.7,176.8C370.1,640.6,364.5,644.1,358.7,644.1z"/>
					</g>
				</g>
			</g>
		</g>
		<rect x="-222.3" y="210.8" class="st19" width="750" height="500"/>
	</g>
</g>
<g class="st42">
	<defs>
		<rect id="SVGID_54_" x="663" y="-1018" class="st42" width="600" height="960"/>
	</defs>
	<clipPath id="SVGID_19_">
		<use xlink:href="#SVGID_54_"  style="overflow:visible;"/>
	</clipPath>
	<g class="st21">
		<g>
			<g>
				<linearGradient id="SVGID_20_" gradientUnits="userSpaceOnUse" x1="364.0066" y1="-813.0482" x2="1103.2599" y2="-73.7949">
					<stop  offset="0" style="stop-color:#FFFFFF"/>
					<stop  offset="1" style="stop-color:#D2DADF"/>
				</linearGradient>
				<path class="st22" d="M617.2,66.4c-84.4,0-166.5-16.6-243.9-49.3c-74.6-31.6-141.6-76.7-199-134.1
					C116.9-174.4,71.8-241.4,40.3-316C7.5-393.4-9.1-475.4-9.1-559.9c0-84.4,16.6-166.5,49.3-243.9c31.6-74.6,76.7-141.6,134.1-199
					c57.4-57.4,124.4-102.5,199-134.1c77.4-32.7,159.4-49.3,243.9-49.3c84.4,0,166.5,16.6,243.9,49.3
					c74.6,31.6,141.6,76.7,199,134.1c57.4,57.4,102.5,124.4,134.1,199c32.7,77.4,49.3,159.4,49.3,243.9
					c0,84.4-16.6,166.5-49.3,243.9c-31.6,74.6-76.7,141.6-134.1,199c-57.4,57.4-124.4,102.5-199,134.1
					C783.7,49.8,701.6,66.4,617.2,66.4z"/>
			</g>
		</g>
	</g>
</g>
</svg>
