<svg width="32" height="32" viewBox="0 0 32 32" fill="none" xmlns="http://www.w3.org/2000/svg">
<path d="M32 25.7508C32 26.4691 31.7486 27.0797 31.2458 27.5825L27.5825 31.2458C27.0797 31.7486 26.4691 32 25.7508 32C25.0325 32 24.422 31.7486 23.9192 31.2458L16 23.3266L8.08081 31.2458C7.578 31.7486 6.96745 32 6.24916 32C5.53086 32 4.92031 31.7486 4.41751 31.2458L0.754209 27.5825C0.251403 27.0797 0 26.4691 0 25.7508C0 25.0325 0.251403 24.422 0.754209 23.9192L8.6734 16L0.754209 8.08081C0.251403 7.578 0 6.96745 0 6.24916C0 5.53086 0.251403 4.92031 0.754209 4.41751L4.41751 0.754209C4.92031 0.251403 5.53086 0 6.24916 0C6.96745 0 7.578 0.251403 8.08081 0.754209L16 8.6734L23.9192 0.754209C24.422 0.251403 25.0325 0 25.7508 0C26.4691 0 27.0797 0.251403 27.5825 0.754209L31.2458 4.41751C31.7486 4.92031 32 5.53086 32 6.24916C32 6.96745 31.7486 7.578 31.2458 8.08081L23.3266 16L31.2458 23.9192C31.7486 24.422 32 25.0325 32 25.7508Z" fill="white"/>
</svg>
