<svg width="32" height="32" viewBox="0 0 32 32" fill="none" xmlns="http://www.w3.org/2000/svg">
<path fill-rule="evenodd" clip-rule="evenodd" d="M24 10.6666C24 10.1362 24.2107 9.62748 24.5858 9.25241C24.9609 8.87734 25.4696 8.66663 26 8.66663C26.5304 8.66663 27.0391 8.87734 27.4142 9.25241C27.7893 9.62748 28 10.1362 28 10.6666V24.202L26 27.202L24 24.202V10.6666ZM26 9.99996C25.8232 9.99996 25.6536 10.0702 25.5286 10.1952C25.4036 10.3202 25.3333 10.4898 25.3333 10.6666V23.798L26 24.798L26.6667 23.798V10.6666C26.6667 10.4898 26.5964 10.3202 26.4714 10.1952C26.3464 10.0702 26.1768 9.99996 26 9.99996Z" fill="white"/>
<path fill-rule="evenodd" clip-rule="evenodd" d="M27.3333 13.3333H24.6667V12H27.3333V13.3333ZM6.66667 5.33333C6.31304 5.33333 5.97391 5.47381 5.72386 5.72386C5.47381 5.97391 5.33333 6.31304 5.33333 6.66667V25.3333C5.33333 25.687 5.47381 26.0261 5.72386 26.2761C5.97391 26.5262 6.31304 26.6667 6.66667 26.6667H20C20.3536 26.6667 20.6928 26.5262 20.9428 26.2761C21.1929 26.0261 21.3333 25.687 21.3333 25.3333V6.66667C21.3333 6.31304 21.1929 5.97391 20.9428 5.72386C20.6928 5.47381 20.3536 5.33333 20 5.33333H6.66667ZM4 6.66667C4 5.95942 4.28095 5.28115 4.78105 4.78105C5.28115 4.28095 5.95942 4 6.66667 4H20C20.7072 4 21.3855 4.28095 21.8856 4.78105C22.3857 5.28115 22.6667 5.95942 22.6667 6.66667V25.3333C22.6667 26.0406 22.3857 26.7189 21.8856 27.219C21.3855 27.719 20.7072 28 20 28H6.66667C5.95942 28 5.28115 27.719 4.78105 27.219C4.28095 26.7189 4 26.0406 4 25.3333V6.66667Z" fill="white"/>
<path fill-rule="evenodd" clip-rule="evenodd" d="M13.3336 10C13.3336 9.82323 13.4038 9.65366 13.5288 9.52864C13.6538 9.40361 13.8234 9.33337 14.0002 9.33337H19.3336C19.5104 9.33337 19.6799 9.40361 19.805 9.52864C19.93 9.65366 20.0002 9.82323 20.0002 10C20.0002 10.1769 19.93 10.3464 19.805 10.4714C19.6799 10.5965 19.5104 10.6667 19.3336 10.6667H14.0002C13.8234 10.6667 13.6538 10.5965 13.5288 10.4714C13.4038 10.3464 13.3336 10.1769 13.3336 10ZM13.3336 12.6667C13.3336 12.4899 13.4038 12.3203 13.5288 12.1953C13.6538 12.0703 13.8234 12 14.0002 12H19.3336C19.5104 12 19.6799 12.0703 19.805 12.1953C19.93 12.3203 20.0002 12.4899 20.0002 12.6667C20.0002 12.8435 19.93 13.0131 19.805 13.1381C19.6799 13.2631 19.5104 13.3334 19.3336 13.3334H14.0002C13.8234 13.3334 13.6538 13.2631 13.5288 13.1381C13.4038 13.0131 13.3336 12.8435 13.3336 12.6667ZM13.3336 18.6667C13.3336 18.4899 13.4038 18.3203 13.5288 18.1953C13.6538 18.0703 13.8234 18 14.0002 18H19.3336C19.5104 18 19.6799 18.0703 19.805 18.1953C19.93 18.3203 20.0002 18.4899 20.0002 18.6667C20.0002 18.8435 19.93 19.0131 19.805 19.1381C19.6799 19.2631 19.5104 19.3334 19.3336 19.3334H14.0002C13.8234 19.3334 13.6538 19.2631 13.5288 19.1381C13.4038 19.0131 13.3336 18.8435 13.3336 18.6667ZM13.3336 21.3334C13.3336 21.1566 13.4038 20.987 13.5288 20.862C13.6538 20.7369 13.8234 20.6667 14.0002 20.6667H19.3336C19.5104 20.6667 19.6799 20.7369 19.805 20.862C19.93 20.987 20.0002 21.1566 20.0002 21.3334C20.0002 21.5102 19.93 21.6798 19.805 21.8048C19.6799 21.9298 19.5104 22 19.3336 22H14.0002C13.8234 22 13.6538 21.9298 13.5288 21.8048C13.4038 21.6798 13.3336 21.5102 13.3336 21.3334ZM8.00022 18.6667V20.6667H10.0002V18.6667H8.00022ZM7.33355 17.3334H10.6669C10.8437 17.3334 11.0133 17.4036 11.1383 17.5286C11.2633 17.6537 11.3336 17.8232 11.3336 18V21.3334C11.3336 21.5102 11.2633 21.6798 11.1383 21.8048C11.0133 21.9298 10.8437 22 10.6669 22H7.33355C7.15674 22 6.98717 21.9298 6.86215 21.8048C6.73712 21.6798 6.66688 21.5102 6.66688 21.3334V18C6.66688 17.8232 6.73712 17.6537 6.86215 17.5286C6.98717 17.4036 7.15674 17.3334 7.33355 17.3334V17.3334ZM11.8049 9.52871C11.9299 9.65373 12.0001 9.82326 12.0001 10C12.0001 10.1768 11.9299 10.3464 11.8049 10.4714L8.66688 13.6094L6.86222 11.8047C6.79854 11.7432 6.74776 11.6696 6.71282 11.5883C6.67788 11.507 6.65949 11.4195 6.65872 11.331C6.65795 11.2425 6.67482 11.1547 6.70834 11.0727C6.74186 10.9908 6.79136 10.9164 6.85395 10.8538C6.91655 10.7912 6.99098 10.7417 7.07291 10.7082C7.15485 10.6746 7.24263 10.6578 7.33115 10.6585C7.41967 10.6593 7.50715 10.6777 7.58849 10.7126C7.66982 10.7476 7.74339 10.7984 7.80488 10.862L8.66688 11.724L10.8622 9.52871C10.9872 9.40373 11.1568 9.33352 11.3336 9.33352C11.5103 9.33352 11.6799 9.40373 11.8049 9.52871V9.52871Z" fill="white"/>
</svg>
