<svg width="704" height="896" viewBox="0 0 704 896" fill="none" xmlns="http://www.w3.org/2000/svg">
<path d="M320 516H212C209.878 516 207.843 516.843 206.343 518.343C204.843 519.843 204 521.878 204 524V572C204 574.122 204.843 576.157 206.343 577.657C207.843 579.157 209.878 580 212 580H320V688C320 690.122 320.843 692.157 322.343 693.657C323.843 695.157 325.878 696 328 696H376C378.122 696 380.157 695.157 381.657 693.657C383.157 692.157 384 690.122 384 688V580H492C494.122 580 496.157 579.157 497.657 577.657C499.157 576.157 500 574.122 500 572V524C500 521.878 499.157 519.843 497.657 518.343C496.157 516.843 494.122 516 492 516H384V408C384 405.878 383.157 403.843 381.657 402.343C380.157 400.843 378.122 400 376 400H328C325.878 400 323.843 400.843 322.343 402.343C320.843 403.843 320 405.878 320 408V516ZM694.6 224.7C700.6 230.7 704 238.8 704 247.3V864C704 881.7 689.7 896 672 896H32C14.3 896 0 881.7 0 864V32C0 14.3 14.3 0 32 0H456.7C465.2 0 473.4 3.4 479.4 9.4L694.6 224.7V224.7ZM630.2 262L442 73.8V262H630.2Z" fill="#F69615" fill-opacity="0.7"/>
</svg>
