<svg width="40" height="41" viewBox="0 0 40 41" fill="none" xmlns="http://www.w3.org/2000/svg">
<path d="M20 20.5C26.3125 20.5 31.4286 15.9115 31.4286 10.25C31.4286 4.58848 26.3125 0 20 0C13.6875 0 8.57143 4.58848 8.57143 10.25C8.57143 15.9115 13.6875 20.5 20 20.5ZM28.5536 23.1105L24.2857 38.4375L21.4286 27.5469L24.2857 23.0625H15.7143L18.5714 27.5469L15.7143 38.4375L11.4464 23.1105C5.08036 23.3828 0 28.0514 0 33.825V37.1562C0 39.2783 1.91964 41 4.28571 41H35.7143C38.0804 41 40 39.2783 40 37.1562V33.825C40 28.0514 34.9196 23.3828 28.5536 23.1105Z" fill="white"/>
</svg>
