<?xml version="1.0" encoding="utf-8"?>
<!-- Generator: Adobe Illustrator 23.1.1, SVG Export Plug-In . SVG Version: 6.00 Build 0)  -->
<svg version="1.1" id="Capa_1" xmlns="http://www.w3.org/2000/svg" xmlns:xlink="http://www.w3.org/1999/xlink" x="0px" y="0px"
	 viewBox="0 0 512 512" style="enable-background:new 0 0 512 512;" xml:space="preserve">
<g>
	<g>
		<path d="M482.7,281.6c-7,0-20.6,6.3-20.6,14.3v157.9c0,8-4.7,13.3-11.6,13.3H62.5c-7,0-11.6-5.3-11.6-13.3V295.9
			c0-8-12.7-15.3-19.6-15.3s-19.6,7.3-19.6,15.3v172.9c0,22.6,15.1,39.9,34.9,39.9h418.9c19.8,0,34.9-17.3,34.9-39.9V295.9
			C500.4,287.9,489.7,281.6,482.7,281.6z"/>
	</g>
</g>
<g>
	<g>
		<path d="M477.1,96.4H34.9C15.1,96.4,0,113.7,0,136.3v85.1C0,240,11.6,256,26.8,260l182.7,46.6v42.6c0,8,4.7,13.3,11.6,13.3h69.8
			c7,0,11.6-5.3,11.6-13.3v-42.6L485.2,260c15.1-4,26.8-20,26.8-38.6v-85.1C512,113.7,496.9,96.4,477.1,96.4z M278.3,329.8h-43.5
			v-53.2h43.5V329.8z M482.7,209.4c0,6.7-3.5,12-9.3,13.3l-170.9,45.2v-10.6c0-8-4.7-13.3-11.6-13.3h-69.8c-7,0-11.6,5.3-11.6,13.3
			v10.6L43.6,222.7c-5.8-1.3-9.3-6.7-9.3-13.3v-61.1c0-8,4.7-13.3,11.6-13.3h425.2c7,0,11.6,5.3,11.6,13.3V209.4z"/>
	</g>
</g>
<g>
	<g>
		<path d="M314.2,3.3H197.8c-34.9,0-34.9,28.3-34.9,50.9v11.3c0,8,10.7,15.3,17.6,15.3s15.6-7.3,15.6-15.3V54.2
			c0-8,4.7-11.3,11.6-11.3h97.4c7,0,11.6,3.3,11.6,11.3v13.3c0,8,9.7,13.3,16.6,13.3c7,0,15.6-5.3,15.6-13.3V54.2
			C349.1,31.6,351.2,4.6,314.2,3.3z"/>
	</g>
</g>
</svg>
