<svg xmlns="http://www.w3.org/2000/svg" viewBox="0 0 467.08 415.36"><defs><style>.a{fill:#bce7fd;}.b{fill:#bbe7fd;}.c{fill:#bde8fe;}.d{fill:#c1272d;}.e{fill:#fbf3eb;}.f{fill:#ddccc3;}.g{fill:#1a3b5b;}.h{fill:#f6ad9d;}.i{fill:#02c4bc;}.j{fill:#fcc043;}.k{fill:#44befc;}.l{fill:#dff5fd;}.m{fill:#b6e0f6;}.n{fill:#ed1c24;}.o{fill:#195179;}.p{fill:#3d4c56;}.q{fill:#fdfefe;}.r{fill:#7bd5fe;}.s{fill:#7cd5fe;}.t{fill:#193b5b;}.u{fill:#06f;}.v{fill:#254563;}.w{fill:#ed1e79;}</style></defs><title>Asset 4</title><path class="a" d="M93.41,380.83a207.11,207.11,0,0,0-18.71-16c-12.42-9.18-24.93-18.28-35.31-29.85-20-22.25-33.13-47.8-37.71-77.59a135.22,135.22,0,0,1,13.4-83.52c9.39-18.52,23-33.9,39.35-46.91,16.63-13.22,35.81-21.51,55-29.78,10-4.31,20.24-8.16,30.38-12.21.55,25.86.45,51.73,0,77.59-3.63,2.56-7.54,1.27-11.34.73-8.42-1.22-16.48-4.47-25.12-4.56.38-1.58-.51-3.49.8-4.76,5.14-5,3.71-10.78,2.24-16.62.42-1.75,1-3.5,1.21-5.28.2-1.41-.31-2.89-1.92-3-6.07-.31-12.23-2-18.12.95-1.93.95-3.92,1.93-4.78,4.11a17.93,17.93,0,0,0,6.07,21.26c-.05,1.84-.48,3.74.83,5.37-1.09.38-2.2.72-3.27,1.14-11.12,4.33-21.42,9.53-23.8,22.94-5.84,10.53-11.22,21.2-11.06,33.72,0,2.73.33,5.43,2,7.56a135.53,135.53,0,0,0,18.58,19.29,5.71,5.71,0,0,0,4.5,1.48l0,0,1,1.1,3.21,15.16c.18,1.31.27,2.64.57,3.92,3.11,13.36,7.72,26.26,9,40.18A730,730,0,0,1,93.41,380.83Z"/><path class="b" d="M348.05,86.81c4,4.23,4.95,9.94,7.24,15A169.24,169.24,0,0,0,383.37,145c12.65,14.11,26.45,27.17,39,41.39,16.75,19.05,31,39.85,38.33,64.55A157.88,157.88,0,0,1,466.77,287c.79,13.48-.06,26.81-1.19,40.18-1.33,15.82-7.59,29.84-16.66,42.57A168.23,168.23,0,0,1,422.05,399a159,159,0,0,0-22.59-2.79c7.79-6.46,12.7-14.17,12.35-24.86-.12-3.91,2.8-6.22,7.17-5.62,3.79.52,7.57,1.34,11.36,1.38,12.82.14,19.82-4.72,14.62-18.58a106,106,0,0,1-3.55-11.41c-1.42-5.69.36-10,5.25-13.29,1.64-1.13,3.4-2.08,5.06-3.19,6.67-4.47,6.38-9.22-.79-13.05a24.58,24.58,0,0,0-3.65-1.59c-14.28-4.83-35.08,2.19-44.13,14.64-4.24,5.83-6.82,12.53-10.35,18.73-3-5.59-3-11.4-1.48-17.41,1.13-4.42,3.76-8.12,5.68-12.15,3.87-8.13,4-16.29-2-22.92-9.57-10.64-9.53-20.69-1.84-32.32,5.54-8.4,1.86-16.88-7.78-20.13a24.28,24.28,0,0,0-13.7-.94c-6.2,1.48-9.65,5.13-11.33,11.13-2.05,7.37,1.16,13.73,3.45,20.23,3.11,8.78,2.85,17.2-1.37,25.55a144.23,144.23,0,0,0-6.5,14c-4.52,12-3.24,16.09,6.83,24,1.05.83,2,1.72,3.05,2.59a9.24,9.24,0,0,1,3,10.76c-.68,2-1.48,4-2.22,6.07-8.61-2.82-11.43-10-12.9-17.83-1.13-6-2.45-11.91-6.06-17q0-109.59.09-219.19C347.77,91.45,348,89.13,348.05,86.81Z"/><path d="M399.45,396.19a158.92,158.92,0,0,1,22.6,2.79,186.13,186.13,0,0,1,37.14,16.38H32.91c18.74-14.17,39.05-17,60.63-14.54,2.47,2,5.29.78,8,.86l5.23.17c1.82.39,3.63,1.42,5.44,0l7.25-.05c8.44,2.63,16.65.55,25.66-.9-3.9-5.12-4.84-10.35-4.83-16q.11-74.37,0-148.75c0-16.47-.15-32.93-.23-49.4,2.61-1.53,5.61-1.86,8.44-2.72q.17,3.41.34,6.83c-.06.82-.17,1.65-.17,2.48q0,96.38,0,192.76a14.85,14.85,0,0,0,.72,5.4c2.16,5.7,4.84,7.12,10.59,5.31,4.75-1.5,9.53-2.91,14.18-4.69,26.36-10.08,53.58-12.61,81.44-9.36,13.14,1.53,25.37,6.51,37.88,10.41,10.75,3.34,21.25,7.66,32.94,6.77,7.66-.59,12.68-5.15,13.07-12.89.14-2.82.13-5.65.19-8.48l8.21,6a24.43,24.43,0,0,1-6.41,18.08,241.49,241.49,0,0,0,27.19-3.19c4.13.06,6.06-1.42,4.21-5.78a10.18,10.18,0,0,1-.32-2.85l1-1.06a34.5,34.5,0,0,0,1.24,4.7c.56,1.35-.14,3.75,2.15,3.8s2.56-2,2.64-3.89c1.18,2,1.93,4.73,5.19,2.68l4.44-.38h2.32c2.33,1,4.65,1.5,6.93-.15Z"/><path d="M348.05,86.81c-.1,2.32-.28,4.64-.28,7q-.06,109.61-.09,219.19l-8.23-3.28q0-104.15,0-208.31c0-8.48-.11-17-.17-25.46.06-8.82.31-17.65.1-26.47-.18-7.74-5.39-12.59-13.17-12.65-11.66-.09-23.33,0-35,0-7.86,0-8,0-9.85,7.63-.92,3.75-2.57,5.57-6.84,5.53-20.49-.2-41-.16-61.47,0-3.72,0-5.59-1.45-6.28-4.9-.33-1.63-.91-3.23-1.08-4.87-.26-2.44-1.38-3.42-3.89-3.41-13.83.09-27.66-.09-41.48.13a12,12,0,0,0-11.65,12c-.14,9,.06,18,.11,27q0,42.5,0,85c-2.76,1.64-5.63,2.66-8.88,1.66.41-25.86.51-51.73,0-77.59.86-11,.18-22.1.39-33.14,0-2,.12-4,.19-5.94a.7.7,0,0,0,.1-.86c3.95-11.83,10.84-16.79,23.3-16.85q27.87-.12,55.76-.3c7.29.1,14.59.29,21.88.28q39.57-.06,79.15-.22c3.46.28,7,.23,10.38.9a20.34,20.34,0,0,1,16.72,20.11C347.9,61.55,348,74.18,348.05,86.81ZM238.51,39.17c.31,3.3,2.06,5.44,5.29,5.51,3.42.08,5.71-2,5.69-5.49s-2.16-5.47-5.73-5.38C240.35,33.9,238.84,36,238.51,39.17Z"/><path class="c" d="M430.63,101.54c.57,8.67-1.5,16.66-8.85,22.75-5.42,4.49-11.28,5.13-17.32,1.08-10.6-7.09-19.06-16.6-27.38-26-7.73-8.78-14.43-18.49-18.61-29.66A27.76,27.76,0,0,1,357,53.53c2.46-10.58,12.37-14.05,22.67-13.35C412.08,42.37,431.59,74.41,430.63,101.54Z"/><path class="d" d="M101.51,401.68c-2.68-.08-5.5,1.13-8-.86q-.06-10-.13-20a730,730,0,0,0-3-73.62c-1.3-13.92-5.91-26.82-9-40.18-.3-1.28-.39-2.61-.57-3.92A46.47,46.47,0,0,0,99.64,269c0,3.77,1.51,7.15,2.94,10.48a76.18,76.18,0,0,1,6,26.54c.63,13.67,3.38,27.18,3.06,40.91-1.44.33-1.56,1.55-1.75,2.68Q106,373,102.06,396.46C101.88,398.2,101.69,399.94,101.51,401.68Z"/><path class="c" d="M320.62,27.9q-39.58.12-79.15.22c-7.29,0-14.59-.18-21.88-.28,3.63-6.61,10-10.4,15.65-14.85C245.48,4.91,257-.61,270.4.05c20.6,1,36.89,10.75,49.87,26.42C320.55,26.8,320.51,27.42,320.62,27.9Z"/><path class="a" d="M140.53,45a.7.7,0,0,1-.1.86,2.93,2.93,0,0,1-.22-.65C140.2,45.15,140.42,45.06,140.53,45Z"/><path class="e" d="M99.64,269a46.47,46.47,0,0,1-18.8-5.91L77.63,248l-1-1.1,0,0c-.24-5.39-2.62-10.21-4.12-15.25-4.56-15.34-10.63-30.35-9.88-46.8,2.38-13.41,12.68-18.61,23.8-22.94,1.07-.42,2.18-.76,3.27-1.13a45.63,45.63,0,0,1,13.67-2.06c8.64.09,16.7,3.34,25.12,4.56,3.8.54,7.71,1.83,11.34-.73,3.25,1,6.12,0,8.88-1.66,4.55-1.49,9.38-2.4,12.92-6.05,3.47-.62,6.19-2.6,8.74-4.87l6.17-3.1,4.16,5.29c-1.21,5.19-5.09,8.71-8,12.82a11.23,11.23,0,0,0-4.74,4.3c-4.92,7.08-11.64,11.66-19.49,14.81-2.83.86-5.83,1.19-8.44,2.72L130.73,189c-2.88.75-5.76,1.5-8.63,2.27-2.31.63-3.85,1.09-1.82,4.18,3.09,4.72,4.59,10.12,5.69,15.77.75,3.87-.44,8,1.67,11.6-.28,13.46,1.7,26.8,2,40.23C120,266.77,110.09,269.3,99.64,269Z"/><path class="f" d="M62.69,184.82c-.75,16.45,5.32,31.46,9.88,46.8,1.5,5,3.88,9.86,4.12,15.25a5.71,5.71,0,0,1-4.5-1.48A135.53,135.53,0,0,1,53.61,226.1c-1.65-2.13-2-4.83-2-7.56C51.47,206,56.85,195.35,62.69,184.82Z"/><path class="g" d="M88.93,155.37a17.93,17.93,0,0,1-6.07-21.26c.86-2.18,2.85-3.16,4.78-4.11,5.89-2.93,12-1.26,18.12-.95,1.61.09,2.12,1.57,1.92,3-.26,1.78-.79,3.53-1.21,5.29a38.59,38.59,0,0,1-4.25,3.35c-2.4,1.44-2.84,4.2-4.29,6.24-1.14,1.6,2.1,1.45,2.73,2.67,1,2,1.38,3.8-1.53,4.6C95.78,155.11,92.49,156.37,88.93,155.37Z"/><path class="h" d="M88.93,155.37c3.56,1,6.85-.26,10.2-1.19,2.91-.8,2.56-2.61,1.53-4.6-.63-1.22-3.87-1.07-2.73-2.67,1.45-2,1.89-4.8,4.29-6.24a38.59,38.59,0,0,0,4.25-3.35c1.47,5.83,2.9,11.62-2.24,16.61-1.31,1.27-.42,3.18-.8,4.76a45.63,45.63,0,0,0-13.67,2.06C88.45,159.11,88.88,157.21,88.93,155.37Z"/><path class="f" d="M76.67,246.85l1,1.1Z"/><path class="i" d="M384.76,397.13c-3.26,2.05-4-.72-5.19-2.68.45-9.4-.71-18.68-2-28l.84-15.63a56.06,56.06,0,0,0,1.21-12.05c.21-.23.43-.46.64-.7l-.42-.23-.18,1c-3.64,3.37-2.15,7.94-2.8,12q-.27,6-.53,11.91a27,27,0,0,0-9.66-15c.74-2,1.54-4,2.22-6.07a9.24,9.24,0,0,0-3-10.76c-1-.87-2-1.76-3.05-2.59-10.07-7.91-11.35-12-6.83-24a144.23,144.23,0,0,1,6.5-14c4.22-8.35,4.48-16.77,1.37-25.55-2.29-6.5-5.5-12.86-3.45-20.23,1.68-6,5.13-9.65,11.33-11.13a24.28,24.28,0,0,1,13.7.94c9.64,3.25,13.32,11.73,7.78,20.13-7.69,11.63-7.73,21.68,1.84,32.32,6,6.63,5.83,14.79,2,22.92-1.92,4-4.55,7.73-5.68,12.15-1.53,6-1.5,11.82,1.48,17.41-5.55,14.89-8.92,30.06-5.78,46C386,389.26,384.21,393,384.76,397.13Zm-3.33-126.2c1-7.32-4-15.18,3-22.93-8.11,6.52-4.39-2.44-7.58-3.62,1.08,10.05,2.12,19.71,3.15,29.37q.23,18.39.47,36.78c0,2.4.26,4.83-5.18,4.23,6,3.2,3.67,8,5.49,11.61C381.91,307.84,381.82,289.39,381.43,270.93Z"/><path class="j" d="M387,385.4c-3.14-16,.23-31.16,5.78-46,3.53-6.2,6.11-12.9,10.35-18.73C412.2,308.17,433,301.15,447.28,306a24.58,24.58,0,0,1,3.65,1.59c7.17,3.83,7.46,8.58.79,13.05-1.66,1.11-3.42,2.06-5.06,3.19-4.89,3.34-6.67,7.6-5.25,13.29A106,106,0,0,0,445,348.51c5.2,13.86-1.8,18.72-14.62,18.58-3.79,0-7.57-.86-11.36-1.38-4.37-.6-7.29,1.71-7.17,5.62.35,10.69-4.56,18.4-12.35,24.86l-1,.41c-3.79.18-5-1-4-5.14a237.48,237.48,0,0,1,11.61-34.92c2-5,2.91-11.17,10.69-11.24-1.78-2.12-3.58-.85-4.91-2C416.68,330.42,427,323,439,317.17c-1.34-1.47-2.08-.82-2.76-.5-11.1,5.33-20.3,12.76-25.39,24.29-3.69,8.35-6.76,17-10.53,25.27-1,2.18.15,6.61-4.66,6a13.11,13.11,0,0,1-.08,8.59c-1.62,5.22-2.72,10.6-4,15.92H389.2Q388.11,391.08,387,385.4Z"/><path class="k" d="M377.54,366.49c1.32,9.28,2.48,18.56,2,28-.08,1.85-.2,3.94-2.64,3.89s-1.59-2.45-2.15-3.8a34.5,34.5,0,0,1-1.24-4.7,75.86,75.86,0,0,0-10.46-25.16c-7.07-11.33-15.53-21.63-24.2-31.75-2.21-2.57-4.08-5.06-3.13-9.14-2.19,2.66-3.46,1.6-5.1-.11-5.06-5.29-10.28-10.44-15.53-15.55-1.29-1.26-2.57-2.88-5.38-2.78a12.49,12.49,0,0,0,1.45,2c18.93,16.54,34.78,35.76,49.09,56.33.84,1.21,2,2.59,2,3.89,0,2.16-3,.3-4,2.71,7.24-.85,8.48,4.63,10.33,9.38,1.45,3.7,2.67,7.48,4,11.23a10.18,10.18,0,0,0,.32,2.85c1.85,4.36-.08,5.84-4.21,5.78-4.73-8-12.59-11.69-20.78-14.89l-8.21-6a24.8,24.8,0,0,1-3.82-16.2c.66-8-3.1-13.28-10.23-15.84-8.27-3-11.95-8.83-13.06-17.11-.42-3.17-.71-6.62-3.54-8.94,0-4.3-3.35-6.19-6.08-8.54-4.62-4-4.36-8.28.58-11.78s10.29-3.23,15.78-3.12a57.73,57.73,0,0,1,11.06,8.09c2.61,2.29,5.46,4.24,9.1,4.52l8.23,3.28c3.61,5.11,4.93,11,6.06,17,1.47,7.86,4.29,15,12.9,17.83a27,27,0,0,1,9.66,15C376.83,364,376.38,365.5,377.54,366.49Z"/><path class="l" d="M309,320.51c2.83,2.32,3.12,5.77,3.54,8.94,1.11,8.28,4.79,14.14,13.06,17.11,7.13,2.56,10.89,7.88,10.23,15.84a24.8,24.8,0,0,0,3.82,16.2c-.06,2.83-.05,5.66-.19,8.48-.39,7.74-5.41,12.3-13.07,12.89-11.69.89-22.19-3.43-32.94-6.77-12.51-3.9-24.74-8.88-37.88-10.41-27.86-3.25-55.08-.72-81.44,9.36-4.65,1.78-9.43,3.19-14.18,4.69-5.75,1.81-8.43.39-10.59-5.31a14.85,14.85,0,0,1-.72-5.4q0-96.37,0-192.76c0-.83.11-1.66.17-2.48,2.31.06,4-1.26,5.82-2.44,8.27-5.32,12.68-13.81,18-21.56L315.9,167c11.72,0,11.56,0,11.74-11.76.06-4-.88-5.43-5.19-5.41-45.58.16-91.16.11-136.74.12.35-2.93-1.18-6.26,1.81-8.64,2.32.44,3.39-1.8,5.26-2.45q36.43-12.69,72.81-25.58c2-.7,4-.92,5.58.74,3.35,3.43,7.86,5.62,10.46,9.84,1.09,1.78,2.37,1.79,4.19,1a207.55,207.55,0,0,1,38.44-13c1.24-.29,2.22-.67,2.57-2a2.5,2.5,0,0,0-.71-2.73,2.71,2.71,0,0,0-3.23-.21c-11.11,5.75-23.41,8.27-35,12.74-1.92.74-4,.92-5.62-.69-3.43-3.35-7.84-5.67-10.51-9.82-1.31-2-2.9-2.12-4.53-.64a9.58,9.58,0,0,1-3.5,1.77q-35.48,12.46-70.93,25c-2.14.76-4.41,1.38-6.28.29-6.87-4-13.62-8.25-20.27-12.62-1.26-.83-2-2.22-3.77-1.33A2.39,2.39,0,0,0,161,124c.19,1.73,1.59,2.08,3,2.76a118.74,118.74,0,0,1,21.59,13c-2.81,2.62-7,3.49-9,7.1l-6.17,3.1c-3.29.95-9.42-3.21-8.74,4.87-3.54,3.65-8.37,4.56-12.92,6.05q0-42.5,0-85l190.49,0c.06,8.49.17,17,.17,25.46q0,104.16,0,208.31c-3.64-.28-6.49-2.23-9.1-4.52a58.2,58.2,0,0,0-11.06-8.1,79.68,79.68,0,0,0-2.79-46.61c-1.09-3-2.23-3.68-5.29-2.24-8.25,3.9-16.7,7.39-25,11.1q-20.58,9.15-41.14,18.36c-.67-1.44,0-2.31.26-3.23,7.1-22,14.13-43.93,21.38-65.84,1.08-3.26.73-4.63-2.79-5.41-31.16-6.95-58.1.67-78.81,25-20.42,24-24.43,51.88-12,80.77,12,27.95,34.38,43.89,64.71,46.36C267.89,357.78,291.74,345.38,309,320.51Zm3.5,53.29c2.29,0,4.59.08,6.88.09,1,0,1.76-.1,2.18-1.38,2-6.16-.39-9.56-6.91-9.53-.65,0-1.31,0-2,0-7.16,0-14.32-.12-21.48-.14-7.33,0-7,0-7.88,7.25-.43,3.57.92,3.78,3.68,3.75C295.52,373.76,304,373.81,312.51,373.8Zm5.75-137.25c-.15-.3-.29-.59-.45-.89a79.18,79.18,0,0,0-39.45-35.73c-2-.87-3-.19-3.61,1.79q-9.71,30.33-19.51,60.64c-.29.93-1,1.94-.13,2.78s1.88-.06,2.71-.42q29.16-12.9,58.3-25.83C317.24,238.4,318.29,238,318.26,236.55Z"/><path class="m" d="M129.61,263c-.27-13.43-2.25-26.77-2-40.23,1-11.27,3.78-22.39,3.09-33.82l9.33-2.18c.08,16.47.22,32.93.23,49.4q0,74.37,0,148.75c0,5.62.93,10.85,4.83,16-9,1.45-17.22,3.53-25.66.9,1.93-11.64,3.89-23.27,5.79-34.92,1.82-11.14,4.82-22.27,5.08-33.45C130.85,310,129.93,286.49,129.61,263Z"/><path class="n" d="M129.61,263c.32,23.48,1.24,47,.69,70.42-.26,11.18-3.26,22.31-5.08,33.45-1.9,11.65-3.86,23.28-5.79,34.92l-7.25.05q-.29-27.45-.58-54.9c.32-13.73-2.43-27.24-3.06-40.91a76.18,76.18,0,0,0-6-26.54c-1.43-3.33-3-6.71-2.94-10.48C110.09,269.3,120,266.77,129.61,263Z"/><path class="m" d="M111.6,347q.29,27.45.58,54.9c-1.81,1.42-3.62.39-5.44,0-.73-2.51-1.78-4.75-4.68-5.39q3.9-23.41,7.79-46.83C110,348.5,110.16,347.28,111.6,347Z"/><path class="m" d="M347.87,384.64c8.19,3.2,16.05,6.86,20.78,14.89a241.49,241.49,0,0,1-27.19,3.19A24.43,24.43,0,0,0,347.87,384.64Z"/><path class="o" d="M372.54,390.9c-1.32-3.75-2.54-7.53-4-11.23-1.85-4.75-3.09-10.23-10.33-9.38,1-2.41,4-.55,4-2.71,0-1.3-1.15-2.68-2-3.89-14.31-20.57-30.16-39.79-49.09-56.33a12.49,12.49,0,0,1-1.45-2c2.81-.1,4.09,1.52,5.38,2.78,5.25,5.11,10.47,10.26,15.53,15.55,1.64,1.71,2.91,2.77,5.1.11-.95,4.08.92,6.57,3.13,9.14,8.67,10.12,17.13,20.42,24.2,31.75a75.86,75.86,0,0,1,10.46,25.16Z"/><path class="p" d="M391.52,396.75c1.32-5.32,2.42-10.7,4-15.92a13.11,13.11,0,0,0,.08-8.59c4.81.6,3.67-3.83,4.66-6,3.77-8.31,6.84-16.92,10.53-25.27,5.09-11.53,14.29-19,25.39-24.29.68-.32,1.42-1,2.76.5-12,5.82-22.3,13.25-27.12,26.14,1.33,1.14,3.13-.13,4.91,2-7.78.07-8.66,6.22-10.69,11.24a237.48,237.48,0,0,0-11.61,34.92c-1,4.18.19,5.32,4,5.14C396.17,398.25,393.85,397.79,391.52,396.75Z"/><path class="m" d="M172.67,166.89c-5.33,7.75-9.74,16.24-18,21.56-1.85,1.18-3.51,2.5-5.82,2.44q-.18-3.42-.34-6.83c7.85-3.15,14.57-7.73,19.49-14.81a11.23,11.23,0,0,1,4.74-4.3Z"/><path class="m" d="M387,385.4q1.1,5.67,2.18,11.35l-4.44.38C384.21,393,386,389.26,387,385.4Z"/><path class="q" d="M102.06,396.46c2.9.64,4,2.88,4.68,5.39l-5.23-.17C101.69,399.94,101.88,398.2,102.06,396.46Z"/><path class="r" d="M339.31,75.91l-190.49,0c0-9-.25-18-.11-27a12,12,0,0,1,11.65-12c13.82-.22,27.65,0,41.48-.13,2.51,0,3.63,1,3.89,3.41.17,1.64.75,3.24,1.08,4.87.69,3.45,2.56,4.92,6.28,4.9,20.49-.14,41-.18,61.47,0,4.27,0,5.92-1.78,6.84-5.53,1.88-7.65,2-7.63,9.85-7.63,11.66,0,23.33-.06,35,0,7.78.06,13,4.91,13.17,12.65C339.62,58.26,339.37,67.09,339.31,75.91Z"/><path class="m" d="M238.51,39.17c.33-3.16,1.84-5.27,5.25-5.36,3.57-.09,5.72,1.91,5.73,5.38s-2.27,5.57-5.69,5.49C240.57,44.61,238.82,42.47,238.51,39.17Z"/><path class="s" d="M172.67,166.89l.06-1.94c2.94-4.11,6.82-7.63,8-12.82a8.15,8.15,0,0,0,5-2.22c45.58,0,91.16,0,136.74-.12,4.31,0,5.25,1.4,5.19,5.41-.18,11.78,0,11.77-11.74,11.76Zm109.76-5h33.94c2.14,0,4.05-.28,4.23-3,.19-3-1.84-3.56-4.14-3.82a16.5,16.5,0,0,0-2,0H250.09c-2.51,0-5.33-.37-5.39,3.39s2.78,3.49,5.29,3.5Z"/><path class="f" d="M130.73,189c.69,11.43-2.09,22.55-3.09,33.82-2.11-3.61-.92-7.73-1.67-11.6-1.1-5.65-2.6-11.05-5.69-15.77-2-3.09-.49-3.55,1.82-4.18C125,190.46,127.85,189.71,130.73,189Z"/><path class="h" d="M185.71,149.91a8.15,8.15,0,0,1-5,2.22l-4.16-5.29c2-3.61,6.22-4.48,9-7.1l1.89,1.53C184.53,143.65,186.06,147,185.71,149.91Z"/><path class="s" d="M161.69,154.81c-.68-8.08,5.45-3.92,8.74-4.87C167.88,152.21,165.16,154.19,161.69,154.81Z"/><path class="t" d="M381.43,270.93c.39,18.46.48,36.91-.64,55.44-1.82-3.6.54-8.41-5.49-11.61,5.44.6,5.22-1.83,5.18-4.23q-.25-18.39-.47-36.78C380.48,272.81,381,271.87,381.43,270.93Z"/><path class="o" d="M381.43,270.93c-.48.94-.95,1.88-1.42,2.82-1-9.66-2.07-19.32-3.15-29.37,3.19,1.18-.53,10.14,7.58,3.62C377.43,255.75,382.42,263.61,381.43,270.93Z"/><path class="o" d="M379.59,338.81a56.06,56.06,0,0,1-1.21,12.05h-1.55c.65-4.07-.84-8.64,2.8-12Z"/><path class="t" d="M376.83,350.86h1.55l-.84,15.63c-1.16-1-.71-2.51-1.24-3.71Q376.56,356.81,376.83,350.86Z"/><path class="o" d="M379.63,338.85l.18-1,.42.23c-.21.24-.43.47-.64.7Z"/><path class="u" d="M309,320.51c-17.27,24.87-41.12,37.27-71.23,34.83-30.33-2.47-52.68-18.41-64.71-46.36-12.43-28.89-8.42-56.75,12-80.77,20.71-24.35,47.65-32,78.81-25,3.52.78,3.87,2.15,2.79,5.41-7.25,21.91-14.28,43.88-21.38,65.84-.3.92-.93,1.79-.26,3.23q20.58-9.18,41.14-18.36c8.34-3.71,16.79-7.2,25-11.1,3.06-1.44,4.2-.77,5.29,2.24a79.68,79.68,0,0,1,2.79,46.61c-5.49-.1-11-.28-15.78,3.13s-5.2,7.82-.58,11.78C305.66,314.32,309,316.21,309,320.51Z"/><path class="s" d="M318.26,236.55c0,1.46-1,1.85-2.14,2.34q-29.16,12.9-58.3,25.83c-.83.36-1.77,1.33-2.71.42s-.16-1.85.13-2.78Q265,232,274.75,201.72c.64-2,1.57-2.66,3.61-1.79a79.18,79.18,0,0,1,39.45,35.73C318,236,318.11,236.25,318.26,236.55Z"/><path class="v" d="M187.52,141.27l-1.89-1.53a118.74,118.74,0,0,0-21.59-13c-1.44-.68-2.84-1-3-2.76a2.39,2.39,0,0,1,1.48-2.39c1.76-.89,2.51.5,3.77,1.33,6.65,4.37,13.4,8.6,20.27,12.62,1.87,1.09,4.14.47,6.28-.29q35.44-12.56,70.93-25a9.58,9.58,0,0,0,3.5-1.77c1.63-1.48,3.22-1.41,4.53.64,2.67,4.15,7.08,6.47,10.51,9.82,1.65,1.61,3.7,1.43,5.62.69,11.58-4.47,23.88-7,35-12.74a2.71,2.71,0,0,1,3.23.21,2.5,2.5,0,0,1,.71,2.73c-.35,1.29-1.33,1.67-2.57,2a207.55,207.55,0,0,0-38.44,13c-1.82.83-3.1.82-4.19-1-2.6-4.22-7.11-6.41-10.46-9.84-1.63-1.66-3.61-1.44-5.58-.74q-36.4,12.81-72.81,25.58C190.91,139.47,189.84,141.71,187.52,141.27Z"/><path class="w" d="M312.51,373.8c-8.49,0-17,0-25.49.08-2.76,0-4.11-.18-3.68-3.75.85-7.22.55-7.27,7.88-7.25,7.16,0,14.32.09,21.48.14Q312.61,368.41,312.51,373.8Z"/><path d="M312.51,373.8q.11-5.4.19-10.78c.65,0,1.31,0,2,0,6.52,0,8.93,3.37,6.91,9.53-.42,1.28-1.19,1.38-2.18,1.38C317.1,373.88,314.8,373.83,312.51,373.8Z"/><path class="l" d="M282.43,161.87H250c-2.51,0-5.34.29-5.29-3.5s2.88-3.39,5.39-3.39h64.38a16.5,16.5,0,0,1,2,0c2.3.26,4.33.82,4.14,3.82-.18,2.76-2.09,3-4.23,3Z"/></svg>