<svg xmlns="http://www.w3.org/2000/svg" viewBox="0 0 40.14 40"><title>Asset 71</title><path d="M40.14,15.86v.7c-.08,0-.09.09-.12.14a1.25,1.25,0,0,1-2,.4l-.4-.32V31.3c0,.21,0,.42,0,.62,0,1.62,0,3.25,0,4.87a3.85,3.85,0,0,1-2.59,3c-.2.08-.43,0-.6.18H5.57c0-.06-.06-.08-.11-.09A4,4,0,0,1,2.91,38a6.83,6.83,0,0,1-.35-1.11c0-.28,0-.57,0-.85,0-1.54,0-3.08,0-4.62V22.83c0-.13,0-.26,0-.39,0-.36,0-.73,0-1.09a1.26,1.26,0,0,1,.75-1.3,1.27,1.27,0,0,1,1.52.36A2.08,2.08,0,0,1,5,21.58V35.69a5.61,5.61,0,0,0,0,.58,1.22,1.22,0,0,0,1.19,1.21c.93,0,1.87,0,2.8,0h1.49c.6,0,1.2,0,1.8,0,.19,0,.25-.06.24-.24,0-.6,0-1.2,0-1.81V26.91c0-1,0-2.06,0-3.09a3.77,3.77,0,0,1,3.89-3.89H21c.77,0,1.54,0,2.3,0a4.68,4.68,0,0,1,2.54.57l.88.77a3.91,3.91,0,0,1,.86,2.21c0,.75,0,1.5,0,2.25v8.55c0,1,0,2,0,3,0,.18.05.24.24.24.79,0,1.57,0,2.35,0h1.49c.75,0,1.49,0,2.23,0a1.24,1.24,0,0,0,1.22-1.22c0-.74,0-1.49,0-2.23V18.45c0-1.21,0-2.41,0-3.61a.31.31,0,0,0-.14-.29L34,13.79a5.68,5.68,0,0,0-.8-.67c-1-.87-2-1.72-3.05-2.53a4.55,4.55,0,0,0-.75-.63c-1-.86-2-1.69-3-2.5a5.82,5.82,0,0,0-.85-.71c-1-.86-2-1.69-3-2.5a7.86,7.86,0,0,0-.94-.79L21.15,3c-.85-.72-1.31-.71-2.16,0L8.31,11.93,3.76,15.76c-.5.4-1,.79-1.5,1.22a1.45,1.45,0,0,1-1.54.35,1.29,1.29,0,0,1-.1-2.26l12-10c1.32-1.1,2.62-2.21,3.93-3.31.6-.42,1.12-.95,1.74-1.34l.14,0a3.74,3.74,0,0,1,4.09.53c.33.25.65.52,1,.78a8.13,8.13,0,0,0,.9.75L27.34,4.9a6.65,6.65,0,0,0,.87.72l2.52,2.14c0-.82,0-1.54,0-2.27A1.24,1.24,0,0,1,32,4.26a1.27,1.27,0,0,1,1.24,1.21c0,.17,0,.34,0,.51V7.47c0,.73,0,1.46,0,2.19a.35.35,0,0,0,.14.3c.56.44,1.11.9,1.66,1.35a5.86,5.86,0,0,0,.86.72c1,.86,2,1.68,3,2.49C39.32,15,39.9,15.25,40.14,15.86ZM24.62,37.48c.48,0,.48,0,.46-.46V28.48c0-1.61,0-3.21,0-4.82a.74.74,0,0,0-.16-.51,1.1,1.1,0,0,0-1.1-.69h-7a1.56,1.56,0,0,0-1.37.36,1.61,1.61,0,0,0-.34,1.35v8.54c0,1.28,0,2.56,0,3.84,0,1,0,1,1,.93h8.55Z"/><path d="M17.64,30.44a1.27,1.27,0,0,1,1.65-1.65,1.3,1.3,0,0,1,.76,1.4,1.22,1.22,0,0,1-.93,1,1.19,1.19,0,0,1-1.26-.42A2.27,2.27,0,0,1,17.64,30.44Z"/></svg>