<svg viewBox="0 0 346.86 260" xmlns="http://www.w3.org/2000/svg"><path d="m291.59 63c8.67 0 17.36-.27 26 .09 8 .32 15.67 2.27 21.55 8.41 4.33 4.53 5.52 10.32 6.39 16.18 1.5 10.05 1.31 20.19 1.3 30.32 0 35.44.07 70.89-.08 106.33a54.76 54.76 0 0 1 -4.12 21.24c-3.63 8.6-10.73 11.65-19.11 13-9.53 1.59-19.14 1.29-28.73 1.29q-99.84 0-199.66.06c-10.88 0-21.26-1.17-30.37-7.73-5.23-6.28-7.44-13.81-7.47-21.69q-.27-69.66 0-139.32c0-8.23 2.27-16.17 9.1-21.78 6-4.94 13.37-6.36 20.79-6.37q102.22-.12 204.41-.03zm-19.32 73c9.72 8.95 23.75 8.44 33.34-1.21 9.39-9.43 9.34-24-.11-33.9a24 24 0 0 0 -33.2-1 3.64 3.64 0 0 1 -1.87-1.11c-7.67-6.25-19.07-6.76-27.89-1.25-8.19 5.12-12.81 16.11-10.62 25.31 3.23 13.61 16.1 22 28.8 18.92 4.28-1.04 7.78-3.63 11.55-5.71zm-163.27 80.79c4.23 0 8.46.07 12.69 0 2.93-.06 6.73 1.27 8.57-.53 2-1.94.38-5.82.71-8.82.25-2.27-.7-2.86-2.87-2.84-10.36.1-20.72 0-31.08 0-9.64 0-9.58 0-9.31 9.7.06 2 .7 2.53 2.59 2.51 6.2-.07 12.44-.02 18.7-.02zm62 0c4.12 0 8.24.07 12.35 0 2.93-.07 6.73 1.27 8.57-.53 2-2 .37-5.82.7-8.83.25-2.27-.7-2.85-2.87-2.83-10.35.1-20.7 0-31.05 0-9.66 0-9.6 0-9.31 9.7.06 2 .71 2.53 2.6 2.51 6.26-.07 12.6-.02 18.94-.02zm61.43 0h12.36c9.92 0 9.92 0 9.42-9.84 0-.1 0-.21 0-.31.14-1.5-.56-2-2-2q-19.48 0-39 0c-1.69 0-2.23.66-2.17 2.26.08 2.43.14 4.86 0 7.28-.13 2.11.67 2.73 2.73 2.69 6.13-.15 12.36-.08 18.59-.08zm61.77 0c4.12 0 8.24.07 12.35 0 2.94-.06 6.73 1.26 8.58-.52 2-1.94.38-5.81.71-8.82.25-2.24-.65-2.87-2.85-2.85-10.35.1-20.7 0-31.05 0-9.66 0-9.6 0-9.33 9.68.06 1.95.67 2.55 2.58 2.53 6.26-.07 12.6-.02 18.94-.02z" fill="#dee2e5"/><path d="m291.59 63q-102.19 0-204.37.08c-7.42 0-14.78 1.43-20.79 6.37-6.83 5.64-9.06 13.55-9.1 21.81q-.33 69.66 0 139.32c0 7.88 2.24 15.41 7.47 21.69-14.64 1.33-23-7.15-27.16-19.49-3.49-10.26-5.89-20.91-8.7-31.4q-13.05-48.6-26-97.21a79.72 79.72 0 0 1 -2.88-15.85c-.79-13 6.64-21.73 17.48-25.83 11.06-4.19 22.73-6.42 34.12-9.49q56.52-15.3 113.11-30.33c26.9-7.18 53.8-14.38 80.77-21.34 8.16-2.11 16.29-2.15 23.67 3.18 5 3.59 7.86 8.59 9.88 14.07 5.33 14.48 8.65 29.54 12.5 44.42z" fill="#aeb8cb"/><path d="m272.27 136.05c-3.77 2.08-7.25 4.67-11.55 5.72-12.7 3.11-25.57-5.31-28.8-18.92-2.19-9.2 2.43-20.19 10.62-25.31 8.82-5.51 20.22-5 27.89 1.25a3.64 3.64 0 0 0 1.87 1.11c.68.93 1.37 1.85 2 2.78 5.05 7 7.42 14.53 4.54 23.11-1.31 3.99-4.18 6.96-6.57 10.26z" fill="#fecd48"/><path d="m272.27 136.05c2.39-3.3 5.26-6.27 6.61-10.26 2.88-8.58.51-16.1-4.54-23.11-.67-.93-1.36-1.85-2-2.78a24 24 0 0 1 33.2 1c9.45 9.94 9.5 24.47.11 33.9-9.65 9.69-23.65 10.2-33.38 1.25z" fill="#fe4636"/><g fill="#999"><path d="m109 216.79c-6.23 0-12.47 0-18.7 0-1.89 0-2.53-.54-2.59-2.51-.27-9.7-.33-9.7 9.31-9.7 10.36 0 20.72.06 31.08 0 2.17 0 3.12.57 2.87 2.84-.33 3 1.3 6.88-.71 8.82-1.84 1.8-5.64.47-8.57.53-4.26.09-8.49.02-12.69.02z"/><path d="m170.93 216.79c-6.34 0-12.68 0-19 0-1.89 0-2.54-.54-2.6-2.51-.29-9.7-.35-9.7 9.31-9.7 10.35 0 20.7.06 31.05 0 2.17 0 3.12.56 2.87 2.83-.33 3 1.3 6.88-.7 8.83-1.84 1.8-5.64.46-8.57.53-4.12.09-8.24.02-12.36.02z"/><path d="m232.36 216.79c-6.23 0-12.46-.07-18.69 0-2.06 0-2.86-.58-2.73-2.69.16-2.42.1-4.85 0-7.28-.06-1.6.48-2.26 2.17-2.26q19.49.08 39 0c1.48 0 2.18.53 2 2v.31c.5 9.84.5 9.84-9.42 9.84z"/><path d="m294.13 216.79c-6.34 0-12.68 0-19 0-1.91 0-2.52-.58-2.58-2.53-.27-9.68-.33-9.68 9.33-9.68 10.35 0 20.7.06 31.05 0 2.2 0 3.1.61 2.85 2.85-.33 3 1.3 6.88-.71 8.82-1.85 1.78-5.64.46-8.58.52-4.12.09-8.24.02-12.36.02z"/></g></svg>