<?xml version="1.0" encoding="utf-8"?>
<!-- Generator: Adobe Illustrator 23.1.1, SVG Export Plug-In . SVG Version: 6.00 Build 0)  -->
<svg version="1.1" id="Layer_1" xmlns="http://www.w3.org/2000/svg" xmlns:xlink="http://www.w3.org/1999/xlink" x="0px" y="0px"
	 viewBox="0 0 44 44" style="enable-background:new 0 0 44 44;" xml:space="preserve">
<g>
	<path d="M22,34.3c-4.9,0-9.9,0-14.8,0c-2.1,0-3.7-1.3-4-3.3c0-0.2,0-0.5,0-0.7c0-5.5,0-11,0-16.5c0-2.3,1.7-4,4-4
		c9.9,0,19.8,0,29.8,0c2.3,0,4,1.7,4,3.9c0,5.6,0,11.2,0,16.8c0,2.3-1.7,3.9-4,3.9C31.9,34.3,26.9,34.3,22,34.3z M40,17.3
		c-12,0-24,0-36,0c0,0.2,0,0.4,0,0.6c0,4.1,0,8.1,0,12.2c0,2,1.3,3.3,3.3,3.3c9.8,0,19.7,0,29.5,0c0.3,0,0.7,0,1-0.1
		c1.4-0.3,2.3-1.5,2.3-3.1c0-4.2,0-8.3,0-12.5C40,17.6,40,17.5,40,17.3z M40,16.4c0-0.7,0-1.4,0-2.1c0-0.4,0-0.9-0.1-1.3
		c-0.3-1.5-1.5-2.4-3.2-2.4c-6.8,0-13.6,0-20.4,0c-3.1,0-6.1,0-9.2,0c-1.9,0-3.2,1.3-3.2,3.2c0,0.7,0,1.5,0,2.2c0,0.1,0,0.3,0,0.4
		C16,16.4,28,16.4,40,16.4z"/>
	<path d="M20.7,30.4c-0.3,0-0.6,0-0.9,0c0-0.1,0-0.3,0-0.4c-0.1-1.8-1-3.2-2.5-4.1c-0.3-0.2-0.4-0.1-0.7,0c-1.2,0.8-2.7,0.8-3.9,0
		c-0.3-0.2-0.4-0.2-0.7,0c-1.5,0.9-2.3,2.3-2.5,4c0,0.1,0,0.3,0,0.4c-0.3,0-0.6,0-0.9,0c0.1-2.4,1.1-4.2,3.2-5.4
		c-0.6-0.9-0.7-1.9-0.4-3c0.2-0.7,0.7-1.3,1.4-1.8c1.3-0.9,3-0.7,4.1,0.3c1,0.9,1.7,2.6,0.6,4.5c1,0.5,1.7,1.3,2.3,2.2
		C20.4,28.3,20.7,29.3,20.7,30.4z M14.7,20.6c-1.4,0-2.5,1.1-2.5,2.5c0,1.4,1.1,2.6,2.5,2.6c1.4,0,2.6-1.1,2.6-2.5
		C17.2,21.7,16.1,20.6,14.7,20.6z"/>
	<path d="M31.2,23.1c1.6-1.3,3.5-0.9,4.4,0.2c1,1.1,1.1,2.9,0,4.1c-1.1,1.3-2.8,1.4-4.5,0.2c-1.9,1.2-3.4,1.1-4.5-0.3
		c-1-1.2-1-2.9,0.1-4.1C27.9,22,29.5,21.9,31.2,23.1z M31.2,26c0.4,0.7,0.9,1.2,1.6,1.4c0.8,0.2,1.5,0,2.1-0.5
		c0.9-0.8,0.9-2.3,0-3.2c-0.4-0.4-1-0.6-1.6-0.6c-1,0-1.6,0.6-2.1,1.5c-0.2-0.3-0.4-0.5-0.6-0.7c-0.8-0.9-2.3-1-3.2-0.1
		c-0.9,0.9-0.8,2.4,0.1,3.2c0.9,0.9,2.4,0.7,3.2-0.3C30.9,26.5,31,26.3,31.2,26z"/>
</g>
</svg>
