<?xml version="1.0" encoding="utf-8"?>
<!-- Generator: Adobe Illustrator 23.1.1, SVG Export Plug-In . SVG Version: 6.00 Build 0)  -->
<svg version="1.1" id="Layer_1" xmlns="http://www.w3.org/2000/svg" xmlns:xlink="http://www.w3.org/1999/xlink" x="0px" y="0px"
	 viewBox="0 0 44 44" style="enable-background:new 0 0 44 44;" xml:space="preserve">
<g id="DBNd2V.tif">
	<g>
		<path d="M41.8,11.8c-0.1,0.7-0.3,1.5-0.4,2.2c0,0.2-0.1,0.5-0.1,0.8c-9.3-2-18.7-3.9-28-5.9c0.1-0.5,0.1-0.9,0.2-1.3
			c0.1-0.5,0.1-0.9,0.2-1.4c0.2-1.3,1.2-2,2.4-1.7c3.6,0.8,7.3,1.5,10.9,2.3c4.3,0.9,8.7,1.8,13,2.7c0.9,0.2,1.5,0.7,1.8,1.6
			C41.8,11.3,41.8,11.5,41.8,11.8z"/>
		<path d="M12.2,13c3.5,0.7,7,1.5,10.5,2.2c0.2,0,0.5,0,0.7,0c1.5-0.4,2.9-0.8,4.4-1.2c0.9-0.2,1.8,0.3,2.2,1.2
			c0.2,0.4,0.3,0.9,0.4,1.4c0.1,0.3,0.2,0.4,0.4,0.4c3,0.6,6,1.3,8.9,1.9c0.2,0,0.3,0.1,0.5,0.1c-0.2,1-0.4,1.9-0.6,2.9
			c-0.4,1.7-0.7,3.4-1.1,5.1c-0.3,1.3-1.2,1.8-2.5,1.6c-0.8-0.2-1.6-0.3-2.5-0.5c0.2,0.9,0.5,1.7,0.7,2.5c0.2,0.8,0.1,1.6-0.6,2.1
			c-0.3,0.2-0.6,0.4-1,0.5c-5.9,1.6-11.8,3.3-17.7,4.9c-2,0.6-4,1.1-6,1.7c-1.3,0.4-2.3-0.2-2.6-1.5C5,33.1,3.6,28.2,2.3,23.3
			C1.9,22,2.5,21,3.7,20.7c2.3-0.6,4.6-1.3,6.9-1.9c0.3-0.1,0.4-0.2,0.5-0.5c0.3-1.6,0.7-3.3,1-4.9C12.2,13.2,12.2,13.1,12.2,13z
			 M5.5,29c0,0.2,0.1,0.3,0.1,0.4c0.8,2.7,1.5,5.5,2.3,8.2C8,38.1,8.1,38.2,8.7,38c7.9-2.2,15.7-4.4,23.6-6.6
			c0.6-0.2,0.6-0.2,0.4-0.8c-0.5-1.7-1-3.5-1.4-5.2c-0.3-1.1-0.6-2.2-0.9-3.4C22,24.4,13.8,26.7,5.5,29z M29.4,18.7
			c-0.3-0.9-0.5-1.8-0.7-2.7c-0.1-0.5-0.2-0.6-0.8-0.4c-7.7,2.1-15.5,4.3-23.2,6.4c-1.1,0.3-1,0.2-0.7,1.3c0.2,0.8,0.4,1.5,0.6,2.3
			C12.9,23.3,21.1,21,29.4,18.7z M32.9,23c0,0.6,0.2,0.9,0.7,1c0.9,0.2,1.8,0.4,2.7,0.6c0.5,0.1,0.9-0.1,1-0.6
			c0.2-0.9,0.4-1.8,0.6-2.8c0.1-0.4-0.1-0.8-0.5-0.9c-1-0.2-2-0.4-3-0.6c-0.4-0.1-0.7,0.1-0.8,0.5C33.3,21.2,33.1,22.2,32.9,23z"/>
		<path d="M7.9,32.5c0-0.4,0.2-0.6,0.6-0.7c0.9-0.3,1.9-0.5,2.8-0.8c0.4-0.1,0.8,0.1,1,0.6c0.3,0.9,0.5,1.8,0.8,2.8
			c0.1,0.5-0.1,0.9-0.6,1c-0.9,0.3-1.8,0.5-2.7,0.8c-0.5,0.1-0.9,0-1-0.5c-0.3-0.9-0.5-1.9-0.8-2.9C7.9,32.7,7.9,32.6,7.9,32.5z"/>
	</g>
</g>
</svg>
