<svg xmlns="http://www.w3.org/2000/svg" viewBox="0 0 35.88 38"><circle cx="12.76" cy="33.87" r="4.13" transform="translate(-20.21 18.94) rotate(-45)"/><path d="M28.28,29.74a4.13,4.13,0,1,0,4.13,4.13A4.13,4.13,0,0,0,28.28,29.74Z"/><path d="M35.88,7.31H8.37L8.16,6A7.21,7.21,0,0,0,.94,0H.86A.87.87,0,0,0,0,.86a.86.86,0,0,0,.86.85H.94A5.55,5.55,0,0,1,6.48,6.27l2.8,16.59a5.12,5.12,0,0,0,5.12,4.21H31.59a.86.86,0,1,0,0-1.71H14.4A3.39,3.39,0,0,1,11,22.53l-.47-2.75H29.91a3.45,3.45,0,0,0,3.31-2.5l1.37-4.81H9.28L9,10.75H35.06Z"/></svg>