<?xml version="1.0" encoding="utf-8"?>
<svg version="1.1" xmlns="http://www.w3.org/2000/svg" xmlns:xlink="http://www.w3.org/1999/xlink" x="0px" y="0px" viewBox="0 0 16 16" style="enable-background:new 0 0 16 16;" xml:space="preserve">
<style type="text/css"> .st0{fill:#fff;}</style>
<path class="st0" d="M9.5,7.9L14,3.4c0.9-0.9,0.7-1.4,0.4-1.8c-0.5-0.5-1.3-0.4-1.9,0.3L8,6.4L3.4,1.9C3,1.5,2.6,1.3,2.2,1.4
	C2,1.4,1.8,1.5,1.6,1.7C1.3,2.2,1.4,2.9,1.9,3.4l4.5,4.5l-4.5,4.5c-0.4,0.4-0.6,0.8-0.5,1.2c0,0.2,0.1,0.4,0.3,0.5
	c0.4,0.4,1.2,0.2,1.8-0.4L8,9.4l4.7,4.7c0.3,0.3,0.8,0.5,1.1,0.5c0,0,0.1,0,0.1,0c0.2,0,0.4-0.1,0.6-0.3c0.4-0.5,0.3-1.2-0.3-1.7
	L9.5,7.9z"/>
</svg>
