<svg xmlns="http://www.w3.org/2000/svg" viewBox="0 0 127.1 148.55"><defs><style>.a{fill:#292ade;}.b{fill:#d8e7fd;}.c{fill:#f9fbfd;}.d{fill:#b5d2fc;}.e{fill:#2b66df;}</style></defs><title>Asset 1</title><path class="a" d="M111.13,136.57l-1.69,1.17-22,3.06-3,.33a2.25,2.25,0,0,0-2.23.49q-21.42,2.48-42.84,5c-4.75.56-9.47,1.56-14.24,1.86-9.86.61-11.61-1-12.79-10.65a4,4,0,0,0-.38-3.14c-.15-.63-.31-1.26-.47-1.89L5,78.65c-.19-1.62-.38-3.24-.56-4.87.2-1.68.35-3.36-.91-4.77,0-.43-.06-.85-.1-1.28-1-9.17-2-18.34-2.88-27.53-.32-3.37-1.46-6.91,1-10l1.93-.84L4.7,28.9a.68.68,0,0,0,.75-.07c1,0,2,0,3,.14,1.34.19,3.49-1,3.78,1.07s-2,1.75-3.33,2.13a6,6,0,0,1-2,.24c-3.23-.21-4.06,1.42-3.51,4.32.24,1.3.15,2.66.31,4q6.11,49,12.23,98.06c.78,6.2,1.49,6.93,7.5,6.23,21.15-2.47,42.29-5.05,63.43-7.62,6.6-.8,13.2-1.64,19.77-2.59,5-.73,3.7-4.61,3.74-7.82,0-2.77-1-4.14-3.93-3.26-3.66-.07-7.32-.18-11-.19-19.65,0-39.31,0-59,0-7.47,0-8-.64-8.1-7.89,0-4.5,0-9-.05-13.49l-.24-66.42a63.18,63.18,0,0,0,.11-13c.06-5.81.25-11.62.14-17.42-.06-3.61,1.54-5.24,5-5.25Q67.24,0,101.09,0c2.56,0,4.29,1.36,6,3.07,5.14,5.18,10.37,10.28,15.57,15.41,3.85,3.35,4.58,7.63,4.44,12.57-.3,11.15-.15,22.31-.15,33.46q0,26.24.07,52.46c0,4.58-2.26,6.7-6.78,6.57a22.92,22.92,0,0,1-2.49,0c-3.42-.51-5.07.49-4.16,4.28A9.4,9.4,0,0,1,111.13,136.57ZM103.56,5c0,5.57,0,9.87,0,14.16,0,3,1.41,4.22,4.31,4.13s5.66,0,8.49,0c1.19,0,2.53.07,2.7,1.57s-1.21,1.88-2.34,1.89a87.36,87.36,0,0,1-11-.17c-3.6-.39-5.53-2.78-5.55-6.52,0-4.33-.19-8.67,0-13,.13-2.88-.47-4.12-3.76-4.1q-30.23.23-60.45,0c-3.53,0-4.59,1.27-4.58,4.68q.12,54,0,107.92c0,3.59,1.3,4.46,4.7,4.44q41.21-.18,82.43,0c4.2,0,5.36-1.3,5.34-5.41-.16-28.47-.08-56.95-.12-85.43,0-1.77.53-3.74-1-5.23C116.67,17.86,110.55,11.84,103.56,5Z"/><path class="b" d="M28.23,22.74a63.18,63.18,0,0,1-.11,13c-4.46.24-8.89.07-13.39.81s-5.24,2.85-5.37,6.72c-.3,8.85,1,17.62,2.48,26.17,2.89,16.65,3.89,33.45,6.12,50.32,1-.32.18-3.66,2.41-2.19,1.59,1.06,1.19,2.67-.24,3.74a3.16,3.16,0,0,0-1.52,3.37c.65,3.73,1.16,7.5,1.89,11.22.52,2.66,2.21,5.09,4.94,4.53,3.32-.69,6.61-.39,9.89-.79,13.26-1.58,26.35-4.64,39.78-4.9.75,0,1.79.67,2.32-.82,1.26-3.55,1.45-3.69,4.4-2.09,1.59.86,3.15.75,4.77,1,4,.66,7.6-1.66,11.71-1.2,6.48.72,8.1-1.21,8.13-7.91,2.94-.88,4,.49,3.93,3.26,0,3.21,1.25,7.09-3.74,7.82-6.57,1-13.17,1.79-19.77,2.59C65.72,140,44.58,142.53,23.43,145c-6,.7-6.72,0-7.5-6.23Q9.81,89.73,3.7,40.71c-.16-1.32-.07-2.68-.31-4-.55-2.9.28-4.53,3.51-4.32a6,6,0,0,0,2-.24c1.35-.38,3.61-.15,3.33-2.13S9.77,29.16,8.43,29c-1-.13,6.22-1.37,8.1-1.16-.5,1-1.56,2.31,0,2.9,2.53,1,5.15.09,7.6-.72,1.61-.53.81-1.8.26-2.81C24.18,24.42,24.75,22.31,28.23,22.74Z"/><path class="a" d="M24.35,27.18c.55,1,1.35,2.28-.26,2.81-2.45.81-5.07,1.7-7.6.72-1.52-.59-.46-1.92,0-2.9a1.32,1.32,0,0,0,.89-.17,7.8,7.8,0,0,0,5.12-.58Z"/><path class="b" d="M4.7,28.9l-1.23.42Z"/><path class="c" d="M103.56,5c7,6.89,13.11,12.91,19.21,19,1.51,1.49,1,3.46,1,5.23,0,28.48,0,57,.12,85.43,0,4.11-1.14,5.43-5.34,5.41q-41.22-.25-82.43,0c-3.4,0-4.71-.85-4.7-4.44q.13-54,0-107.92c0-3.41,1.05-4.7,4.58-4.68q30.23.18,60.45,0c3.29,0,3.89,1.22,3.76,4.1-.2,4.31,0,8.65,0,13,0,3.74,1.95,6.13,5.55,6.52a87.36,87.36,0,0,0,11,.17c1.13,0,2.52-.28,2.34-1.89s-1.51-1.57-2.7-1.57c-2.83,0-5.66-.06-8.49,0s-4.34-1.16-4.31-4.13C103.6,14.82,103.56,10.52,103.56,5ZM76.94,82.38v0c9.66,0,19.32,0,29,0,1.55,0,4,.47,4.1-1.66.13-2.42-2.38-1.72-3.85-1.72q-28.74-.06-57.46,0c-1.44,0-4-.88-3.83,1.7.12,2.24,2.55,1.65,4.08,1.66C58.29,82.41,67.61,82.38,76.94,82.38Zm.82-38.33v0c9.33,0,18.66,0,28-.05,1.6,0,4.5,1.09,4.41-1.54-.07-2.06-2.93-1.46-4.64-1.47q-28-.06-56,0c-1.69,0-4.54-.79-4.64,1.45C44.79,45,47.7,44,49.27,44,58.76,44.11,68.26,44.05,77.76,44.05Zm.17,15.87c-9.63,0-19.27,0-28.9,0-1.52,0-4-.69-4.09,1.56s2.38,1.73,3.87,1.73q28.65,0,57.31-.11c1.48,0,4,.82,3.83-1.65-.12-2.21-2.58-1.52-4.1-1.53C96.54,59.89,87.24,59.92,77.93,59.92ZM65.29,23.22c-5.83,0-11.66,0-17.49,0-1.26,0-3-.18-3,1.73,0,1.54,1.53,1.64,2.62,1.64,11.66,0,23.33,0,35,0,1.18,0,2.69-.16,2.79-1.46.14-1.81-1.55-1.87-2.89-1.88C76.62,23.21,71,23.23,65.29,23.22ZM65,98.06c-5.83,0-11.66,0-17.49,0-1.16,0-2.58,0-2.65,1.55s1.39,1.71,2.54,1.72q17.48.06,35,0c1.3,0,3.06,0,2.86-1.89s-2-1.36-3.24-1.37C76.3,98,70.64,98.07,65,98.06Z"/><path class="d" d="M106.44,123.71c0,6.7-1.65,8.63-8.13,7.91-4.11-.46-7.69,1.86-11.71,1.2-.81-.13-10.74,1.88-11.49,1.89-13.43.26-26.52,3.32-39.78,4.9-3.28.4-6.57.1-9.89.79-2.73.56-4.42-1.87-4.94-4.53-.73-3.72-1.24-7.49-1.89-11.22-.27-1.52-3.88-38.59-6.77-55.24-1.48-8.55-2.78-17.32-2.48-26.17.13-3.87,1-6,5.37-6.72s8.93-.57,13.39-.81l.24,66.42c0,4.5,0,9,.05,13.49.05,7.25.63,7.88,8.1,7.89,19.65,0,39.31,0,59,0C99.12,123.53,102.78,123.64,106.44,123.71Z"/><path class="e" d="M76.94,82.38c-9.33,0-18.65,0-28,0-1.53,0-4,.58-4.08-1.66-.14-2.58,2.39-1.69,3.83-1.7q28.73-.1,57.46,0c1.47,0,4-.7,3.85,1.72-.1,2.13-2.55,1.65-4.1,1.66-9.66.06-19.32,0-29,0Z"/><path class="e" d="M77.76,44.05c-9.5,0-19,.06-28.49-.06-1.57,0-4.48,1-4.37-1.57.1-2.24,3-1.44,4.64-1.45q28-.07,56,0c1.71,0,4.57-.59,4.64,1.47.09,2.63-2.81,1.52-4.41,1.54-9.33.1-18.66.05-28,.05Z"/><path class="e" d="M77.93,59.92c9.31,0,18.61,0,27.92,0,1.52,0,4-.68,4.1,1.53.14,2.47-2.35,1.64-3.83,1.65q-28.65.12-57.31.11c-1.49,0-4,.67-3.87-1.73S47.51,60,49,60C58.66,59.89,68.3,59.92,77.93,59.92Z"/><path class="e" d="M65.29,23.22c5.67,0,11.33,0,17,0,1.34,0,3,.07,2.89,1.88-.1,1.3-1.61,1.46-2.79,1.46-11.66,0-23.33.06-35,0-1.09,0-2.64-.1-2.62-1.64,0-1.91,1.76-1.72,3-1.73C53.63,23.19,59.46,23.22,65.29,23.22Z"/><path class="e" d="M65,98.07c5.66,0,11.32,0,17,0,1.22,0,3.05-.48,3.24,1.37s-1.56,1.89-2.86,1.89q-17.48,0-35,0c-1.15,0-2.61-.15-2.54-1.72s1.49-1.54,2.65-1.55C53.32,98.05,59.15,98.06,65,98.07Z"/></svg>