<?xml version="1.0" encoding="utf-8"?>
<!-- Generator: Adobe Illustrator 23.1.1, SVG Export Plug-In . SVG Version: 6.00 Build 0)  -->
<svg version="1.1" id="Layer_1" xmlns="http://www.w3.org/2000/svg" xmlns:xlink="http://www.w3.org/1999/xlink" x="0px" y="0px"
	 viewBox="0 0 18 18" style="enable-background:new 0 0 18 18;" xml:space="preserve">
<path d="M13.1,8L6.2,1.1c-0.4-0.4-1-0.5-1.4-0.2C4.6,1.1,4.5,1.3,4.5,1.4C4.4,1.8,4.7,2.1,4.9,2.4L11.5,9l-6.6,6.6
	c-0.2,0.2-0.5,0.6-0.5,1c0,0.2,0.1,0.4,0.3,0.5c0.1,0.1,0.3,0.2,0.5,0.2c0.1,0,0.1,0,0.2,0c0.2-0.1,0.5-0.2,0.7-0.4l7-6.9
	c0.3-0.3,0.4-0.7,0.4-1S13.4,8.3,13.1,8z"/>
</svg>
