<?xml version="1.0" encoding="utf-8"?>
<!-- Generator: Adobe Illustrator 23.1.1, SVG Export Plug-In . SVG Version: 6.00 Build 0)  -->
<svg version="1.1" id="Layer_1" xmlns="http://www.w3.org/2000/svg" xmlns:xlink="http://www.w3.org/1999/xlink" x="0px" y="0px"
	 viewBox="0 0 44 44" style="enable-background:new 0 0 44 44;" xml:space="preserve">
<g id="HlZJ67.tif">
	<g>
		<path d="M20.3,41.9c-1.4-0.3-2.8-0.5-4.2-0.9c-7.4-2.2-13-9-13.8-16.6C1.3,15.5,5.9,7.3,14.2,3.8c7.5-3.2,14.6-2,20.9,3.3
			c3.9,3.3,6.1,7.6,6.6,12.7c0.6,5.1-0.7,9.8-3.7,13.9c-0.1,0.2-0.2,0.3-0.3,0.5c0,0,0,0.1-0.1,0.3c1.2,1.1,2.4,2.3,3.5,3.5
			c0.8,0.8,1.1,1.9,0.5,2.7c-0.3,0.5-0.9,0.8-1.4,1.2c-0.3,0-0.7,0-1,0c-0.5-0.4-1.1-0.8-1.6-1.3c-1-1-2-2-3.1-3.1
			c-0.3,0.2-0.5,0.4-0.7,0.5c-2,1.5-4.3,2.6-6.7,3.2c-1.1,0.3-2.3,0.4-3.4,0.7C22.5,41.9,21.4,41.9,20.3,41.9z M32.4,33.3
			c4.7-4.1,6.3-11.4,3.8-17.3c-2.6-6.1-8.9-9.9-15.5-9.4C14,7.2,8.5,11.9,6.9,18.6C5.5,24.5,8,30.4,11.5,33.2c1.4-3,1.4-3,4.5-5.8
			c-1.4-1.7-2.2-3.7-2-5.9c0.2-2.3,1.1-4.2,2.9-5.7c3-2.5,7.3-2.5,10.3-0.1c1.5,1.3,2.5,2.9,2.8,4.8c0.4,2.6-0.3,4.9-2,6.9
			C30.1,28.9,31.6,30.8,32.4,33.3z M15.4,36c4.4,2,8.7,1.9,13.1,0c-0.3-3.2-3-5.8-6.3-5.9C18.8,30,15.9,32.5,15.4,36z M25.6,22
			c0-2-1.7-3.7-3.7-3.7c-2,0-3.7,1.7-3.7,3.7c0,2,1.7,3.7,3.7,3.7C24,25.7,25.6,24,25.6,22z"/>
	</g>
</g>
</svg>
