<?xml version="1.0" encoding="utf-8"?>
<!-- Generator: Adobe Illustrator 23.1.1, SVG Export Plug-In . SVG Version: 6.00 Build 0)  -->
<svg version="1.1" id="Layer_1" xmlns="http://www.w3.org/2000/svg" xmlns:xlink="http://www.w3.org/1999/xlink" x="0px" y="0px"
	 viewBox="0 0 44 44" style="enable-background:new 0 0 44 44;" xml:space="preserve">
<style type="text/css">
	.st0{fill:#FF0000;stroke:#FF0000;stroke-miterlimit:10;}
</style>
<g id="Os9jSB.tif">
	<g>
		<path class="st0" d="M37.9,22.2c-0.1-5.1-1.9-9.1-5.4-12.3C32,9.5,31.7,9,31.6,8.5c-0.1-0.9,0.3-1.6,1-2c0.7-0.4,1.6-0.3,2.3,0.2
			c1.6,1.4,3,2.9,4.1,4.7c7,11.4,1,26.4-11.9,29.8C16.2,44,5,37.2,2.7,26.3C1,18.7,3.2,12.1,9,6.8C9.9,6,11.1,6,11.9,6.9
			c0.8,0.8,0.7,2.1-0.2,2.9c-2.6,2.3-4.3,5.1-5.1,8.5c-2.1,8.9,3.8,17.8,12.9,19.3c8.6,1.4,16.8-4.4,18.2-13
			C37.8,23.7,37.8,22.8,37.9,22.2z"/>
		<path class="st0" d="M24,12.1c0,2.6,0,5.2,0,7.9c0,1.2-0.7,2-1.7,2.1c-1.2,0.1-2.2-0.7-2.2-2c0-1.3,0-2.7,0-4c0-3.9,0-7.8,0-11.7
			c0-0.3,0-0.6,0.1-0.9c0.3-1,1.2-1.6,2.2-1.4C23.3,2.3,24,3.1,24,4.1C24,6.8,24,9.5,24,12.1C24,12.1,24,12.1,24,12.1z"/>
	</g>
</g>
</svg>
