<svg width="22" height="17" viewBox="0 0 22 17" fill="none" xmlns="http://www.w3.org/2000/svg">
<path d="M2.6 3.19995H15.4C16.28 3.19995 17 3.91995 17 4.79995V14.4C17 15.28 16.28 16 15.4 16H2.6C1.72 16 1 15.28 1 14.4V4.79995C1 3.91995 1.72 3.19995 2.6 3.19995Z" fill="#0066FF" stroke="white" stroke-linecap="round" stroke-linejoin="round"/>
<path d="M17 4.80005L9 10.4L1 4.80005" fill="#0066FF"/>
<path d="M17 4.80005L9 10.4L1 4.80005" stroke="white" stroke-linecap="round" stroke-linejoin="round"/>
<circle cx="17" cy="4.8" r="4.8" fill="white"/>
<path d="M17 6.07977C17.707 6.07977 18.28 5.5067 18.28 4.79977C18.28 4.09285 17.707 3.51978 17 3.51978C16.2931 3.51978 15.72 4.09285 15.72 4.79977C15.72 5.5067 16.2931 6.07977 17 6.07977Z" stroke="#0066FF" stroke-width="0.8" stroke-linecap="round" stroke-linejoin="round"/>
<path d="M18.28 3.51978V5.11977C18.28 5.37438 18.3811 5.61856 18.5612 5.7986C18.7412 5.97863 18.9854 6.07977 19.24 6.07977C19.4946 6.07977 19.7388 5.97863 19.9188 5.7986C20.0988 5.61856 20.2 5.37438 20.2 5.11977V4.79978C20.1999 4.07754 19.9556 3.37657 19.5066 2.81083C19.0577 2.24508 18.4306 1.84785 17.7272 1.68371C17.0239 1.51958 16.2857 1.59819 15.6327 1.90677C14.9798 2.21536 14.4504 2.73576 14.1306 3.38337C13.8109 4.03097 13.7197 4.76769 13.8717 5.47373C14.0238 6.17977 14.4102 6.81361 14.9682 7.27218C15.5262 7.73075 16.2228 7.98708 16.945 7.9995C17.6671 8.01192 18.3722 7.77969 18.9456 7.34057" stroke="#0066FF" stroke-width="0.8" stroke-linecap="round" stroke-linejoin="round"/>
</svg>
