<svg xmlns="http://www.w3.org/2000/svg" viewBox="0 0 29.95 30"><defs><style>.a{fill:#fff;}</style></defs><title>Asset 151</title><path class="a" d="M15.65,0c.48.15,1,.17,1.46.31a8.07,8.07,0,0,1,5.47,5,9.49,9.49,0,0,1,.28,5.58,26.3,26.3,0,0,1-3.22,7.9l-.53.93h6.57c.48,0,.54,0,.71.5q1.75,4.62,3.52,9.23s0,0,0,0v.26a.7.7,0,0,1-.66.31Q15,30,.62,30c-.49,0-.76-.27-.55-.81q1.77-4.53,3.47-9.08a.6.6,0,0,1,.64-.44h6.58c0-.11-.06-.17-.1-.25a29.75,29.75,0,0,1-3.29-7.24,12.33,12.33,0,0,1-.54-4.75,8.05,8.05,0,0,1,3.75-6.14A8.25,8.25,0,0,1,14,.07c.07,0,.15,0,.19-.07ZM14.9.89c-.32,0-.69,0-1.05.1A7.26,7.26,0,0,0,7.69,7.66a13.14,13.14,0,0,0,.94,5.54,39.59,39.59,0,0,0,6.15,10.65c.13.16.19.18.33,0a48.06,48.06,0,0,0,3.74-5.51,27.21,27.21,0,0,0,2.95-6.8,10.87,10.87,0,0,0,.33-4.71A7.37,7.37,0,0,0,14.9.89ZM11.48,27.27a.5.5,0,0,0-.07-.13L6.46,20.7a.33.33,0,0,0-.32-.14c-.51,0-1,0-1.54,0a.34.34,0,0,0-.38.26q-1.51,4-3.06,8c-.11.28,0,.29.23.29,1.19,0,2.39,0,3.59,0a6.33,6.33,0,0,0,2.54-.44C8.82,28.18,10.15,27.74,11.48,27.27Zm-4-6.71c.1.13.15.22.21.3,1.5,1.94,3,3.87,4.47,5.81a.42.42,0,0,0,.57.16c2.79-1,5.59-2,8.39-3,1.6-.57,3.19-1.14,4.79-1.69.22-.08.25-.15.16-.35a7.09,7.09,0,0,1-.38-1c-.06-.2-.17-.24-.36-.24H18.81a.44.44,0,0,0-.41.22,44.05,44.05,0,0,1-3,4.1c-.34.43-.6.43-.95,0a45.93,45.93,0,0,1-3-4.09c-.07-.12-.13-.22-.3-.22ZM9.1,29.05v0H23.75l-.18-.26c-.93-1.21-1.87-2.42-2.8-3.64a.33.33,0,0,0-.45-.14l-8.51,3Zm17.75.06h1.73c.2,0,.28,0,.19-.25-.75-1.93-1.48-3.87-2.22-5.8-.05-.14-.09-.19-.26-.13l-4.61,1.64c-.21.07-.18.13-.07.27q1.58,2,3.14,4.09a.45.45,0,0,0,.4.18Z"/><path class="a" d="M15,11.92A3.73,3.73,0,1,1,18.68,8.2,3.7,3.7,0,0,1,15,11.92ZM17.8,8.23A2.84,2.84,0,1,0,14.93,11,2.85,2.85,0,0,0,17.8,8.23Z"/></svg>