<svg xmlns="http://www.w3.org/2000/svg" viewBox="0 0 40 40"><path d="M18.44,0h3c0,.09.1.07.16.07a19.93,19.93,0,0,1,3.91.71,22.92,22.92,0,0,1,4.2,1.73l1,.62.88.62A1.26,1.26,0,1,1,30.22,5.8,13.08,13.08,0,0,0,29,5a5.43,5.43,0,0,0-1.14-.61,14.82,14.82,0,0,0-4-1.44,8.63,8.63,0,0,0-1.33-.24,16.14,16.14,0,0,0-5.63.14,9.55,9.55,0,0,0-2,.52c-.15,0-.3.07-.44.12A17,17,0,0,0,9.13,6.33a17.19,17.19,0,0,0-5.74,8.35,10.13,10.13,0,0,0-.5,2,15.83,15.83,0,0,0-.15,5.7A5.21,5.21,0,0,0,3,23.67a14.55,14.55,0,0,0,1.46,4.15,4.88,4.88,0,0,0,.56,1A14.49,14.49,0,0,0,7.33,32a5.36,5.36,0,0,0,.79.79,14.92,14.92,0,0,0,3.2,2.37,3.91,3.91,0,0,0,.86.45,15.05,15.05,0,0,0,4.22,1.49,6,6,0,0,0,1.33.22,8.31,8.31,0,0,0,1.65.16,15.38,15.38,0,0,0,4.06-.34,9.64,9.64,0,0,0,2-.53,1.8,1.8,0,0,0,.22-.06,17.44,17.44,0,0,0,10.91-11,9.7,9.7,0,0,0,.52-2,15.61,15.61,0,0,0,.21-5.78,5.21,5.21,0,0,0-.23-1.25,14.4,14.4,0,0,0-1.42-4.14,4.93,4.93,0,0,1-.43-1.1c.18-.93.48-1.21,1.39-1.31a1.75,1.75,0,0,1,.93.55,20.86,20.86,0,0,1,2.24,6.83,4.49,4.49,0,0,0,.19,1.2v3.2c-.12,0-.08.15-.08.23a23.55,23.55,0,0,1-.75,3.81A22.24,22.24,0,0,1,37.34,30a23.28,23.28,0,0,1-2.59,3.5,20.86,20.86,0,0,1-4.84,3.88l-.11,0a20.16,20.16,0,0,1-7,2.37,5.94,5.94,0,0,0-1.32.2H18.36s-.05-.07-.07-.07a23.38,23.38,0,0,1-4.15-.79,26.71,26.71,0,0,1-3.9-1.66L9.44,37a27.81,27.81,0,0,1-3.12-2.4l-.85-.85a27.88,27.88,0,0,1-2.34-3l-.62-1A24.92,24.92,0,0,1,.92,26a25,25,0,0,1-.74-3.3A3.06,3.06,0,0,0,0,21.64V18.36c.12,0,.07-.15.08-.23a23.44,23.44,0,0,1,.44-2.64,21.66,21.66,0,0,1,1.92-5.1l.11-.15A19.85,19.85,0,0,1,7.06,4.76,23.48,23.48,0,0,1,10.4,2.43l.15-.06A20.32,20.32,0,0,1,17.16.2,5.1,5.1,0,0,0,18.44,0Z"/><path d="M10.47,23.25a1.49,1.49,0,0,1-1-.54,1.3,1.3,0,0,1,1.3-2,7.73,7.73,0,0,0,1,0,1.62,1.62,0,0,0,.31,0c.38,0,.91.17,1.11-.06s0-.75.07-1.13-.09-.33-.32-.25l-2.1,0c-1.15,0-1.63-.54-1.48-1.68a2,2,0,0,1,.61-.7,2.41,2.41,0,0,1,.84-.12h2.18c.19,0,.28,0,.27-.26,0-.94,0-1.89,0-2.84V12.19a2,2,0,0,0,0-.23c0-1,.56-1.49,1.63-1.39a1.83,1.83,0,0,1,.77.64c.7,1.1,1.42,2.19,2.18,3.25a6.87,6.87,0,0,0,.64.95l.78,1.2a.26.26,0,0,0,.25.15l3.19,0,1.43,0c.16,0,.22-.06.22-.23,0-.46,0-.92,0-1.38,0-1.08,0-2.16,0-3.24a1.25,1.25,0,0,1,1.24-1.38,1.27,1.27,0,0,1,1.26,1.38c0,.16,0,.33,0,.5v1.49c0,.87,0,1.74,0,2.61,0,.24.1.25.28.25h2.62a1.67,1.67,0,0,1,.84.51A1.28,1.28,0,0,1,30.21,19a1.3,1.3,0,0,1-.81.23l-1,0-.59,0c-.33,0-.78-.12-1,0s0,.66-.08,1,.11.51.47.4l2.07,0a1.26,1.26,0,0,1,1.18,2l-.27.27a1.69,1.69,0,0,1-.93.23H27.06c-.2,0-.28.05-.27.26,0,1,0,2,0,3V28c-.06.93-.34,1.35-1,1.52a1.9,1.9,0,0,1-.58,0,2,2,0,0,1-.76-.54c-.71-1.12-1.44-2.21-2.2-3.28a8.22,8.22,0,0,0-.7-1l-.83-1.27a.28.28,0,0,0-.29-.15l-3,0-1.58,0c-.17,0-.22.06-.22.23,0,.51,0,1,0,1.54,0,1.05,0,2.1,0,3.15a1.26,1.26,0,1,1-2.5,0c0-.14,0-.28,0-.42V26.25c0-.92,0-1.85,0-2.77,0-.23-.1-.25-.28-.24Zm10.54-4c.14.23.25.36.32.51a1.5,1.5,0,0,0,1.8,1c.36-.07.89.12,1.08-.07s.06-.76.08-1.16v-.08c0-.13-.05-.18-.18-.18ZM19,20.74a3.74,3.74,0,0,1-.34-.53,1.45,1.45,0,0,0-1.77-.95c-.36.06-.88-.16-1.07.08s-.06.72-.07,1.09v.08c0,.16,0,.23.21.23Zm4.75,2.51a3.62,3.62,0,0,0,.57.85C24.31,23.22,24.31,23.22,23.71,23.25Zm-7.44-6.52-.53-.8C15.66,16.8,15.66,16.8,16.27,16.73Z"/><path d="M32.83,8c-.17-1,.27-1.66,1.1-1.71a1.51,1.51,0,0,1,.6.09,2,2,0,0,1,.94,1.14,1.21,1.21,0,0,1-.56,1.37,1.24,1.24,0,0,1-1.51-.17A3.61,3.61,0,0,1,32.83,8Z"/></svg>