<svg xmlns="http://www.w3.org/2000/svg" viewBox="0 0 35.97 36"><path d="M19.41,0a17.45,17.45,0,0,1,3.78,1.54A9.56,9.56,0,0,1,24.28,16.7l-.53.46a22.9,22.9,0,0,1,4.77,2.47A18.63,18.63,0,0,1,32.9,24c.55.78.74,1.52-.06,2.22s-1.5.41-2.21-.57a15.55,15.55,0,0,0-10-6.35C12.84,17.83,4.56,23.27,2.92,31c-.3,1.42.25,2.11,1.75,2.11H31.26c1.43,0,1.76-.35,1.82-1.86,0-.88.42-1.47,1.34-1.52s1.35.54,1.5,1.38a4.28,4.28,0,0,1-4.37,4.84c-6.31,0-12.62,0-18.93,0-2.27,0-4.56-.12-6.83,0-2.66.17-4.66-.63-5.79-3.15v-2.4c.41-.23.33-.69.44-1a19,19,0,0,1,3.09-6A18.53,18.53,0,0,1,12.2,17.2c-.2-.19-.33-.32-.48-.45a9.52,9.52,0,0,1-.26-14.18A13.15,13.15,0,0,1,16.3,0Zm5.27,9.6A6.71,6.71,0,1,0,18,16.29,6.65,6.65,0,0,0,24.68,9.6Z"/></svg>