<svg id="Layer_1" enable-background="new 0 0 511.987 511.987" height="512" viewBox="0 0 511.987 511.987" width="512" xmlns="http://www.w3.org/2000/svg"><defs><style>.a{fill:#fff;}</style></defs><g><path class="a" d="m488.399 146.521c13.007 0 23.588-10.6 23.588-23.63v-66.67c0-13.03-10.581-23.63-23.588-23.63h-12.41c-9.697 0-9.697 15 0 15h12.41c4.735 0 8.588 3.872 8.588 8.63v66.67c-.44 11.418-16.719 11.458-17.177 0v-27.085c0-6.555-8.182-9.939-12.811-5.296l-78.643 78.846c-4.1 3.259-8.175 3.227-12.225-.095l-123.786-127.988c-3.544-3.02-7.111-3.048-10.701-.082l-212.003 212.549c-4.044 3.285-8.088 3.285-12.131 0-3.36-3.369-3.36-8.85 0-12.218l223.554-224.132c4.101-3.311 8.176-3.279 12.226.094l123.788 127.988c3.544 3.021 7.111 3.048 10.701.083l67.733-67.908c4.622-4.635 1.235-12.796-5.311-12.796h-28.301c-4.736 0-8.589-3.871-8.589-8.63s3.853-8.63 8.589-8.63h14.102c9.697 0 9.697-15 0-15h-14.102c-31.291 1.296-31.287 45.967 0 47.26h10.226l-49.577 49.705-118.477-122.5c-8.915-9.218-24.552-9.359-33.628-.26l-223.554 224.133c-9.186 9.209-9.186 24.194 0 33.403 8.963 8.988 24.392 9.006 33.373 0l206.608-207.142 118.479 122.499c8.977 9.283 24.511 9.4 33.628.26l65.832-66.003v8.946c0 13.029 10.583 23.629 23.589 23.629z"/><path class="a" d="m456.962 286.704c-2.657-36.552-105.898-37.109-134.987-18.932v-58.548c0-25.628-56.65-31.665-75.017-31.665s-75.017 6.704-75.017 31.665v135.622c-29.48-18.326-131.031-17.491-134.988 18.932 0 0-.047 78.432-.047 116.487 0 20.788 37.738 31.665 75.017 31.665 27.228 0 54.682-5.809 67.517-17.038 25.813 22.66 109.221 22.66 135.034 0 24.651 24.476 139.976 24.619 142.533-14.627.002 0-.045-193.29-.045-193.561zm-149.986-38.942s-4.019 6.166-14.803 10.026c-27.29 9.767-63.149 9.764-90.429 0-10.784-3.86-14.802-10.026-14.802-10.026v-18.786c32.429 17.695 87.605 17.695 120.034 0zm-99.757 66.422c9.102 2.22 12.855-12.306 3.553-14.573-17.83-4.347-23.83-10.541-23.83-12.7v-19.398c32.429 17.695 87.605 17.695 120.034 0v19.398c0 1.828-4.019 6.167-14.803 10.026-11.962 4.281-28.02 6.639-45.214 6.639-9.697 0-9.697 15 0 15 22.725 0 45.604-4.049 60.017-11.914v19.398c0 1.828-4.019 6.166-14.803 10.026-27.29 9.767-63.149 9.764-90.429 0-10.784-3.86-14.802-8.198-14.802-10.026v-19.284c5.4 2.939 12.189 5.436 20.277 7.408zm234.79 88.951c0 1.828-4.019 6.167-14.803 10.026-27.29 9.767-63.148 9.763-90.428 0-10.784-3.859-14.803-8.198-14.803-10.026v-18.786c32.428 17.695 87.605 17.695 120.033 0v18.786zm-255.067-18.787c32.429 17.695 87.605 17.695 120.034 0v18.786c0 1.828-4.019 6.167-14.803 10.026-27.29 9.767-63.149 9.764-90.429 0-10.784-3.859-14.802-8.198-14.802-10.026zm255.067-19.751c0 1.828-4.019 6.167-14.803 10.026-27.29 9.767-63.148 9.763-90.428 0-10.784-3.859-14.803-8.198-14.803-10.026v-18.786c32.428 17.695 87.605 17.695 120.033 0v18.786zm0-38.537c0 1.828-4.019 6.166-14.803 10.026-27.29 9.767-63.148 9.763-90.428 0-10.784-3.86-14.803-8.198-14.803-10.026v-18.786c32.428 17.695 87.605 17.695 120.033 0v18.786zm-255.067 19.751c32.429 17.695 87.605 17.695 120.034 0v18.786c0 1.828-4.019 6.167-14.803 10.026-27.29 9.767-63.149 9.764-90.429 0-10.784-3.859-14.802-8.198-14.802-10.026zm-15 57.324c0 1.828-4.019 6.167-14.803 10.026-27.29 9.767-63.149 9.764-90.429 0-10.784-3.859-14.803-8.198-14.803-10.026v-18.786c32.429 17.695 87.605 17.695 120.034 0v18.786zm-120.034 19.75c32.429 17.695 87.605 17.695 120.034 0v18.786c0 1.828-4.019 6.167-14.803 10.026-27.29 9.767-63.149 9.764-90.429 0-10.784-3.859-14.803-8.198-14.803-10.026v-18.786zm135.034 0c32.429 17.695 87.605 17.695 120.034 0v18.786c0 1.828-4.019 6.167-14.803 10.026-27.29 9.767-63.149 9.764-90.429 0-10.784-3.859-14.802-8.198-14.802-10.026zm135.034 0c32.428 17.695 87.605 17.695 120.033 0v18.786c0 1.828-4.019 6.167-14.803 10.026-27.29 9.767-63.148 9.763-90.428 0-10.784-3.859-14.803-8.198-14.803-10.026v-18.786zm14.802-145.388c23.376-8.786 67.051-8.786 90.428 0 10.784 3.859 14.803 8.198 14.803 10.026s-4.019 6.166-14.803 10.026c-11.962 4.281-28.02 6.639-45.214 6.639s-33.252-2.358-45.214-6.639c-10.784-3.86-14.803-8.198-14.803-10.026.001-1.828 4.019-6.166 14.803-10.026zm-135.034-78.298c23.377-8.786 67.052-8.786 90.429 0 10.784 3.859 14.803 8.198 14.803 10.026s-4.019 6.166-14.803 10.026c-27.29 9.767-63.149 9.764-90.429 0-10.784-3.86-14.802-8.198-14.802-10.026s4.018-6.167 14.802-10.026zm-135.034 155.373c27.29-9.767 63.149-9.764 90.429 0 10.784 3.86 14.803 8.198 14.803 10.026s-4.019 6.167-14.803 10.026c-27.29 9.767-63.149 9.764-90.429 0-10.784-3.859-14.803-8.198-14.803-10.026.001-1.828 4.019-6.167 14.803-10.026zm90.429 135.719c-27.29 9.767-63.149 9.764-90.429 0-10.784-3.859-14.803-8.198-14.803-10.026v-18.843c32.429 17.695 87.605 17.695 120.034 0v18.843c.001 1.829-4.018 6.167-14.802 10.026zm135.034 0c-27.29 9.767-63.149 9.764-90.429 0-10.784-3.859-14.802-8.198-14.802-10.026v-18.843c32.429 17.695 87.605 17.695 120.034 0v18.843c0 1.829-4.019 6.167-14.803 10.026zm135.033 0c-27.29 9.767-63.148 9.763-90.428 0-10.784-3.859-14.803-8.198-14.803-10.026v-18.843c32.428 17.695 87.605 17.695 120.033 0v18.843c.001 1.829-4.018 6.167-14.802 10.026z"/></g></svg>