<svg xmlns="http://www.w3.org/2000/svg" viewBox="0 0 24 24"><defs><style>.a{fill:#06f;}</style></defs><title>Asset 161</title><path class="a" d="M11.28,0h1.51s.06,0,.09,0a12.75,12.75,0,0,1,1.51.21A12,12,0,0,1,23.91,10.5a5,5,0,0,0,.09.78v1.48c-.05,0,0,.08,0,.12,0,.34-.06.68-.12,1a11.85,11.85,0,0,1-4.06,7.22,11.69,11.69,0,0,1-6.26,2.79,6,6,0,0,0-.74.1H11.17c0-.05-.07,0-.1,0a7.9,7.9,0,0,1-1.19-.15,11.86,11.86,0,0,1-7.2-4.27,11.72,11.72,0,0,1-2.58-6,3.19,3.19,0,0,0-.1-.7V11.17c.05,0,0-.07,0-.1A11.66,11.66,0,0,1,.18,9.9,11.89,11.89,0,0,1,4.53,2.62a11.77,11.77,0,0,1,6-2.52A7.11,7.11,0,0,0,11.28,0ZM7.62,11a1,1,0,0,0-.92.64,1,1,0,0,0,.21,1c1.06,1.07,2.14,2.12,3.19,3.2a1.06,1.06,0,0,0,1.55,0Q14.8,12.72,18,9.57a2.09,2.09,0,0,0,.2-.22,1,1,0,0,0-1.54-1.27q-2.79,2.8-5.59,5.59c-.17.17-.17.17-.34,0L8.35,11.32A1,1,0,0,0,7.62,11Z"/></svg>