<svg width="32" height="32" viewBox="0 0 32 32" fill="none" xmlns="http://www.w3.org/2000/svg">
<path d="M25.3334 2.66663H12C10.5294 2.66663 9.33337 3.86263 9.33337 5.33329V12.7813L3.05737 19.0573C2.87096 19.2438 2.74402 19.4813 2.6926 19.7399C2.64117 19.9985 2.66758 20.2666 2.76847 20.5102C2.86936 20.7538 3.04022 20.962 3.25943 21.1085C3.47864 21.255 3.73637 21.3332 4.00004 21.3333V28C4.00004 28.3536 4.14052 28.6927 4.39057 28.9428C4.64061 29.1928 4.97975 29.3333 5.33337 29.3333H26.6667C27.0203 29.3333 27.3595 29.1928 27.6095 28.9428C27.8596 28.6927 28 28.3536 28 28V5.33329C28 3.86263 26.804 2.66663 25.3334 2.66663ZM14.6667 26.6666H6.66671V19.2186L10.6667 15.2186L14.6667 19.2186V26.6666ZM25.3334 26.6666H17.3334V21.3333C17.5973 21.3339 17.8555 21.256 18.0751 21.1096C18.2948 20.9632 18.4659 20.7549 18.5669 20.511C18.6679 20.2671 18.6942 19.9988 18.6424 19.7399C18.5906 19.4811 18.4631 19.2435 18.276 19.0573L12 12.7813V5.33329H25.3334V26.6666Z" fill="white"/>
<path d="M14.6668 8H17.3335V10.6667H14.6668V8ZM20.0002 8H22.6668V10.6667H20.0002V8ZM20.0002 13.3747H22.6668V16H20.0002V13.3747ZM20.0002 18.6667H22.6668V21.3333H20.0002V18.6667ZM9.3335 20H12.0002V22.6667H9.3335V20Z" fill="white"/>
</svg>
