<svg width="32" height="32" viewBox="0 0 32 32" fill="none" xmlns="http://www.w3.org/2000/svg">
<path d="M21 22H15C14.4697 21.9995 13.9613 21.7886 13.5864 21.4136C13.2114 21.0387 13.0005 20.5303 13 20V16C13.0005 15.4697 13.2114 14.9613 13.5864 14.5864C13.9613 14.2114 14.4697 14.0005 15 14H21C21.5303 14.0005 22.0387 14.2114 22.4136 14.5864C22.7886 14.9613 22.9995 15.4697 23 16V20C22.9995 20.5303 22.7886 21.0387 22.4136 21.4136C22.0387 21.7886 21.5303 21.9995 21 22ZM15 16V20H21V16H15Z" fill="white"/>
<path d="M11 17H9V12C9.00053 11.4697 9.21141 10.9613 9.58637 10.5864C9.96133 10.2114 10.4697 10.0005 11 10H17V12H11V17Z" fill="white"/>
<path d="M16 31.0001C15.8229 31.0002 15.649 30.9533 15.496 30.8641L3.496 23.8641C3.34502 23.776 3.21978 23.6498 3.13275 23.4982C3.04572 23.3466 2.99995 23.1749 3 23.0001V9.00005C2.99995 8.82525 3.04572 8.65349 3.13275 8.50189C3.21978 8.35029 3.34502 8.22415 3.496 8.13605L15.496 1.13605C15.649 1.04679 15.8229 0.999756 16 0.999756C16.1771 0.999756 16.351 1.04679 16.504 1.13605L28.504 8.13605L27.496 9.86405L16 3.15805L5 9.57405V22.4261L16 28.8431L27 22.4261V15.0001H29V23.0001C29.0001 23.1749 28.9543 23.3466 28.8673 23.4982C28.7802 23.6498 28.655 23.776 28.504 23.8641L16.504 30.8641C16.351 30.9533 16.1771 31.0002 16 31.0001V31.0001Z" fill="white"/>
</svg>
